<svg id="Layer_1" data-name="Layer 1" xmlns="http://www.w3.org/2000/svg" viewBox="0 0 96 96"><defs><style>.cls-1{fill:#fff;}.cls-2{fill:#faccfa;}</style></defs><circle class="cls-1" cx="48" cy="48" r="48"/><path class="cls-2" d="M48,96A48.08,48.08,0,0,1,1.88,61.29h0A48,48,0,1,1,48,96ZM4.86,60.43A44.89,44.89,0,1,0,8.7,26.29,44.94,44.94,0,0,0,4.86,60.43Z" transform="translate(0)"/><path d="M32.89,56.91A10.38,10.38,0,0,1,22.28,46.8V46H43.5v.77A10.38,10.38,0,0,1,32.89,56.91Zm-9-9.33a8.88,8.88,0,0,0,9,7.78,8.89,8.89,0,0,0,9-7.78Z" transform="translate(0)"/><path d="M42.72,47.05a.77.77,0,0,1-.68-.41L32.89,29.52,23.74,46.64a.78.78,0,1,1-1.37-.73l9.65-18a1,1,0,0,1,1.74,0l9.64,18A.77.77,0,0,1,43.09,47,.81.81,0,0,1,42.72,47.05Z" transform="translate(0)"/><path d="M63.11,56.91A10.38,10.38,0,0,1,52.5,46.8V46H73.72v.77A10.38,10.38,0,0,1,63.11,56.91Zm-9-9.33a9.12,9.12,0,0,0,18,0Z" transform="translate(0)"/><path d="M72.94,47.05a.78.78,0,0,1-.68-.41L63.11,29.52,54,46.64a.77.77,0,1,1-1.36-.73l9.64-18a1,1,0,0,1,1.74,0l9.64,18A.77.77,0,0,1,73.31,47,.81.81,0,0,1,72.94,47.05Z" transform="translate(0)"/><path d="M63.38,29H32.61a.77.77,0,0,1,0-1.54H63.38a.77.77,0,1,1,0,1.54Z" transform="translate(0)"/><path d="M48,72.85a.76.76,0,0,1-.77-.77V21.65a.77.77,0,0,1,1.54,0V72.08A.76.76,0,0,1,48,72.85Z" transform="translate(0)"/><path d="M65.39,73.1H30.61a.78.78,0,1,1,0-1.55H65.39a.78.78,0,1,1,0,1.55Z" transform="translate(0)"/></svg>