<svg id="Layer_1" data-name="Layer 1" xmlns="http://www.w3.org/2000/svg" viewBox="0 0 96 96"><defs><style>.cls-1{fill:#fff;}.cls-2{fill:#c09036;}.cls-3{fill:#d1d3d4;}</style></defs><circle class="cls-1" cx="48" cy="48" r="48"/><path class="cls-2" d="M48,96A48,48,0,1,1,91.31,68.6h0A48.12,48.12,0,0,1,48,96Zm.1-92.82a44.82,44.82,0,1,0,40.4,64.09h0A44.82,44.82,0,0,0,48.07,3.15Z" transform="translate(0)"/><path d="M61.75,75.18H33.42a3.18,3.18,0,0,1-3.1-3.26L27.29,29A1.66,1.66,0,0,1,29,27.22H66.19a1.7,1.7,0,0,1,1.26.54A1.67,1.67,0,0,1,67.89,29l-3,43A3.16,3.16,0,0,1,61.75,75.18ZM29,28.79a.13.13,0,0,0-.09,0l3,43a1.63,1.63,0,0,0,1.52,1.74H61.75a1.61,1.61,0,0,0,1.52-1.69l3-43Z" transform="translate(0)"/><path d="M53.77,68.82H53.7A.77.77,0,0,1,53,68l3-35.18a.79.79,0,0,1,.85-.72.8.8,0,0,1,.72.85l-3,35.19A.79.79,0,0,1,53.77,68.82Z" transform="translate(0)"/><path d="M41.49,68.82a.79.79,0,0,1-.79-.73L37.93,32.9a.78.78,0,0,1,.72-.84.81.81,0,0,1,.85.72L42.27,68a.78.78,0,0,1-.72.84Z" transform="translate(0)"/><path d="M54.84,28.79H40.34V28a7.25,7.25,0,0,1,14.5,0ZM42,27.22H53.21a5.67,5.67,0,0,0-11.24,0Z" transform="translate(0)"/><path d="M70.88,28.79H24.3a.79.79,0,1,1,0-1.57H70.88a.79.79,0,1,1,0,1.57Z" transform="translate(0)"/><path class="cls-3" d="M49.8,95.92l-.11-3.15a44.16,44.16,0,0,0,10-1.52l.82,3A47.53,47.53,0,0,1,49.8,95.92ZM39,95.09,38.34,95a48.24,48.24,0,0,1-9.7-3.08L29.91,89A45.38,45.38,0,0,0,39,91.87l.61.13Zm31.6-4.8-1.48-2.78a45.43,45.43,0,0,0,8.34-5.74l2.07,2.37A47.56,47.56,0,0,1,70.59,90.29ZM19.28,86.41A48.23,48.23,0,0,1,11.39,79l2.41-2a45.25,45.25,0,0,0,7.37,6.94ZM86.84,76.15,84.29,74.3a44.75,44.75,0,0,0,5-8.81l2.9,1.23A47.64,47.64,0,0,1,86.84,76.15ZM5.37,70A48.18,48.18,0,0,1,1.51,59.85l3.05-.79a44.88,44.88,0,0,0,3.61,9.47ZM95.24,56.32l-3.1-.55a45,45,0,0,0,.69-7.85c0-.75,0-1.5,0-2.25l3.14-.16c0,.8.07,1.6.07,2.41A47.44,47.44,0,0,1,95.24,56.32ZM0,49.11c0-.37,0-.73,0-1.09a48.19,48.19,0,0,1,1-9.71l3.09.63A44.92,44.92,0,0,0,3.17,48c0,.34,0,.67,0,1ZM91.11,35.68a44.17,44.17,0,0,0-3.86-9.36L90,24.79a48.89,48.89,0,0,1,4.14,10ZM6.27,31.6,3.33,30.45A47.71,47.71,0,0,1,8.4,20.87L11,22.65A44.54,44.54,0,0,0,6.27,31.6ZM81.39,18.06a44.8,44.8,0,0,0-7.56-6.74l1.82-2.57A48.15,48.15,0,0,1,83.74,16ZM17.63,15,15.5,12.68a48.1,48.1,0,0,1,8.75-6.39L25.81,9A44.77,44.77,0,0,0,17.63,15ZM65,6.47A44.15,44.15,0,0,0,57,4.07c-.61-.13-1.23-.24-1.84-.34L55.71.62c.65.11,1.3.22,1.95.36a48,48,0,0,1,8.48,2.57ZM35.12,5l-.91-3A48.41,48.41,0,0,1,44.88.08l.2,3.15A44.43,44.43,0,0,0,35.12,5Z" transform="translate(0)"/><path d="M90,6.81,86.45,9l-.9-1.58,3.68-1.91L85.55,3.62l.9-1.57L90,4.26,89.8.13h1.8l-.15,4.13,3.49-2.21.9,1.57L92.16,5.54l3.68,1.91L94.94,9,91.45,6.81l.15,4.13H89.8Z" transform="translate(0)"/></svg>