<svg id="Layer_1" data-name="Layer 1" xmlns="http://www.w3.org/2000/svg" viewBox="0 0 96 96.01"><defs><style>.cls-1{fill:#fff;}.cls-2{fill:#faccfa;}</style></defs><circle class="cls-1" cx="48" cy="48.01" r="48"/><path d="M79.73,65h-15V58.89h4V42.27h-4V36.15h15v6.12H75.79V58.89h3.94ZM66.32,63.46H78.18v-3H74.24V40.72h3.94v-3H66.32v3h3.94V60.44H66.32Z"/><path d="M72.25,34.42A4.94,4.94,0,0,1,68.6,32.9a5,5,0,0,1-1.5-3.63,5,5,0,0,1,1.45-3.58,4.91,4.91,0,0,1,3.7-1.53,5,5,0,0,1,3.62,1.47,4.89,4.89,0,0,1,1.53,3.64,4.94,4.94,0,0,1-1.52,3.65A5,5,0,0,1,72.25,34.42Zm0-8.72a3.39,3.39,0,0,0-2.58,1.06,3.6,3.6,0,0,0,0,5,3.56,3.56,0,0,0,5.09,0,3.59,3.59,0,0,0,0-5.08A3.51,3.51,0,0,0,72.25,25.7Z"/><rect x="16.26" y="37.47" width="1.55" height="25.21"/><path d="M35.86,71.85c-11,0-19.6-4-19.6-9.17h1.55c0,4.13,8.27,7.63,18.05,7.63s18-3.5,18-7.63h1.55C55.46,67.82,46.85,71.85,35.86,71.85Z"/><path d="M35.86,63.45c-11,0-19.6-4-19.6-9.18h1.55c0,4.14,8.27,7.63,18.05,7.63s18-3.49,18-7.63h1.55C55.46,59.42,46.85,63.45,35.86,63.45Z"/><path d="M35.86,55.05c-11,0-19.6-4-19.6-9.18h1.55c0,4.14,8.27,7.63,18.05,7.63s18-3.49,18-7.63h1.55C55.46,51,46.85,55.05,35.86,55.05Z"/><path d="M35.86,46.65c-11,0-19.6-4-19.6-9.18s8.61-9.18,19.6-9.18,19.6,4,19.6,9.18S46.85,46.65,35.86,46.65Zm0-16.81c-9.78,0-18,3.49-18,7.63s8.27,7.63,18.05,7.63,18-3.5,18-7.63S45.64,29.84,35.86,29.84Z"/><rect x="53.91" y="37.47" width="1.55" height="25.21"/><path class="cls-2" d="M48.09,96A48.06,48.06,0,0,1,1,38.34H1A48,48,0,0,1,88.07,21.6,48,48,0,0,1,48.09,96ZM4,39A44.89,44.89,0,1,0,23.29,10.52,44.95,44.95,0,0,0,4,39Z"/></svg>