<svg id="Layer_1" data-name="Layer 1" xmlns="http://www.w3.org/2000/svg" viewBox="0 0 96 96"><defs><style>.cls-1{fill:#fff;}.cls-2{fill:#27635f;}.cls-3{fill:#bcbec0;}</style></defs><circle class="cls-1" cx="48" cy="48" r="48"/><path d="M90.11,6.69,86.61,8.9l-.9-1.57,3.68-1.92L85.71,3.5l.9-1.58,3.5,2.22L90,0h1.8l-.15,4.13L95.1,1.92,96,3.5,92.32,5.41,96,7.33,95.1,8.9,91.61,6.69l.15,4.13H90Z" transform="translate(0)"/><rect x="17.92" y="50.18" width="1.58" height="13.91"/><path class="cls-1" d="M18.71,64.1c0,2.56,4.65,4.63,10.39,4.63s10.39-2.07,10.39-4.63" transform="translate(0)"/><path d="M29.1,69.52c-6.37,0-11.18-2.33-11.18-5.43H19.5c0,1.83,3.94,3.86,9.6,3.86s9.6-2,9.6-3.86h1.58C40.28,67.19,35.47,69.52,29.1,69.52Z" transform="translate(0)"/><path class="cls-1" d="M18.71,59.46c0,2.56,4.65,4.64,10.39,4.64S39.49,62,39.49,59.46" transform="translate(0)"/><path d="M29.1,64.88c-6.37,0-11.18-2.33-11.18-5.42H19.5c0,1.82,3.94,3.85,9.6,3.85s9.6-2,9.6-3.85h1.58C40.28,62.55,35.47,64.88,29.1,64.88Z" transform="translate(0)"/><path class="cls-1" d="M18.71,54.82c0,2.56,4.65,4.64,10.39,4.64s10.39-2.08,10.39-4.64" transform="translate(0)"/><path d="M29.1,60.25c-6.37,0-11.18-2.34-11.18-5.43H19.5c0,1.82,3.94,3.85,9.6,3.85s9.6-2,9.6-3.85h1.58C40.28,57.91,35.47,60.25,29.1,60.25Z" transform="translate(0)"/><ellipse class="cls-1" cx="29.1" cy="50.18" rx="10.39" ry="4.64"/><path d="M29.1,55.61c-6.37,0-11.18-2.34-11.18-5.43s4.81-5.43,11.18-5.43,11.18,2.34,11.18,5.43S35.47,55.61,29.1,55.61Zm0-9.28c-5.66,0-9.6,2-9.6,3.85S23.44,54,29.1,54s9.6-2,9.6-3.85S34.76,46.33,29.1,46.33Z" transform="translate(0)"/><rect x="38.7" y="50.18" width="1.58" height="13.91"/><path class="cls-2" d="M48,96H47A47.73,47.73,0,0,1,13.33,81.21h0A48,48,0,0,1,82.64,14.82a48,48,0,0,1-1.46,67.85A47.65,47.65,0,0,1,48,96ZM48,3.2A44.82,44.82,0,0,0,15.61,79h0A44.83,44.83,0,1,0,48,3.2Z" transform="translate(0)"/><path d="M68,71.16a14,14,0,1,1,14-14A14,14,0,0,1,68,71.16Zm0-26.47A12.45,12.45,0,1,0,80.4,57.14,12.47,12.47,0,0,0,68,44.69Z" transform="translate(0)"/><path d="M68,71.16c-4.2,0-7.48-6.16-7.48-14s3.28-14,7.48-14,7.48,6.16,7.48,14S72.15,71.16,68,71.16Zm0-26.47c-3.2,0-5.91,5.7-5.91,12.45S64.76,69.58,68,69.58s5.9-5.7,5.9-12.44S71.16,44.69,68,44.69Z" transform="translate(0)"/><rect x="56.28" y="50.03" width="23.48" height="1.58"/><rect x="56.28" y="62.65" width="23.48" height="1.58"/><rect x="54.85" y="56.34" width="26.34" height="1.58"/><rect x="67.17" y="43.91" width="1.58" height="26.47"/><path class="cls-3" d="M49.8,96l-.11-3.15a45.31,45.31,0,0,0,10-1.52l.82,3A48,48,0,0,1,49.8,96ZM39,95.14,38.34,95a48.7,48.7,0,0,1-9.7-3.09L29.91,89A44.37,44.37,0,0,0,39,91.92l.61.12Zm31.61-4.8-1.48-2.78a45.48,45.48,0,0,0,8.34-5.75l2.07,2.38A48.86,48.86,0,0,1,70.6,90.34ZM19.28,86.46A47.92,47.92,0,0,1,11.39,79l2.4-2a45.25,45.25,0,0,0,7.37,6.94ZM86.85,76.2,84.3,74.34a44.25,44.25,0,0,0,5-8.81l2.9,1.23A47.5,47.5,0,0,1,86.85,76.2ZM5.36,70A48.1,48.1,0,0,1,1.5,59.88l3.05-.78a45.13,45.13,0,0,0,3.61,9.46ZM95.25,56.36l-3.1-.55a45.13,45.13,0,0,0,.7-7.86q0-1.12-.06-2.25l3.15-.16c0,.8.06,1.61.06,2.41A47.47,47.47,0,0,1,95.25,56.36ZM0,49.14c0-.36,0-.72,0-1.09a48.19,48.19,0,0,1,1-9.71L4.09,39a44.82,44.82,0,0,0-.93,9.07c0,.34,0,.68,0,1ZM91.13,35.71a45,45,0,0,0-3.87-9.37L90,24.82a47.8,47.8,0,0,1,4.14,10ZM6.26,31.63,3.32,30.48a48.06,48.06,0,0,1,5.07-9.59L11,22.68A44,44,0,0,0,6.26,31.63ZM81.4,18.08a44.74,44.74,0,0,0-7.56-6.73l1.82-2.58A48.15,48.15,0,0,1,83.75,16ZM17.63,15,15.49,12.7a48.23,48.23,0,0,1,8.75-6.39l1.57,2.74A45,45,0,0,0,17.63,15ZM65,6.49A45,45,0,0,0,57,4.09c-.61-.13-1.22-.24-1.83-.34L55.71.64q1,.16,1.95.36a48.28,48.28,0,0,1,8.48,2.57ZM35.12,5.05l-.91-3A47.82,47.82,0,0,1,44.88.11l.2,3.14A45,45,0,0,0,35.12,5.05Z" transform="translate(0)"/><path class="cls-1" d="M67.91,39.7a.54.54,0,0,1-.94,0l-1-1.78-1-1.79a.54.54,0,0,1,.47-.81H69.5a.54.54,0,0,1,.47.81l-1,1.79Z" transform="translate(0)"/><path d="M67.44,40.76a1.32,1.32,0,0,1-1.15-.66l-2.06-3.58a1.33,1.33,0,0,1,1.15-2h4.13a1.3,1.3,0,0,1,1.14.67,1.32,1.32,0,0,1,0,1.32L68.59,40.1a1.32,1.32,0,0,1-1.15.66Zm-.21-1.45Zm-1.42-3.2,1.63,2.83,1.63-2.83Z" transform="translate(0)"/><path d="M30.28,38.43a.79.79,0,0,1-.79-.78V28a3.19,3.19,0,0,1,3.18-3.18H65a3.28,3.28,0,0,1,3.28,3.28v7.19a.79.79,0,1,1-1.58,0V28.13a1.7,1.7,0,0,0-1.7-1.7H32.66a1.6,1.6,0,0,0-1.6,1.6v9.61a.79.79,0,0,1-.79.79Z" transform="translate(0)"/></svg>