<svg id="Layer_1" data-name="Layer 1" xmlns="http://www.w3.org/2000/svg" viewBox="0 0 96 96"><defs><style>.cls-1{fill:#fff;}.cls-2{fill:#95872c;}.cls-3{fill:#bcbec0;}</style></defs><circle class="cls-1" cx="48" cy="48" r="48"/><path d="M90.09,6.7,86.6,8.91l-.9-1.57,3.68-1.92L85.7,3.51l.9-1.58,3.49,2.22L89.94,0h1.81L91.6,4.15l3.49-2.22L96,3.51,92.31,5.42,96,7.34l-.9,1.57L91.6,6.7l.15,4.13H89.94Z" transform="translate(0)"/><path class="cls-2" d="M48,96a47.81,47.81,0,0,1-15.22-2.5h0A47.95,47.95,0,1,1,48,96ZM33.74,90.51A44.84,44.84,0,0,0,88.12,28,44.83,44.83,0,1,0,33.74,90.51Z" transform="translate(0)"/><path class="cls-3" d="M49.8,96l-.11-3.15a44.73,44.73,0,0,0,10-1.52l.83,3A47.53,47.53,0,0,1,49.8,96ZM39,95.12,38.34,95a48.27,48.27,0,0,1-9.7-3.09L29.91,89A45.38,45.38,0,0,0,39,91.9l.61.12Zm31.61-4.8-1.48-2.78a45.48,45.48,0,0,0,8.34-5.75l2.07,2.38A48.86,48.86,0,0,1,70.6,90.32ZM19.28,86.44A48.69,48.69,0,0,1,11.39,79l2.41-2a45.25,45.25,0,0,0,7.37,6.94ZM86.85,76.18,84.3,74.32a44.47,44.47,0,0,0,5-8.81l2.9,1.23A47.72,47.72,0,0,1,86.85,76.18ZM5.36,70A47.94,47.94,0,0,1,1.51,59.86l3.05-.78a44.88,44.88,0,0,0,3.61,9.47ZM95.25,56.35l-3.1-.55a45.21,45.21,0,0,0,.7-7.86q0-1.12-.06-2.25l3.15-.16c0,.8.06,1.6.06,2.41A47.56,47.56,0,0,1,95.25,56.35ZM0,49.12c0-.36,0-.72,0-1.09a48.9,48.9,0,0,1,1-9.7L4.09,39A45.54,45.54,0,0,0,3.17,48c0,.34,0,.68,0,1ZM91.13,35.7a45,45,0,0,0-3.87-9.37L90,24.81a48.34,48.34,0,0,1,4.14,10ZM6.26,31.61,3.33,30.46A47.47,47.47,0,0,1,8.4,20.88L11,22.66A45.1,45.1,0,0,0,6.26,31.61ZM81.4,18.07a44.74,44.74,0,0,0-7.56-6.73l1.82-2.58A48.15,48.15,0,0,1,83.75,16ZM17.63,15,15.5,12.69A48.1,48.1,0,0,1,24.25,6.3L25.81,9A45.29,45.29,0,0,0,17.63,15ZM65,6.48A44.5,44.5,0,0,0,57,4.08c-.61-.13-1.22-.24-1.82-.34L55.72.63c.64.1,1.29.22,1.94.36a47.8,47.8,0,0,1,8.49,2.57ZM35.13,5l-.91-3A48.41,48.41,0,0,1,44.89.09l.2,3.15A44.43,44.43,0,0,0,35.13,5Z" transform="translate(0)"/><path d="M66.33,72.62a3.17,3.17,0,0,1-2.47-1l-24.5-24.7c-4.75,2.44-11.1,1.59-14.72-2a12.32,12.32,0,0,1-3.26-11.65l.33-1.38L28.84,39l6.73-.73.85-6.82-7.08-7.11,1.4-.31a12.33,12.33,0,0,1,11.47,3.34c3.57,3.59,4.51,10.1,2.22,14.8L68.8,66.7a3.48,3.48,0,0,1-2.47,5.92ZM39.66,44.9l.58.64L65,70.49a1.91,1.91,0,0,0,1.34.55h0a1.87,1.87,0,0,0,1.34-.55,1.9,1.9,0,0,0,0-2.68L42.49,42.42l.29-.52c2.28-4.08,1.5-10.24-1.69-13.45a10.74,10.74,0,0,0-8.52-3.14l5.51,5.54L37,39.67l-8.72.95L22.66,35a10.75,10.75,0,0,0,3.1,8.72C29,47,35,47.65,39.11,45.23Z" transform="translate(0)"/><path class="cls-1" d="M53.86,42.54,35.5,61.82l-1.13-1.07a.72.72,0,0,0-1.13.21L28.8,69.65a.73.73,0,0,0,.13.85l1.17,1.11a.71.71,0,0,0,.85.09l8.44-4.93a.71.71,0,0,0,.14-1.14L38.4,64.56,56.72,45.32" transform="translate(0)"/><path d="M30.58,72.59a1.49,1.49,0,0,1-1-.41l-1.16-1.12a1.5,1.5,0,0,1-.3-1.76l4.45-8.7a1.51,1.51,0,0,1,1.1-.81,1.46,1.46,0,0,1,1.27.39l.57.53L53.28,42l1.15,1.09L35.53,62.93l-1.7-1.61L29.5,70l1.14,1,8.35-5-1.7-1.5L56.15,44.77l1.14,1.09L39.52,64.53l.56.52a1.49,1.49,0,0,1,.45,1.26,1.52,1.52,0,0,1-.75,1.14l-8.43,4.93A1.54,1.54,0,0,1,30.58,72.59Z" transform="translate(0)"/><path d="M58.6,46.9a3.61,3.61,0,0,1-2.51-1l-3-2.8A3.66,3.66,0,0,1,53,37.93L65.68,24.5a3.56,3.56,0,0,1,2.55-1.14,3.67,3.67,0,0,1,2.61,1l3,2.8A3.66,3.66,0,0,1,74,32.32L61.25,45.76A3.61,3.61,0,0,1,58.6,46.9ZM54.2,42l3,2.81a2.08,2.08,0,0,0,2.94-.09l12.7-13.43a2,2,0,0,0,.56-1.49,2,2,0,0,0-.65-1.45l-3-2.8a2,2,0,0,0-1.49-.57,2.1,2.1,0,0,0-1.45.65L54.12,39A2.07,2.07,0,0,0,54.2,42Z" transform="translate(0)"/></svg>