<svg id="Layer_1" data-name="Layer 1" xmlns="http://www.w3.org/2000/svg" viewBox="0 0 96 96"><defs><style>.cls-1{fill:#fff;}.cls-2{fill:#fdb6ba;}</style></defs><circle class="cls-1" cx="48" cy="48" r="48"/><path class="cls-2" d="M48.1,96a48.34,48.34,0,0,1-9.76-1A48,48,0,0,1,21.6,7.93,48,48,0,0,1,95,57.66,48,48,0,0,1,48.1,96ZM47.91,3.15A44.88,44.88,0,0,0,4.09,39h0A44.83,44.83,0,0,0,72.67,85.44,44.88,44.88,0,0,0,47.91,3.15Z" transform="translate(0)"/><path d="M65.16,75.47H30.84a3.61,3.61,0,0,1-3.6-3.6v-47a3.61,3.61,0,0,1,3.6-3.6H65.16a3.61,3.61,0,0,1,3.6,3.6v47A3.61,3.61,0,0,1,65.16,75.47ZM30.84,22.88a2,2,0,0,0-2,2v47a2,2,0,0,0,2,2H65.16a2,2,0,0,0,2-2v-47a2,2,0,0,0-2-2Z" transform="translate(0)"/><path d="M55.86,22.88H40.14v-3a2.42,2.42,0,0,1,2.5-2.32H53.37a2.41,2.41,0,0,1,2.49,2.32ZM41.72,21.3H54.29V19.9a.86.86,0,0,0-.92-.74H42.64a.86.86,0,0,0-.92.74Z" transform="translate(0)"/><path d="M46.85,38.64H35.25a.79.79,0,1,1,0-1.57h11.6a.79.79,0,1,1,0,1.57Z" transform="translate(0)"/><path d="M54,41.17l-2.64-3a.79.79,0,1,1,1.18-1l1.42,1.6L57,35a.79.79,0,1,1,1.21,1Z" transform="translate(0)"/><path d="M46.85,49.93H35.25a.79.79,0,0,1,0-1.58h11.6a.79.79,0,1,1,0,1.58Z" transform="translate(0)"/><path d="M54,52.43l-2.64-3a.79.79,0,1,1,1.18-1L53.91,50,57,46.27a.78.78,0,0,1,1.11-.11.79.79,0,0,1,.11,1.11Z" transform="translate(0)"/><path d="M46.85,61.22H35.25a.79.79,0,1,1,0-1.57h11.6a.79.79,0,1,1,0,1.57Z" transform="translate(0)"/><path d="M57.55,63.64a.78.78,0,0,1-.55-.23l-4.83-4.84a.78.78,0,0,1,1.11-1.11l4.83,4.83a.79.79,0,0,1-.56,1.35Z" transform="translate(0)"/><path d="M52.72,63.64a.78.78,0,0,1-.55-.23.79.79,0,0,1,0-1.12L57,57.46a.78.78,0,0,1,1.11,1.11l-4.83,4.84A.79.79,0,0,1,52.72,63.64Z" transform="translate(0)"/></svg>