<svg id="Layer_1" data-name="Layer 1" xmlns="http://www.w3.org/2000/svg" viewBox="0 0 96 96"><defs><style>.cls-1{fill:#fff;}.cls-2{fill:#faccfa;}</style></defs><circle class="cls-1" cx="48" cy="48" r="48"/><path class="cls-2" d="M48,96a48.09,48.09,0,1,1,16.08-2.79A47.86,47.86,0,0,1,48,96ZM48,3.08A44.91,44.91,0,0,0,28.7,88.54,44.88,44.88,0,0,0,88.54,67.3h0A44.94,44.94,0,0,0,48,3.08Z" transform="translate(0 0)"/><path d="M68.42,72.54H27.58a3.84,3.84,0,0,1-3.84-3.84V30.75a3.84,3.84,0,0,1,3.84-3.84H68.42a3.84,3.84,0,0,1,3.84,3.84v38A3.84,3.84,0,0,1,68.42,72.54ZM27.58,28.44a2.32,2.32,0,0,0-2.31,2.31v38A2.31,2.31,0,0,0,27.58,71H68.42a2.31,2.31,0,0,0,2.31-2.3V30.75a2.32,2.32,0,0,0-2.31-2.31Z" transform="translate(0 0)"/><rect x="24.51" y="37.18" width="46.99" height="1.54"/><path d="M36.6,31.26a.76.76,0,0,1-.77-.77V24.23a.77.77,0,0,1,1.54,0v6.26A.77.77,0,0,1,36.6,31.26Z" transform="translate(0 0)"/><path d="M59.4,31.26a.77.77,0,0,1-.77-.77V24.23a.77.77,0,0,1,1.54,0v6.26A.76.76,0,0,1,59.4,31.26Z" transform="translate(0 0)"/><path d="M49.33,62.63a.76.76,0,0,1-.77-.77V48.57l-3.12,2.84a.78.78,0,0,1-1.09,0,.77.77,0,0,1,0-1.09l5.69-5.18V61.86A.76.76,0,0,1,49.33,62.63Z" transform="translate(0 0)"/></svg>