<svg id="Layer_1" data-name="Layer 1" xmlns="http://www.w3.org/2000/svg" viewBox="0 0 96 96"><defs><style>.cls-1{fill:#fff;}.cls-2{fill:#ee9b64;}</style></defs><circle class="cls-1" cx="48" cy="48" r="48"/><path class="cls-2" d="M48,96A48,48,0,1,1,91.34,68.62h0A48.13,48.13,0,0,1,48,96Zm.1-92.85A44.84,44.84,0,1,0,88.5,67.26h0A44.83,44.83,0,0,0,48.08,3.15Z" transform="translate(0 0)"/><path d="M52.46,76.42h-24a3.82,3.82,0,0,1-3.81-3.81V41.8A3.82,3.82,0,0,1,28.48,38h24a3.82,3.82,0,0,1,3.81,3.81V72.61A3.82,3.82,0,0,1,52.46,76.42Zm-24-36.85a2.23,2.23,0,0,0-2.23,2.23V72.61a2.23,2.23,0,0,0,2.23,2.23h24a2.24,2.24,0,0,0,2.24-2.23V41.8a2.24,2.24,0,0,0-2.24-2.23Z" transform="translate(0 0)"/><path d="M36.28,68.21a.82.82,0,0,1-.55-.22.8.8,0,0,1,0-1.12l8.4-8.72a.79.79,0,1,1,1.14,1.1L36.84,68A.77.77,0,0,1,36.28,68.21Z" transform="translate(0 0)"/><path d="M44.68,68.21a.8.8,0,0,1-.57-.24l-8.4-8.72a.8.8,0,0,1,0-1.12.79.79,0,0,1,1.11,0l8.41,8.72a.8.8,0,0,1,0,1.12A.83.83,0,0,1,44.68,68.21Z" transform="translate(0 0)"/><path class="cls-1" d="M65.16,18.44H44.38a3,3,0,0,0-3,3V52.27a3,3,0,0,0,3,3h24a3,3,0,0,0,3-3V24.66a1,1,0,0,0-.29-.7l-5.23-5.23A1,1,0,0,0,65.16,18.44Z" transform="translate(0 0)"/><path d="M68.36,56.08h-24a3.82,3.82,0,0,1-3.81-3.81V21.45a3.81,3.81,0,0,1,3.81-3.8H65.16a1.75,1.75,0,0,1,1.26.52l5.23,5.23a1.75,1.75,0,0,1,.52,1.26V52.27A3.82,3.82,0,0,1,68.36,56.08Zm-24-36.86a2.24,2.24,0,0,0-2.23,2.23V52.27a2.23,2.23,0,0,0,2.23,2.23h24a2.23,2.23,0,0,0,2.23-2.23V24.66l-5.43-5.44Z" transform="translate(0 0)"/><path d="M71.34,25.15H68.17a3.83,3.83,0,0,1-3.8-3.86V18.45a.79.79,0,1,1,1.57,0v2.84a2.26,2.26,0,0,0,2.23,2.28h3.17a.79.79,0,1,1,0,1.58Z" transform="translate(0 0)"/><path d="M62.49,30.06H50.3a.79.79,0,0,1,0-1.58H62.49a.79.79,0,1,1,0,1.58Z" transform="translate(0 0)"/><path d="M62.49,34.81H50.26a.79.79,0,1,1,0-1.57H62.49a.79.79,0,1,1,0,1.57Z" transform="translate(0 0)"/><path d="M56.25,48.75l-4-4.58a.79.79,0,1,1,1.18-1l2.82,3.2,5.67-6.83a.79.79,0,1,1,1.21,1Z" transform="translate(0 0)"/></svg>