<svg id="Layer_1" data-name="Layer 1" xmlns="http://www.w3.org/2000/svg" viewBox="0 0 96 96"><defs><style>.cls-1{fill:#fff;}.cls-2{fill:#27635f;}</style></defs><circle class="cls-1" cx="48" cy="48" r="48"/><path class="cls-2" d="M48,96H47A47.72,47.72,0,0,1,13.34,81.2h0A48,48,0,1,1,48,96ZM48,3.15A44.84,44.84,0,0,0,15.62,79h0A44.86,44.86,0,1,0,48,3.15Z" transform="translate(0 0)"/><path d="M78.28,62.71H55.79V50.56c0-2.06,1.4-3.73,3.12-3.73H75.17c1.71,0,3.11,1.67,3.11,3.73ZM57.37,61.13H76.7V50.56c0-1.17-.7-2.16-1.53-2.16H58.91c-.84,0-1.54,1-1.54,2.16Z" transform="translate(0 0)"/><path d="M76.63,65.25H57.44a3.35,3.35,0,0,1-3.53-3.12v-.78l.79-.06H80.16v.79A3.35,3.35,0,0,1,76.63,65.25ZM55.74,62.87a2.08,2.08,0,0,0,1.7.8H76.63a2.11,2.11,0,0,0,1.71-.8Z" transform="translate(0 0)"/><path d="M73.63,51.36H60.43a.79.79,0,0,1,0-1.58h13.2a.79.79,0,0,1,0,1.58Z" transform="translate(0 0)"/><path class="cls-1" d="M67.94,41.32a.54.54,0,0,1-.93,0l-1-1.78-1-1.79a.55.55,0,0,1,.47-.81h4.13a.55.55,0,0,1,.47.81l-1,1.79Z" transform="translate(0 0)"/><path d="M67.48,42.38h0a1.32,1.32,0,0,1-1.15-.66l-2.06-3.58a1.33,1.33,0,0,1,1.15-2h4.13a1.33,1.33,0,0,1,1.15,2l-2.06,3.58A1.33,1.33,0,0,1,67.48,42.38Zm-1.64-4.65,1.64,2.83,1.63-2.83Z" transform="translate(0 0)"/><path d="M30.3,40.05a.78.78,0,0,1-.79-.78l0-9.62a3.19,3.19,0,0,1,3.19-3.19H65a3.29,3.29,0,0,1,3.28,3.29v7.19a.79.79,0,1,1-1.57,0V29.75A1.72,1.72,0,0,0,65,28H32.68a1.61,1.61,0,0,0-1.61,1.61l0,9.61a.79.79,0,0,1-.79.79Z" transform="translate(0 0)"/><rect x="17.93" y="49.08" width="1.58" height="13.92"/><path class="cls-1" d="M18.72,63c0,2.56,4.65,4.64,10.39,4.64s10.4-2.08,10.4-4.64" transform="translate(0 0)"/><path d="M29.11,68.43c-6.37,0-11.18-2.34-11.18-5.43h1.58c0,1.82,3.94,3.85,9.6,3.85s9.61-2,9.61-3.85H40.3C40.3,66.09,35.49,68.43,29.11,68.43Z" transform="translate(0 0)"/><path class="cls-1" d="M18.72,58.36c0,2.56,4.65,4.64,10.39,4.64s10.4-2.08,10.4-4.64" transform="translate(0 0)"/><path d="M29.11,63.79c-6.37,0-11.18-2.34-11.18-5.43h1.58c0,1.82,3.94,3.85,9.6,3.85s9.61-2,9.61-3.85H40.3C40.3,61.45,35.49,63.79,29.11,63.79Z" transform="translate(0 0)"/><path class="cls-1" d="M18.72,53.72c0,2.56,4.65,4.64,10.39,4.64s10.4-2.08,10.4-4.64" transform="translate(0 0)"/><path d="M29.11,59.15c-6.37,0-11.18-2.34-11.18-5.43h1.58c0,1.82,3.94,3.85,9.6,3.85s9.61-2,9.61-3.85H40.3C40.3,56.81,35.49,59.15,29.11,59.15Z" transform="translate(0 0)"/><ellipse class="cls-1" cx="29.11" cy="49.08" rx="10.4" ry="4.64"/><path d="M29.11,54.51c-6.37,0-11.18-2.34-11.18-5.43s4.81-5.43,11.18-5.43S40.3,46,40.3,49.08,35.49,54.51,29.11,54.51Zm0-9.29c-5.66,0-9.6,2-9.6,3.86s3.94,3.85,9.6,3.85,9.61-2,9.61-3.85S34.77,45.22,29.11,45.22Z" transform="translate(0 0)"/><rect x="38.72" y="49.08" width="1.58" height="13.92"/></svg>