<svg id="Layer_1" data-name="Layer 1" xmlns="http://www.w3.org/2000/svg" viewBox="0 0 96 96"><defs><style>.cls-1{fill:#fff;}.cls-2{fill:#faccfa;}.cls-3{fill:#262626;}</style></defs><circle class="cls-1" cx="48" cy="48" r="48"/><path class="cls-2" d="M47.91,96A48,48,0,1,1,68.62,4.68,48,48,0,0,1,47.91,96Zm.15-92.9A44.92,44.92,0,1,0,88.54,67.32h0A44.91,44.91,0,0,0,48.06,3.1Z" transform="translate(0)"/><path d="M46,30H44.4A1.64,1.64,0,0,0,44,28.88a1.32,1.32,0,0,0-1.1-.43,1.56,1.56,0,0,0-.76.16,1.14,1.14,0,0,0-.48.41,1,1,0,0,0,0,1.15,2.45,2.45,0,0,0,.47.5,4.44,4.44,0,0,0,.54.35L45,32.25a5.26,5.26,0,0,1,.53.33,3.15,3.15,0,0,1,.59.52,2.81,2.81,0,0,1,.47.75,2.47,2.47,0,0,1,.16,1,1.71,1.71,0,0,1-.25.84,2.47,2.47,0,0,1-1.33,1.1v0a2.32,2.32,0,0,1,.66.88A2.67,2.67,0,0,1,46,38.8a2.43,2.43,0,0,1-.43,1.47,2.7,2.7,0,0,1-1.14.88,4.11,4.11,0,0,1-1.55.29,3.78,3.78,0,0,1-1.72-.37A2.82,2.82,0,0,1,40,40a3.11,3.11,0,0,1-.43-1.64h1.63a1.42,1.42,0,0,0,.48,1.16,1.78,1.78,0,0,0,1.23.39,2,2,0,0,0,1-.27.93.93,0,0,0,.46-.85,1.18,1.18,0,0,0-.19-.67,1.91,1.91,0,0,0-.48-.46c-.18-.12-.36-.24-.53-.33L41,36.13a5.26,5.26,0,0,1-.53-.33,3.21,3.21,0,0,1-.59-.53,2.58,2.58,0,0,1-.47-.75,2.49,2.49,0,0,1-.16-1,2,2,0,0,1,.23-.84A2.44,2.44,0,0,1,40,32a2.13,2.13,0,0,1,.77-.41v0a3.12,3.12,0,0,1-.63-.87,2.38,2.38,0,0,1-.24-1.08,2.5,2.5,0,0,1,.38-1.35,2.62,2.62,0,0,1,1.07-.93,3.38,3.38,0,0,1,1.56-.34,3.28,3.28,0,0,1,1.63.39,2.66,2.66,0,0,1,1.06,1.07A3.06,3.06,0,0,1,46,30Zm-.8,4.94a1,1,0,0,0-.12-.55,1.79,1.79,0,0,0-.38-.45,2.54,2.54,0,0,0-.54-.36L42,32.36a.58.58,0,0,0-.53,0,1.17,1.17,0,0,0-.5.42,1.26,1.26,0,0,0-.22.7,1.07,1.07,0,0,0,.29.81,2.86,2.86,0,0,0,.77.57L43.9,36a.65.65,0,0,0,.53,0,1.16,1.16,0,0,0,.54-.4A1,1,0,0,0,45.21,34.9Z" transform="translate(0)"/><path class="cls-3" d="M57.24,65.83H28.72A3.86,3.86,0,0,1,24.87,62V25.6a3.86,3.86,0,0,1,3.85-3.85H57.24a3.86,3.86,0,0,1,3.85,3.85V62A3.86,3.86,0,0,1,57.24,65.83ZM28.72,23.29a2.32,2.32,0,0,0-2.31,2.31V62a2.32,2.32,0,0,0,2.31,2.31H57.24A2.32,2.32,0,0,0,59.55,62V25.6a2.32,2.32,0,0,0-2.31-2.31Z" transform="translate(0)"/><path d="M60.53,74.72h-.21A15.54,15.54,0,0,1,45,60.57a.77.77,0,0,1,.7-.84.72.72,0,0,1,.83.7,14,14,0,0,0,13.8,12.75h.19a14,14,0,0,0,13.24-9.34.78.78,0,0,1,1-.47.79.79,0,0,1,.46,1A15.58,15.58,0,0,1,60.53,74.72Z" transform="translate(0)"/><path d="M45.78,61.26a.76.76,0,0,1-.77-.69A15.17,15.17,0,0,1,45,58.92a.8.8,0,0,1,.78-.76.78.78,0,0,1,.76.78,14.44,14.44,0,0,0,0,1.48.77.77,0,0,1-.69.84Z" transform="translate(0)"/><path class="cls-1" d="M45.3,55.28a.63.63,0,0,1,1.1,0l1.18,2.12,1.19,2.12a.63.63,0,0,1-.57.94l-2.42,0-2.43,0a.63.63,0,0,1-.54-1l1.25-2.08Z" transform="translate(0)"/><path d="M48.22,61.25h0l-4.85-.07a1.37,1.37,0,0,1-1.21-.72,1.4,1.4,0,0,1,0-1.4l2.49-4.17a1.38,1.38,0,0,1,1.2-.69h0a1.41,1.41,0,0,1,1.21.72l2.37,4.24a1.4,1.4,0,0,1,0,1.41A1.38,1.38,0,0,1,48.22,61.25Zm-4.63-1.6,4.39.06-2.14-3.84Zm1.71-4.37h0Z" transform="translate(0)"/><path d="M74.62,56a.78.78,0,0,1-.77-.7A14,14,0,0,0,60.06,42.51h-.2a14,14,0,0,0-13.23,9.34.78.78,0,0,1-1,.47.76.76,0,0,1-.46-1A15.56,15.56,0,0,1,59.86,41h.22a15.54,15.54,0,0,1,15.3,14.16.76.76,0,0,1-.69.83Z" transform="translate(0)"/><path d="M74.68,57.53h0a.77.77,0,0,1-.76-.78,12.13,12.13,0,0,0-.06-1.48.77.77,0,0,1,.7-.84.76.76,0,0,1,.83.7,12.78,12.78,0,0,1,.07,1.64A.77.77,0,0,1,74.68,57.53Z" transform="translate(0)"/><path class="cls-1" d="M75.1,60.41a.63.63,0,0,1-1.1,0l-1.19-2.11-1.18-2.12a.64.64,0,0,1,.56-.95l2.43,0,2.43,0a.63.63,0,0,1,.53,1l-1.24,2.08Z" transform="translate(0)"/><path d="M74.55,61.49h0a1.41,1.41,0,0,1-1.21-.72L71,56.53a1.38,1.38,0,0,1,0-1.4,1.2,1.2,0,0,1,1.22-.69l4.86.07a1.4,1.4,0,0,1,1.18,2.12L75.76,60.8A1.41,1.41,0,0,1,74.55,61.49ZM74.67,60h0Zm-2.26-4,2.15,3.84L76.81,56Z" transform="translate(0)"/></svg>