<svg id="Layer_1" data-name="Layer 1" xmlns="http://www.w3.org/2000/svg" viewBox="0 0 96 96"><defs><style>.cls-1{fill:#fff;}.cls-2{fill:#5b7745;}.cls-3{fill:#bcbec0;}</style></defs><circle class="cls-1" cx="48" cy="48" r="48"/><path d="M30.68,71.07a4.57,4.57,0,0,1-3.33-7.69L41.66,48.07,27,33.09a4.59,4.59,0,0,1,.07-6.47,4.67,4.67,0,0,1,3.25-1.3,4.55,4.55,0,0,1,3.21,1.37L47.91,41.38l14-15a4.6,4.6,0,0,1,3.19-1.44,4.67,4.67,0,0,1,3.28,1.23,4.58,4.58,0,0,1,.22,6.46L54.31,47.93,69,62.91a4.57,4.57,0,1,1-6.53,6.4L48.06,54.62l-14,15a4.57,4.57,0,0,1-3.19,1.45ZM30.27,26.9a3,3,0,0,0-3,3A3,3,0,0,0,28.13,32L43.84,48.05,28.5,64.45a3,3,0,0,0,.14,4.24,3,3,0,0,0,4.23-.14L48,52.33,63.55,68.21a3,3,0,0,0,4.24,0,3,3,0,0,0,.9-2.11A3,3,0,0,0,67.84,64L52.13,48,67.47,31.54a3,3,0,1,0-4.37-4.09L47.94,43.66,32.42,27.79a3,3,0,0,0-2.11-.89Z"/><path class="cls-2" d="M48,96a48.09,48.09,0,0,1-15.3-2.51h0A47.7,47.7,0,1,1,48,96Zm-14.3-5.5A44.82,44.82,0,0,0,88.11,28,44.82,44.82,0,1,0,33.73,90.5Z"/><path class="cls-3" d="M49.78,96l-.11-3.15a44.16,44.16,0,0,0,10-1.52l.82,3A48,48,0,0,1,49.78,96ZM39,95.12,38.33,95a48,48,0,0,1-9.7-3.08L29.9,89A44.48,44.48,0,0,0,39,91.91l.56.11Zm31.61-4.8-1.49-2.77a45.48,45.48,0,0,0,8.34-5.75l2.07,2.38A48.25,48.25,0,0,1,70.58,90.32ZM19.27,86.44A47.44,47.44,0,0,1,11.38,79l2.41-2a44.78,44.78,0,0,0,7.36,6.94ZM86.82,76.19l-2.55-1.86a44,44,0,0,0,5-8.81l2.91,1.23A48,48,0,0,1,86.82,76.19ZM5.35,70A48.73,48.73,0,0,1,1.49,59.88l3.06-.79a44.84,44.84,0,0,0,3.6,9.47ZM95.23,56.36l-3.11-.55a46,46,0,0,0,.7-7.86q0-1.12-.06-2.25l3.15-.16c0,.8.06,1.6.06,2.41A48.33,48.33,0,0,1,95.23,56.36ZM0,49.14c0-.37,0-.73,0-1.09a48.19,48.19,0,0,1,1-9.71L4.08,39a44.75,44.75,0,0,0-.93,9.07c0,.34,0,.68,0,1ZM91.1,35.71a44.73,44.73,0,0,0-3.87-9.36L90,24.83a48.12,48.12,0,0,1,4.14,10ZM6.25,31.63,3.32,30.48A47.17,47.17,0,0,1,8.38,20.9L11,22.68A44.78,44.78,0,0,0,6.25,31.63ZM81.37,18.09a44.8,44.8,0,0,0-7.56-6.74l1.82-2.57A47.72,47.72,0,0,1,83.72,16ZM17.62,15l-2.14-2.32a48.45,48.45,0,0,1,8.75-6.39l1.56,2.73A45.57,45.57,0,0,0,17.62,15ZM64.93,6.5A45,45,0,0,0,57,4.09l-1.83-.33L55.69.65q1,.15,2,.36a48.26,48.26,0,0,1,8.48,2.56ZM35.1,5.06l-.91-3A47.83,47.83,0,0,1,44.86.11l.21,3.15A44.42,44.42,0,0,0,35.1,5.06Z"/><path d="M90.08,6.69,86.59,8.91l-.9-1.58,3.68-1.91L85.69,3.5l.9-1.57,3.49,2.21L89.93,0h1.8l-.15,4.13,3.49-2.21L96,3.5,92.3,5.42,96,7.33l-.9,1.58L91.58,6.69l.15,4.13h-1.8Z"/></svg>