<svg id="Layer_1" data-name="Layer 1" xmlns="http://www.w3.org/2000/svg" viewBox="0 0 96 96"><defs><style>.cls-1{fill:#fff;}.cls-2{fill:none;stroke:#000;stroke-linecap:round;stroke-miterlimit:10;stroke-width:2px;}.cls-3{fill:#fdb6ba;}</style></defs><circle class="cls-1" cx="48" cy="48" r="48"/><path class="cls-2" d="M29.36,84" transform="translate(0)"/><path class="cls-3" d="M47.93,96A48,48,0,0,1,6,24.8,48,48,0,0,1,71.2,6,48,48,0,0,1,90,71.2a47.64,47.64,0,0,1-28.7,22.9A48.24,48.24,0,0,1,47.93,96Zm.13-92.85A44.87,44.87,0,1,0,69.68,8.76,44.85,44.85,0,0,0,48.06,3.15Z" transform="translate(0)"/><path d="M71.18,58.05H68.29a1.12,1.12,0,0,1-1.1-1.14l-.13-1.77a11.05,11.05,0,0,1-2.93-1.21l-1.38,1.2a1.18,1.18,0,0,1-.71.3,1,1,0,0,1-.83-.31l-2.05-2a1.07,1.07,0,0,1-.31-.76,1.17,1.17,0,0,1,.34-.82l1.17-1.34a10.69,10.69,0,0,1-1.22-2.94l-1.83-.12h0A1.11,1.11,0,0,1,56.23,46V43.1A1.12,1.12,0,0,1,57.37,42l1.77-.13a11.05,11.05,0,0,1,1.21-2.93l-1.2-1.38a1.11,1.11,0,0,1,0-1.54L61.21,34a1.16,1.16,0,0,1,1.58,0l1.34,1.17A10.43,10.43,0,0,1,67.06,34l.13-1.84A1.11,1.11,0,0,1,68.29,31h2.89a1.13,1.13,0,0,1,1.1,1.14L72.4,34a10.49,10.49,0,0,1,2.94,1.21L76.72,34a.92.92,0,0,1,.78-.3,1.07,1.07,0,0,1,.76.31l2,2.05a1.13,1.13,0,0,1,0,1.58l-1.17,1.34a10.43,10.43,0,0,1,1.21,2.93l1.82.13a1.12,1.12,0,0,1,1.1,1.1V46a1.12,1.12,0,0,1-1.14,1.1l-1.78.12a10.49,10.49,0,0,1-1.21,2.94l1.21,1.38a1.14,1.14,0,0,1,.3.78,1.07,1.07,0,0,1-.32.77l-2,2a1.13,1.13,0,0,1-1.58,0l-1.34-1.16a11,11,0,0,1-2.94,1.21L72.28,57A1.11,1.11,0,0,1,71.18,58.05Zm-.47-1.19a.11.11,0,0,0,0,0Zm-1.95,0v0Zm0-.35h2l.19-2.63.59-.12A9.18,9.18,0,0,0,75,52.29l.5-.34,2,1.74,1.42-1.41-1.74-2,.34-.5a9.24,9.24,0,0,0,1.43-3.46l.11-.6,2.64-.18v-2L79,43.36l-.11-.59a9.18,9.18,0,0,0-1.43-3.46l-.34-.5,1.73-2L77.46,35.4l-2,1.74L75,36.8a9.18,9.18,0,0,0-3.46-1.43l-.59-.11-.19-2.64h-2l-.19,2.64-.59.11A9.18,9.18,0,0,0,64.5,36.8l-.5.34-2-1.73-1.41,1.41,1.74,2-.34.5a9.18,9.18,0,0,0-1.43,3.46l-.11.59-2.65.19v2l2.65.18.11.6A9.24,9.24,0,0,0,62,49.78l.34.5-1.74,2L62,53.69,64,52l.5.34A9.18,9.18,0,0,0,68,53.72l.59.12ZM62.32,54Zm-.61-.06,0,0Zm16,0v0Zm1.39-1.36,0,0Zm-18.77,0,0,0ZM79.19,52ZM60.27,52h0ZM82,45.52h0Zm-24.67,0h0Zm.09-1.94h0Zm21.67-7,0,0Zm-18.83,0,0,.05Zm1.41-1.33,0,0Zm16.09,0,0,0Zm-15.48,0h0Zm8.38-2.85s0,0,0,0Zm-1.93,0v0A.43.43,0,0,0,68.77,32.18Z" transform="translate(0)"/><path d="M69.73,51.86a7.32,7.32,0,1,1,7.32-7.32A7.32,7.32,0,0,1,69.73,51.86Zm0-13.06a5.75,5.75,0,1,0,5.74,5.74A5.75,5.75,0,0,0,69.73,38.8Z" transform="translate(0)"/><path d="M69.73,51.86a7.32,7.32,0,1,1,7.32-7.32A7.32,7.32,0,0,1,69.73,51.86Zm0-13.06a5.75,5.75,0,1,0,5.74,5.74A5.75,5.75,0,0,0,69.73,38.8Z" transform="translate(0)"/><path d="M38.49,43.1a11,11,0,1,1,11-11A11,11,0,0,1,38.49,43.1Zm0-20.47a9.45,9.45,0,1,0,9.45,9.45A9.46,9.46,0,0,0,38.49,22.63Z" transform="translate(0)"/><path d="M54.78,71.11H22.2a4.47,4.47,0,0,1-4.46-4.47V59.85A16.1,16.1,0,0,1,33.82,43.76h9.34A16.1,16.1,0,0,1,59.25,59.85v6.79A4.47,4.47,0,0,1,54.78,71.11Zm-21-25.78A14.53,14.53,0,0,0,19.31,59.85v6.79a2.89,2.89,0,0,0,2.89,2.89H54.78a2.89,2.89,0,0,0,2.89-2.89V59.85A14.53,14.53,0,0,0,43.16,45.33Z" transform="translate(0)"/></svg>