<svg id="Layer_1" data-name="Layer 1" xmlns="http://www.w3.org/2000/svg" viewBox="0 0 96 96"><defs><style>.cls-1{fill:#fff;}.cls-2{fill:#5b7745;}</style></defs><circle class="cls-1" cx="48" cy="48" r="48"/><path d="M30.69,71.07a4.51,4.51,0,0,1-3.11-1.23,4.58,4.58,0,0,1-.22-6.46L41.68,48.07,27,33.09a4.59,4.59,0,0,1,.07-6.47,4.79,4.79,0,0,1,3.25-1.3,4.56,4.56,0,0,1,3.22,1.37l14.37,14.7,14-15a4.57,4.57,0,0,1,3.19-1.45,4.65,4.65,0,0,1,3.27,1.23,4.58,4.58,0,0,1,.22,6.46L54.32,47.93,69,62.91a4.58,4.58,0,0,1-.08,6.47,4.5,4.5,0,0,1-3.19,1.3h0a4.56,4.56,0,0,1-3.22-1.37L48.07,54.62l-14,15a4.53,4.53,0,0,1-3.19,1.45Zm-.4-44.17A3,3,0,0,0,28.15,32l15.7,16.06L28.51,64.46a3,3,0,0,0,.14,4.23,3,3,0,0,0,4.24-.14L48.05,52.34,63.57,68.21a3,3,0,0,0,2.1.89,2.94,2.94,0,0,0,2.13-.85,3,3,0,0,0,0-4.23L52.15,48,67.49,31.54a3,3,0,0,0-.14-4.23,2.93,2.93,0,0,0-2.15-.8,3,3,0,0,0-2.09.94L48,43.67,32.43,27.8a3,3,0,0,0-2.11-.9Z"/><path class="cls-2" d="M48.05,96a48,48,0,0,1-15.3-2.51h0A48,48,0,0,1,26.62,5.05a48,48,0,0,1,66.87,58.2A48.06,48.06,0,0,1,48.05,96ZM48,3.15A44.84,44.84,0,0,0,33.75,90.5h0A44.82,44.82,0,0,0,88.13,28,45,45,0,0,0,48,3.15Z"/></svg>