<svg id="Layer_1" data-name="Layer 1" xmlns="http://www.w3.org/2000/svg" viewBox="0 0 96 96"><defs><style>.cls-1{fill:#fff;}.cls-2{fill:#95872c;}</style></defs><circle class="cls-1" cx="48" cy="48" r="48"/><path class="cls-2" d="M48,96a48.09,48.09,0,0,1-15.3-2.51h0A47.73,47.73,0,1,1,48,96Zm-14.3-5.5A44.84,44.84,0,1,0,5.48,33.74,44.62,44.62,0,0,0,33.73,90.5Z" transform="translate(0 0)"/><path d="M66.33,72.62h0a3.45,3.45,0,0,1-2.45-1L39.35,46.89c-4.74,2.44-11.09,1.6-14.72-2a12.31,12.31,0,0,1-3.25-11.65l.33-1.37L28.84,39l6.72-.74.86-6.82-7.09-7.11,1.4-.31A12.31,12.31,0,0,1,42.2,27.34c3.58,3.59,4.52,10.11,2.23,14.8L68.79,66.71a3.49,3.49,0,0,1,0,4.91A3.47,3.47,0,0,1,66.33,72.62ZM39.66,44.91l.57.63L65,70.49a1.9,1.9,0,0,0,1.34.56h0a1.89,1.89,0,0,0,1.89-1.89,1.85,1.85,0,0,0-.55-1.34L42.49,42.42l.29-.51c2.27-4.09,1.5-10.25-1.69-13.45a10.76,10.76,0,0,0-8.53-3.15l5.52,5.54L37,39.67l-8.71,1L22.66,35a10.73,10.73,0,0,0,3.09,8.72C29,47,35,47.65,39.1,45.23Z" transform="translate(0 0)"/><path class="cls-1" d="M53.85,42.55,35.5,61.82l-1.13-1.07a.73.73,0,0,0-1.14.21l-4.44,8.7a.72.72,0,0,0,.14.84l1.16,1.11a.71.71,0,0,0,.85.1l8.44-4.93a.73.73,0,0,0,.15-1.15L38.4,64.56,56.72,45.32" transform="translate(0 0)"/><path d="M30.58,72.59a1.52,1.52,0,0,1-1-.41l-1.16-1.11a1.5,1.5,0,0,1-.29-1.77l4.44-8.7a1.54,1.54,0,0,1,1.1-.8,1.49,1.49,0,0,1,1.28.38l.56.53L53.28,42l1.14,1.09L35.53,62.93l-1.7-1.6L29.49,70l1.14,1L39,66.1l-1.7-1.51L56.15,44.78l1.14,1.09L39.52,64.53l.55.53a1.47,1.47,0,0,1,.46,1.26,1.53,1.53,0,0,1-.75,1.14l-8.44,4.93A1.6,1.6,0,0,1,30.58,72.59Z" transform="translate(0 0)"/><path d="M58.59,46.9a3.64,3.64,0,0,1-2.51-1l-3-2.81A3.65,3.65,0,0,1,53,37.94L65.67,24.5a3.67,3.67,0,0,1,5.17-.15l3,2.81A3.66,3.66,0,0,1,74,32.32L61.25,45.76A3.64,3.64,0,0,1,58.7,46.9ZM54.2,42l3,2.8a2.11,2.11,0,0,0,1.48.56,2,2,0,0,0,1.45-.64L72.81,31.24a2.09,2.09,0,0,0-.09-2.94l-3-2.8a2.16,2.16,0,0,0-1.49-.57,2.08,2.08,0,0,0-1.45.65L54.12,39A2.08,2.08,0,0,0,54.2,42Z" transform="translate(0 0)"/></svg>