<svg id="Layer_1" data-name="Layer 1" xmlns="http://www.w3.org/2000/svg" viewBox="0 0 96 96"><defs><style>.cls-1{fill:#fff;}.cls-2{fill:#faccfa;}.cls-3{fill:#262626;}</style></defs><circle class="cls-1" cx="48" cy="48" r="48"/><path class="cls-2" d="M47.9,96A48,48,0,0,1,9.1,19.89,48,48,0,1,1,55.64,95.38,49.35,49.35,0,0,1,47.9,96Zm.2-92.93a45.49,45.49,0,0,0-7.24.58,44.75,44.75,0,1,0,7.24-.58Z" transform="translate(0 0)"/><path class="cls-1" d="M59,41.08h9.18a2.31,2.31,0,0,1,2,2.06v1" transform="translate(0 0)"/><path class="cls-3" d="M70.19,44.94a.76.76,0,0,1-.76-.77v-1a1.54,1.54,0,0,0-1.25-1.29H59a.77.77,0,1,1,0-1.54h9.18A3.08,3.08,0,0,1,71,43.12v1.05A.76.76,0,0,1,70.19,44.94Z" transform="translate(0 0)"/><path class="cls-3" d="M68.17,72.06H27.44a2.14,2.14,0,0,1-2.09-2.17V36.62a2.49,2.49,0,0,1,2.44-2.54h3.8a.77.77,0,0,1,0,1.54h-3.8a1,1,0,0,0-.9,1V69.89a.6.6,0,0,0,.07.3l0,0c2.4-6,7.3-24.42,7.35-24.61.4-1.22.85-2.13,2.77-2.13H77.85c.31,0,.54.16.87.58a2.24,2.24,0,0,1,.49,2l-9,24.22C69.86,71.33,69.09,72.06,68.17,72.06ZM28.49,70.52H68.17c.19,0,.44-.37.58-.85l9-24.21a.82.82,0,0,0-.23-.52H37.12c-1,0-1,.14-1.3,1C35.64,46.68,31,64.11,28.49,70.52Zm-1.44-.19Z" transform="translate(0 0)"/><path class="cls-3" d="M31.6,59.07h0a.77.77,0,0,1-.77-.77V26.09a2.21,2.21,0,0,1,2.25-2.16H57.51a2.2,2.2,0,0,1,2.24,2.16V44.17a.77.77,0,0,1-1.54,0V26.09a.69.69,0,0,0-.71-.62H33.09a.68.68,0,0,0-.71.62V58.3A.76.76,0,0,1,31.6,59.07Z" transform="translate(0 0)"/><path d="M48.87,30.25H47.26a1.67,1.67,0,0,0-.35-1.08,1.36,1.36,0,0,0-1.11-.43,1.72,1.72,0,0,0-.76.15,1.14,1.14,0,0,0-.47.42,1,1,0,0,0-.16.54,1,1,0,0,0,.19.61,2.42,2.42,0,0,0,.47.49,3.61,3.61,0,0,0,.54.36l2.25,1.23a5.28,5.28,0,0,1,.54.33,3.45,3.45,0,0,1,.58.52,2.58,2.58,0,0,1,.47.75,2.42,2.42,0,0,1,.16,1,1.75,1.75,0,0,1-.25.85,2.42,2.42,0,0,1-.59.68,2.17,2.17,0,0,1-.74.41v0a2.32,2.32,0,0,1,.66.88,2.67,2.67,0,0,1,.22,1.1,2.38,2.38,0,0,1-.43,1.46,2.65,2.65,0,0,1-1.14.89,4.11,4.11,0,0,1-1.55.29,3.92,3.92,0,0,1-1.72-.37,2.84,2.84,0,0,1-1.18-1.07,3.07,3.07,0,0,1-.42-1.63h1.63a1.42,1.42,0,0,0,.47,1.16,1.78,1.78,0,0,0,1.23.39,1.9,1.9,0,0,0,1-.28.9.9,0,0,0,.46-.84,1.18,1.18,0,0,0-.19-.67,1.87,1.87,0,0,0-.47-.46c-.19-.13-.37-.24-.54-.34l-2.25-1.2a5.26,5.26,0,0,1-.53-.33,3.21,3.21,0,0,1-.59-.53,2.56,2.56,0,0,1-.46-.75,2.51,2.51,0,0,1-.17-1,1.81,1.81,0,0,1,.24-.84,2.31,2.31,0,0,1,1.34-1.12v0a3.33,3.33,0,0,1-.63-.87,2.54,2.54,0,0,1,.15-2.43,2.62,2.62,0,0,1,1.06-.94,3.51,3.51,0,0,1,1.56-.34,3.28,3.28,0,0,1,1.63.39,2.73,2.73,0,0,1,1.06,1.07A3.12,3.12,0,0,1,48.87,30.25Zm-.79,4.93a1.13,1.13,0,0,0-.13-.54,1.79,1.79,0,0,0-.38-.45,2.54,2.54,0,0,0-.54-.36l-2.17-1.19a.61.61,0,0,0-.53,0,1.08,1.08,0,0,0-.5.41,1.3,1.3,0,0,0-.22.71,1.14,1.14,0,0,0,.29.81,3,3,0,0,0,.77.57l2.09,1.13a.65.65,0,0,0,.53,0,1.24,1.24,0,0,0,.54-.4A1.1,1.1,0,0,0,48.08,35.18Z" transform="translate(0 0)"/></svg>