<svg id="Layer_1" data-name="Layer 1" xmlns="http://www.w3.org/2000/svg" viewBox="0 0 96 96"><defs><style>.cls-1{fill:#fff;}.cls-2{fill:#231f20;}.cls-3{fill:#060256;}</style></defs><circle class="cls-1" cx="48" cy="48" r="48"/><path class="cls-2" d="M30.8,81V65.15H26.39c-3.31,0-6-3-6-6.63V29.21c0-3.66,2.7-6.63,6-6.63H69.14c3.31,0,6,3,6,6.63V58.52c0,3.65-2.69,6.63-6,6.63H44.58ZM26.39,24.15C24,24.15,22,26.42,22,29.21V58.52c0,2.79,2,5,4.43,5h6v13.2l11.49-13.2H69.14c2.44,0,4.43-2.26,4.43-5V29.21c0-2.79-2-5.06-4.43-5.06Z"/><path class="cls-2" d="M40,41.49a6.72,6.72,0,1,1,6.72-6.72A6.73,6.73,0,0,1,40,41.49Zm0-11.87a5.15,5.15,0,1,0,5.14,5.15A5.16,5.16,0,0,0,40,29.62Z"/><path class="cls-2" d="M49.4,58.48H30.53a2.92,2.92,0,0,1-2.92-2.92V51.62A9.66,9.66,0,0,1,37.26,42h5.41a9.66,9.66,0,0,1,9.65,9.65v3.94A2.92,2.92,0,0,1,49.4,58.48ZM37.26,43.55a8.09,8.09,0,0,0-8.08,8.07v3.94a1.36,1.36,0,0,0,1.35,1.35H49.4a1.36,1.36,0,0,0,1.35-1.35V51.62a8.09,8.09,0,0,0-8.08-8.07Z"/><path class="cls-2" d="M61,55.6l-.31-.06c-7.33-2.29-8.14-10.17-7.48-14.47l.1-.59.65-.13a19.7,19.7,0,0,0,6.43-2.67l.48-.36.63.37a19.85,19.85,0,0,0,6.43,2.66l.56.07.18.61c.67,4.34-.14,12.22-7.45,14.5ZM54.7,41.8C54.46,44,54.11,51.69,60.93,54c6.82-2.26,6.49-10,6.24-12.16a22.53,22.53,0,0,1-6.24-2.57A22.56,22.56,0,0,1,54.7,41.8Zm6.16-3.49h0Z"/><rect class="cls-2" x="60.15" y="38.31" width="1.58" height="16.47"/><path class="cls-3" d="M48,96A48,48,0,0,1,1,38.34H1A48,48,0,1,1,48,96ZM4.09,39h0A44.83,44.83,0,1,0,23.33,10.57,44.55,44.55,0,0,0,4.09,39Z"/></svg>