<svg id="Layer_1" data-name="Layer 1" xmlns="http://www.w3.org/2000/svg" viewBox="0 0 96 96"><defs><style>.cls-1{fill:#fff;}.cls-2{fill:#faccfa;}</style></defs><circle class="cls-1" cx="48" cy="48" r="48"/><path d="M39.19,43.92A10.83,10.83,0,1,1,50,33.09,10.84,10.84,0,0,1,39.19,43.92Zm0-20.11a9.29,9.29,0,1,0,9.28,9.28A9.29,9.29,0,0,0,39.19,23.81Z" transform="translate(0 0)"/><path d="M55.19,71.43h-32A4.4,4.4,0,0,1,18.8,67V60.36a15.82,15.82,0,0,1,15.8-15.8h9.18a15.82,15.82,0,0,1,15.8,15.8V67A4.4,4.4,0,0,1,55.19,71.43ZM34.6,46.11A14.28,14.28,0,0,0,20.35,60.36V67a2.84,2.84,0,0,0,2.84,2.84h32A2.84,2.84,0,0,0,58,67V60.36A14.28,14.28,0,0,0,43.78,46.11Z" transform="translate(0 0)"/><path class="cls-2" d="M48,96A48.08,48.08,0,0,1,1.88,61.3h0A48,48,0,1,1,48,96ZM4.86,60.44a44.89,44.89,0,0,0,82.42,9.28A44.89,44.89,0,1,0,4.86,60.44Z" transform="translate(0 0)"/><path d="M79.45,66.37h-15V60.25h3.94V43.63H64.5V37.51h15v6.12H75.51V60.25h3.94ZM66,64.82H77.9v-3H74V42.08H77.9v-3H66v3H70V61.8H66Z" transform="translate(0 0)"/><path d="M72,35.78a5.16,5.16,0,0,1-5.15-5.15,5.06,5.06,0,0,1,1.45-3.58A5,5,0,0,1,72,25.52,5.09,5.09,0,0,1,75.6,27a5.13,5.13,0,0,1,0,7.29A5,5,0,0,1,72,35.78Zm0-8.71a3.38,3.38,0,0,0-2.58,1.05,3.6,3.6,0,0,0,0,5.05,3.56,3.56,0,0,0,5.09,0,3.39,3.39,0,0,0,1.06-2.55,3.32,3.32,0,0,0-1-2.52A3.51,3.51,0,0,0,72,27.07Z" transform="translate(0 0)"/></svg>