<svg id="Layer_1" data-name="Layer 1" xmlns="http://www.w3.org/2000/svg" viewBox="0 0 96 96"><defs><style>.cls-1{fill:#fff;}.cls-2{fill:#27635f;}</style></defs><circle class="cls-1" cx="48" cy="48" r="48"/><rect x="17.9" y="50.17" width="1.58" height="13.92"/><path class="cls-1" d="M18.69,64.09c0,2.56,4.65,4.64,10.39,4.64s10.4-2.08,10.4-4.64" transform="translate(0 0)"/><path d="M29.08,69.51c-6.37,0-11.18-2.33-11.18-5.42h1.58c0,1.82,3.94,3.85,9.6,3.85s9.61-2,9.61-3.85h1.58C40.27,67.18,35.46,69.51,29.08,69.51Z" transform="translate(0 0)"/><path class="cls-1" d="M18.69,59.45c0,2.56,4.65,4.64,10.39,4.64s10.4-2.08,10.4-4.64" transform="translate(0 0)"/><path d="M29.08,64.88c-6.37,0-11.18-2.34-11.18-5.43h1.58c0,1.82,3.94,3.85,9.6,3.85s9.61-2,9.61-3.85h1.58C40.27,62.54,35.46,64.88,29.08,64.88Z" transform="translate(0 0)"/><path class="cls-1" d="M18.69,54.81c0,2.56,4.65,4.64,10.39,4.64s10.4-2.08,10.4-4.64" transform="translate(0 0)"/><path d="M29.08,60.24c-6.37,0-11.18-2.34-11.18-5.43h1.58c0,1.82,3.94,3.85,9.6,3.85s9.61-2,9.61-3.85h1.58C40.27,57.9,35.46,60.24,29.08,60.24Z" transform="translate(0 0)"/><ellipse class="cls-1" cx="29.08" cy="50.17" rx="10.39" ry="4.64"/><path d="M29.08,55.6c-6.37,0-11.18-2.34-11.18-5.43s4.81-5.43,11.18-5.43,11.19,2.33,11.19,5.43S35.46,55.6,29.08,55.6Zm0-9.28c-5.66,0-9.6,2-9.6,3.85S23.42,54,29.08,54s9.61-2,9.61-3.85S34.74,46.32,29.08,46.32Z" transform="translate(0 0)"/><rect x="38.69" y="50.17" width="1.58" height="13.92"/><path class="cls-2" d="M48,96H47A47.68,47.68,0,0,1,13.32,81.2h0A48,48,0,1,1,48,96ZM15.59,79A44.84,44.84,0,1,0,80.36,17,44.84,44.84,0,1,0,15.59,79Z" transform="translate(0 0)"/><path d="M68,71.15a14,14,0,1,1,14-14A14,14,0,0,1,68,71.15Zm0-26.47A12.45,12.45,0,1,0,80.4,57.13,12.46,12.46,0,0,0,68,44.68Z" transform="translate(0 0)"/><path d="M68,71.15c-4.19,0-7.48-6.16-7.48-14s3.29-14,7.48-14,7.49,6.16,7.49,14S72.15,71.15,68,71.15Zm0-26.47c-3.2,0-5.9,5.7-5.9,12.45s2.7,12.45,5.9,12.45,5.91-5.71,5.91-12.45S71.16,44.68,68,44.68Z" transform="translate(0 0)"/><rect x="56.27" y="50.02" width="23.48" height="1.58"/><rect x="56.27" y="62.64" width="23.48" height="1.58"/><rect x="54.84" y="56.33" width="26.35" height="1.58"/><rect x="67.17" y="43.89" width="1.58" height="26.47"/><path class="cls-1" d="M67.91,39.69a.54.54,0,0,1-.94,0l-1-1.79-1-1.79a.54.54,0,0,1,.46-.81H69.5a.54.54,0,0,1,.47.81l-1,1.79Z" transform="translate(0 0)"/><path d="M67.44,40.75a1.32,1.32,0,0,1-1.15-.67l-2.07-3.57a1.32,1.32,0,0,1,0-1.33,1.33,1.33,0,0,1,1.15-.66H69.5a1.3,1.3,0,0,1,1.15.66,1.32,1.32,0,0,1,0,1.33l-2.06,3.57A1.34,1.34,0,0,1,67.44,40.75ZM65.8,36.09l1.64,2.83,1.63-2.83Z" transform="translate(0 0)"/><path d="M30.27,38.42a.79.79,0,0,1-.79-.79l0-9.62a3.19,3.19,0,0,1,3.19-3.18H64.94a3.29,3.29,0,0,1,3.29,3.28V35.3a.79.79,0,0,1-1.58,0V28.11a1.71,1.71,0,0,0-1.71-1.7H32.65A1.61,1.61,0,0,0,31,28l0,9.62a.8.8,0,0,1-.79.79Z" transform="translate(0 0)"/></svg>