<svg id="Layer_1" data-name="Layer 1" xmlns="http://www.w3.org/2000/svg" viewBox="0 0 96 96"><defs><style>.cls-1{fill:#fff;}.cls-2{fill:#27635f;}.cls-3{fill:#bcbec0;}</style></defs><circle class="cls-1" cx="48" cy="48" r="48"/><path class="cls-2" d="M48,96A47.84,47.84,0,0,1,13.33,81.22h0A48,48,0,1,1,48,96ZM15.6,79A44.84,44.84,0,1,0,17,15.63,44.88,44.88,0,0,0,15.6,79Z"/><path d="M78.24,62.74H55.76V50.59c0-2.06,1.4-3.73,3.11-3.73H75.13c1.71,0,3.11,1.67,3.11,3.73Zm-20.9-1.58H76.67V50.59c0-1.17-.71-2.16-1.54-2.16H58.87c-.83,0-1.53,1-1.53,2.16Z"/><path d="M76.59,65.28H57.41a3.35,3.35,0,0,1-3.53-3.12v-.79l.79,0H80.12v.78A3.35,3.35,0,0,1,76.59,65.28ZM55.71,62.89a2.06,2.06,0,0,0,1.7.81H76.59a2.08,2.08,0,0,0,1.71-.81Z"/><path d="M73.59,51.39H60.4a.79.79,0,0,1,0-1.58H73.59a.79.79,0,1,1,0,1.58Z"/><path class="cls-1" d="M67.91,41.36a.54.54,0,0,1-.94,0l-1-1.79-1-1.79a.54.54,0,0,1,.47-.81H69.5a.54.54,0,0,1,.47.81l-1,1.79Z"/><path d="M67.44,42.41a1.3,1.3,0,0,1-1.15-.66l-2.06-3.57a1.34,1.34,0,0,1,1.15-2H69.5a1.34,1.34,0,0,1,1.15,2l-2.06,3.57A1.3,1.3,0,0,1,67.44,42.41ZM67.22,41Zm-1.41-3.2,1.63,2.83,1.63-2.83Zm3.48-.37Z"/><path d="M30.28,40.09a.79.79,0,0,1-.79-.79l0-9.62a3.19,3.19,0,0,1,3.19-3.18H64.94a3.29,3.29,0,0,1,3.29,3.28V37a.79.79,0,1,1-1.58,0V29.78a1.71,1.71,0,0,0-1.71-1.71H32.66a1.62,1.62,0,0,0-1.61,1.61l0,9.62a.8.8,0,0,1-.79.79Z"/><rect x="17.91" y="49.11" width="1.58" height="13.92"/><path class="cls-1" d="M18.7,63c0,2.56,4.65,4.64,10.39,4.64s10.4-2.08,10.4-4.64"/><path d="M29.09,68.46c-6.37,0-11.18-2.34-11.18-5.43h1.58c0,1.82,3.94,3.85,9.6,3.85s9.61-2,9.61-3.85h1.57C40.27,66.12,35.47,68.46,29.09,68.46Z"/><path class="cls-1" d="M18.7,58.39C18.7,61,23.35,63,29.09,63s10.4-2.08,10.4-4.64"/><path d="M29.09,63.82c-6.37,0-11.18-2.34-11.18-5.43h1.58c0,1.82,3.94,3.85,9.6,3.85s9.61-2,9.61-3.85h1.57C40.27,61.48,35.47,63.82,29.09,63.82Z"/><path class="cls-1" d="M18.7,53.75c0,2.56,4.65,4.64,10.39,4.64s10.4-2.08,10.4-4.64"/><path d="M29.09,59.17c-6.37,0-11.18-2.33-11.18-5.42h1.58c0,1.82,3.94,3.85,9.6,3.85s9.61-2,9.61-3.85h1.57C40.27,56.84,35.47,59.17,29.09,59.17Z"/><ellipse class="cls-1" cx="29.09" cy="49.11" rx="10.39" ry="4.64"/><path d="M29.09,54.53c-6.37,0-11.18-2.33-11.18-5.42s4.81-5.43,11.18-5.43S40.27,46,40.27,49.11,35.47,54.53,29.09,54.53Zm0-9.27c-5.66,0-9.6,2-9.6,3.85S23.43,53,29.09,53s9.61-2,9.61-3.85S34.75,45.26,29.09,45.26Z"/><rect x="38.7" y="49.11" width="1.58" height="13.92"/><path class="cls-3" d="M49.8,96l-.12-3.15a44.73,44.73,0,0,0,10-1.52l.82,3A47.53,47.53,0,0,1,49.8,96ZM39,95.16,38.34,95a47.44,47.44,0,0,1-9.7-3.09l1.26-2.88A45.38,45.38,0,0,0,39,91.94l.62.12Zm31.62-4.8-1.49-2.78a45.11,45.11,0,0,0,8.35-5.76l2.06,2.39A48.79,48.79,0,0,1,70.6,90.36ZM19.27,86.47A47.83,47.83,0,0,1,11.38,79l2.41-2a44.88,44.88,0,0,0,7.37,7ZM86.85,76.21,84.3,74.36a44.33,44.33,0,0,0,5-8.82l2.9,1.23A47.22,47.22,0,0,1,86.85,76.21ZM5.35,70A48.52,48.52,0,0,1,1.49,59.89l3.06-.78a45.05,45.05,0,0,0,3.6,9.47Zm89.9-13.65-3.1-.55a46.12,46.12,0,0,0,.7-7.86q0-1.12-.06-2.25l3.15-.16c0,.8.06,1.6.06,2.41A47.47,47.47,0,0,1,95.25,56.37ZM0,49.15c0-.37,0-.73,0-1.09a48.19,48.19,0,0,1,1-9.71L4.08,39a45.65,45.65,0,0,0-.93,9.08c0,.34,0,.67,0,1ZM91.13,35.72a45,45,0,0,0-3.87-9.37L90,24.83a47.36,47.36,0,0,1,4.14,10ZM6.26,31.62,3.32,30.47a47.74,47.74,0,0,1,5.07-9.58L11,22.67A44.54,44.54,0,0,0,6.26,31.62ZM81.4,18.08a44.85,44.85,0,0,0-7.56-6.74l1.82-2.57A47.77,47.77,0,0,1,83.75,16ZM17.63,15,15.49,12.7a48.36,48.36,0,0,1,8.76-6.4L25.81,9A44.94,44.94,0,0,0,17.63,15ZM65,6.48A46.21,46.21,0,0,0,57,4.08c-.61-.12-1.22-.24-1.83-.33L55.71.63q1,.16,1.95.36a48.65,48.65,0,0,1,8.49,2.57ZM35.12,5l-.91-3A47.82,47.82,0,0,1,44.88.1l.21,3.15A44.4,44.4,0,0,0,35.12,5Z"/><path d="M90.1,6.68,86.61,8.9l-.9-1.58,3.68-1.91L85.71,3.49l.9-1.57L90.1,4.13,90,0h1.81l-.15,4.13L95.1,1.92,96,3.49,92.32,5.41,96,7.32,95.1,8.9,91.61,6.68l.15,4.13H90Z"/></svg>