<svg id="Layer_1" data-name="Layer 1" xmlns="http://www.w3.org/2000/svg" viewBox="0 0 96 96"><defs><style>.cls-1{fill:#fff;}.cls-2{fill:#fdb6ba;}</style></defs><circle class="cls-1" cx="48" cy="48" r="48"/><path class="cls-2" d="M47.92,96a48.06,48.06,0,0,1-46-34.72h0A47.89,47.89,0,1,1,47.92,96Zm-43-35.59A44.83,44.83,0,1,0,35.58,4.91,44.59,44.59,0,0,0,4.91,60.41Z" transform="translate(0 0)"/><path d="M46.15,68.72H22A4,4,0,0,1,18,64.78V45.72A4,4,0,0,1,22,41.78h24.2a4,4,0,0,1,3.94,3.94V64.78A4,4,0,0,1,46.15,68.72ZM22,43.36a2.36,2.36,0,0,0-2.36,2.36V64.78A2.36,2.36,0,0,0,22,67.14h24.2a2.36,2.36,0,0,0,2.36-2.36V45.72a2.36,2.36,0,0,0-2.36-2.36Z" transform="translate(0 0)"/><path d="M43.48,42.57H41.91V33.49a7.86,7.86,0,1,0-15.72,0v9.08H24.62V33.49a9.43,9.43,0,1,1,18.86,0Z" transform="translate(0 0)"/><circle class="cls-1" cx="56.57" cy="45.14" r="11.1"/><path d="M56.56,57a11.87,11.87,0,1,1,9.06-4.17A11.83,11.83,0,0,1,56.56,57Zm0-22.19-.84,0a10.41,10.41,0,1,0,.84,0Z" transform="translate(0 0)"/><path d="M77.75,65.33a2.86,2.86,0,0,1-1.86-.71L63,54.07l1-1.22L76.9,63.41a1.33,1.33,0,0,0,.93.34.72.72,0,0,0,.5-.23l.24-.28a.75.75,0,0,0,.15-.53,1.31,1.31,0,0,0-.47-.85L65.38,51.3l1-1.21L79.26,60.64a2.92,2.92,0,0,1,1,2,2.3,2.3,0,0,1-.52,1.67l-.24.28a2.31,2.31,0,0,1-1.57.78Z" transform="translate(0 0)"/><line class="cls-1" x1="34.05" y1="56.4" x2="34.05" y2="52.44"/><path d="M34.05,57.19a.79.79,0,0,1-.79-.79v-4a.79.79,0,1,1,1.58,0v4A.79.79,0,0,1,34.05,57.19Z" transform="translate(0 0)"/><circle class="cls-1" cx="34.05" cy="50.75" r="1.69"/><path d="M34.05,53.23a2.49,2.49,0,1,1,2.48-2.48A2.48,2.48,0,0,1,34.05,53.23Zm0-3.39a.91.91,0,1,0,0,1.81.91.91,0,0,0,0-1.81Z" transform="translate(0 0)"/></svg>