<svg id="Layer_1" data-name="Layer 1" xmlns="http://www.w3.org/2000/svg" viewBox="0 0 96 96"><defs><style>.cls-1{fill:#fff;}.cls-2{fill:#114260;}</style></defs><circle class="cls-1" cx="48" cy="48" r="48"/><path class="cls-2" d="M48.1,96a48.34,48.34,0,0,1-9.76-1A48,48,0,0,1,1,38.33H1A48,48,0,1,1,48.1,96Zm-44-57h0A44.83,44.83,0,0,0,72.68,85.43,44.83,44.83,0,1,0,4.09,39Z" transform="translate(0 0)"/><path d="M71.14,66.81H24.08V30a.79.79,0,0,1,1.58,0V65.23H71.14a.79.79,0,0,1,0,1.58Z" transform="translate(0 0)"/><polygon points="33.38 54.14 32.38 52.93 44.19 43.16 55.63 47.91 66.7 38.6 67.72 39.81 55.91 49.73 44.46 44.98 33.38 54.14"/><circle class="cls-1" cx="32.88" cy="53.54" r="2.05"/><path d="M32.88,56.37a2.84,2.84,0,1,1,2.84-2.83A2.84,2.84,0,0,1,32.88,56.37Zm0-4.09a1.26,1.26,0,1,0,1.26,1.26A1.25,1.25,0,0,0,32.88,52.28Z" transform="translate(0 0)"/><circle class="cls-1" cx="44.32" cy="44.07" r="2.05"/><path d="M44.32,46.91a2.84,2.84,0,1,1,2.84-2.84A2.84,2.84,0,0,1,44.32,46.91Zm0-4.1a1.26,1.26,0,1,0,1.26,1.26A1.26,1.26,0,0,0,44.32,42.81Z" transform="translate(0 0)"/><circle class="cls-1" cx="55.77" cy="48.82" r="2.05"/><path d="M55.77,51.66a2.84,2.84,0,1,1,2.83-2.84A2.84,2.84,0,0,1,55.77,51.66Zm0-4.1a1.26,1.26,0,0,0,0,2.52,1.26,1.26,0,0,0,0-2.52Z" transform="translate(0 0)"/><circle class="cls-1" cx="67.21" cy="39.21" r="2.05"/><path d="M67.21,42.05a2.84,2.84,0,1,1,2.84-2.84A2.85,2.85,0,0,1,67.21,42.05Zm0-4.1a1.26,1.26,0,1,0,1.26,1.26A1.25,1.25,0,0,0,67.21,38Z" transform="translate(0 0)"/></svg>