<svg id="Layer_1" data-name="Layer 1" xmlns="http://www.w3.org/2000/svg" viewBox="0 0 96 96"><defs><style>.cls-1{fill:#fff;}.cls-2{fill:#fdb6ba;}</style></defs><circle class="cls-1" cx="48" cy="48" r="48"/><path class="cls-2" d="M48,96a48.12,48.12,0,1,1,7.66-.62h0A47.47,47.47,0,0,1,48,96ZM48,3.15a44.84,44.84,0,1,0,7.11,89.11A44.84,44.84,0,0,0,48,3.15Z"/><path d="M77.34,49.35H41.29a.79.79,0,0,1,0-1.57H77.34a.79.79,0,1,1,0,1.57Z"/><path d="M67.77,54.52a.79.79,0,0,1-.79-.79V48.66a.79.79,0,1,1,1.58,0v5.07A.79.79,0,0,1,67.77,54.52Z"/><path d="M73.73,56a.79.79,0,0,1-.79-.79V48.86a.79.79,0,1,1,1.57,0v6.33A.78.78,0,0,1,73.73,56Z"/><path d="M30.72,59.92A11.36,11.36,0,1,1,42.08,48.57,11.36,11.36,0,0,1,30.72,59.92Zm0-21.13a9.78,9.78,0,1,0,9.79,9.78A9.79,9.79,0,0,0,30.72,38.79Z"/></svg>