<svg id="Layer_1" data-name="Layer 1" xmlns="http://www.w3.org/2000/svg" viewBox="0 0 96 96"><defs><style>.cls-1{fill:#fff;}.cls-2{fill:#c09036;}</style></defs><circle class="cls-1" cx="48" cy="48" r="48"/><path class="cls-2" d="M48,96A48,48,0,1,1,91.31,68.62h0A48.13,48.13,0,0,1,48,96Zm.11-92.85A44.84,44.84,0,1,0,88.47,67.26h0A44.85,44.85,0,0,0,48.06,3.15Z" transform="translate(0 0)"/><path d="M61.74,75.2H33.4a3.18,3.18,0,0,1-3.1-3.26L27.27,29a1.67,1.67,0,0,1,.44-1.25A1.71,1.71,0,0,1,29,27.22H66.18a1.71,1.71,0,0,1,1.26.55A1.68,1.68,0,0,1,67.89,29L64.83,72A3.16,3.16,0,0,1,61.74,75.2ZM29,28.8a.13.13,0,0,0-.09,0l3,43.05a1.63,1.63,0,0,0,1.52,1.74H61.74a1.61,1.61,0,0,0,1.52-1.69l3.05-43Z" transform="translate(0 0)"/><path d="M53.75,68.84h-.07A.78.78,0,0,1,53,68l3-35.19a.8.8,0,0,1,.86-.72.78.78,0,0,1,.71.85l-3,35.19A.79.79,0,0,1,53.75,68.84Z" transform="translate(0 0)"/><path d="M41.47,68.84a.8.8,0,0,1-.79-.73l-2.77-35.2a.78.78,0,0,1,.72-.84.79.79,0,0,1,.85.72L42.26,68a.78.78,0,0,1-.73.84Z" transform="translate(0 0)"/><path d="M54.82,28.8H40.33V28a7.25,7.25,0,1,1,14.49,0ZM42,27.22H53.19a5.67,5.67,0,0,0-11.23,0Z" transform="translate(0 0)"/><path d="M70.87,28.8H24.28a.79.79,0,1,1,0-1.58H70.87a.79.79,0,0,1,0,1.58Z" transform="translate(0 0)"/></svg>