<svg id="Layer_1" data-name="Layer 1" xmlns="http://www.w3.org/2000/svg" viewBox="0 0 64 64"><defs><style>.cls-1{fill:#fff;}.cls-2{fill:#fdb6ba;}</style></defs><circle class="cls-1" cx="32" cy="32" r="32"/><path class="cls-2" d="M32.07,64A32,32,0,1,1,49.6,58.71,32,32,0,0,1,32.07,64ZM31.94,2.1A29.91,29.91,0,0,0,2.72,26h0A29.89,29.89,0,1,0,38,2.72,30.68,30.68,0,0,0,31.94,2.1Z" transform="translate(0)"/><path d="M43.44,50.31H20.56a2.41,2.41,0,0,1-2.4-2.4V16.6a2.41,2.41,0,0,1,2.4-2.4H43.44a2.41,2.41,0,0,1,2.4,2.4V47.91A2.41,2.41,0,0,1,43.44,50.31ZM20.56,15.25a1.36,1.36,0,0,0-1.35,1.35V47.91a1.35,1.35,0,0,0,1.35,1.35H43.44a1.35,1.35,0,0,0,1.35-1.35V16.6a1.36,1.36,0,0,0-1.35-1.35Z" transform="translate(0)"/><path d="M37.24,15.25H26.76v-2a1.61,1.61,0,0,1,1.66-1.54h7.16a1.61,1.61,0,0,1,1.66,1.54ZM27.81,14.2h8.38v-.94a.57.57,0,0,0-.61-.49H28.42a.57.57,0,0,0-.61.49Z" transform="translate(0)"/><path d="M31.23,25.76H23.5a.52.52,0,0,1-.53-.52.53.53,0,0,1,.53-.53h7.73a.53.53,0,0,1,.53.53A.52.52,0,0,1,31.23,25.76Z" transform="translate(0)"/><path d="M36,27.45l-1.75-2a.51.51,0,0,1,0-.74.52.52,0,0,1,.74,0l.95,1.07L38,23.34a.53.53,0,0,1,.81.67Z" transform="translate(0)"/><path d="M31.23,33.29H23.5a.53.53,0,0,1-.53-.53.52.52,0,0,1,.53-.52h7.73a.52.52,0,0,1,.53.52A.53.53,0,0,1,31.23,33.29Z" transform="translate(0)"/><path d="M36,35l-1.75-2a.51.51,0,0,1,0-.74.52.52,0,0,1,.74.05l.95,1.07L38,30.84a.53.53,0,1,1,.81.67Z" transform="translate(0)"/><path d="M31.23,40.81H23.5a.52.52,0,0,1-.53-.52.53.53,0,0,1,.53-.53h7.73a.53.53,0,0,1,.53.53A.52.52,0,0,1,31.23,40.81Z" transform="translate(0)"/><path d="M38.37,42.43a.54.54,0,0,1-.37-.16l-3.22-3.22a.52.52,0,0,1,.74-.74l3.22,3.22a.51.51,0,0,1,0,.74A.54.54,0,0,1,38.37,42.43Z" transform="translate(0)"/><path d="M35.15,42.43a.52.52,0,0,1-.37-.16.51.51,0,0,1,0-.74L38,38.31a.52.52,0,1,1,.74.74l-3.22,3.22A.54.54,0,0,1,35.15,42.43Z" transform="translate(0)"/></svg>