<?xml version="1.0" encoding="utf-8"?>
<!-- Generator: Adobe Illustrator 25.4.1, SVG Export Plug-In . SVG Version: 6.00 Build 0)  -->
<svg version="1.1" id="Layer_1" xmlns="http://www.w3.org/2000/svg" xmlns:xlink="http://www.w3.org/1999/xlink" x="0px" y="0px"
	 viewBox="0 0 64 64" style="enable-background:new 0 0 64 64;" xml:space="preserve">
<style type="text/css">
	.st0{fill:#FFFFFF;}
	.st1{fill:#95872C;}
</style>
<circle class="st0" cx="32" cy="32" r="32"/>
<g>
	<g>
		<g>
			<path class="st1" d="M32,64c-3.4,0-6.9-0.6-10.2-1.7l0,0C5.1,56.7-3.9,38.5,1.7,21.8C7.3,5.1,25.4-3.9,42.2,1.7
				c16.7,5.6,25.8,23.8,20.2,40.5c-2.7,8.1-8.4,14.7-16.1,18.5C41.8,62.9,36.9,64,32,64z M22.5,60.3c7.6,2.5,15.7,2,22.8-1.6
				c7.1-3.6,12.5-9.7,15-17.3c5.2-15.6-3.2-32.6-18.8-37.8C25.9-1.6,8.9,6.9,3.7,22.5C-1.6,38.1,6.9,55.1,22.5,60.3L22.5,60.3z"/>
		</g>
		<g>
			<g>
				<path d="M44.2,48.4C44.2,48.4,44.2,48.4,44.2,48.4c-0.6,0-1.2-0.2-1.6-0.7L26.2,31.3c-3.2,1.6-7.4,1.1-9.8-1.4
					c-2-2-2.8-4.9-2.2-7.8l0.2-0.9l4.8,4.8l4.5-0.5l0.6-4.5l-4.7-4.7l0.9-0.2c2.8-0.6,5.6,0.2,7.6,2.2c2.4,2.4,3,6.7,1.5,9.9
					l16.2,16.4c0.4,0.4,0.7,1,0.7,1.6c0,0.6-0.2,1.2-0.7,1.6C45.4,48.2,44.8,48.4,44.2,48.4z M26.4,29.9l0.4,0.4L43.3,47
					c0.2,0.2,0.6,0.4,0.9,0.4c0,0,0,0,0,0c0.3,0,0.7-0.1,0.9-0.4c0.2-0.2,0.4-0.6,0.4-0.9c0-0.3-0.1-0.7-0.4-0.9L28.3,28.3l0.2-0.3
					c1.5-2.7,1-6.8-1.1-9c-1.5-1.5-3.6-2.3-5.7-2.1l3.7,3.7l-0.7,5.9l-5.8,0.6l-3.7-3.7c-0.2,2.1,0.5,4.3,2.1,5.8
					c2.2,2.2,6.1,2.6,8.9,1L26.4,29.9z"/>
			</g>
			<g>
				<g>
					<path class="st0" d="M35.9,28.4L23.7,41.2l-0.8-0.7c-0.2-0.2-0.6-0.1-0.8,0.1l-3,5.8c-0.1,0.2-0.1,0.4,0.1,0.6l0.8,0.7
						c0.2,0.1,0.4,0.2,0.6,0.1l5.6-3.3c0.3-0.2,0.3-0.5,0.1-0.8L25.6,43l12.2-12.8"/>
					<path d="M20.4,48.4c-0.3,0-0.5-0.1-0.7-0.3l-0.8-0.7c-0.3-0.3-0.4-0.8-0.2-1.2l3-5.8c0.1-0.3,0.4-0.5,0.7-0.5
						c0.3-0.1,0.6,0,0.9,0.3l0.4,0.4L35.5,28l0.8,0.7L23.7,42l-1.1-1.1l-2.9,5.8l0.8,0.7l5.6-3.3l-1.1-1l12.6-13.2l0.8,0.7L26.3,43
						l0.4,0.3c0.2,0.2,0.3,0.5,0.3,0.8c0,0.3-0.2,0.6-0.5,0.8l-5.6,3.3C20.7,48.3,20.6,48.4,20.4,48.4z"/>
				</g>
				<g>
					<path d="M39.1,31.3c-0.6,0-1.2-0.2-1.7-0.7l-2-1.9c-1-0.9-1-2.5-0.1-3.4l8.5-9c0.4-0.5,1.1-0.7,1.7-0.8c0.7,0,1.3,0.2,1.7,0.7
						l2,1.9c1,0.9,1,2.5,0.1,3.4l-8.5,9C40.4,31,39.8,31.2,39.1,31.3C39.1,31.3,39.1,31.3,39.1,31.3z M36.1,28l2,1.9
						c0.3,0.3,0.6,0.4,1,0.4c0.4,0,0.7-0.2,1-0.4l8.5-9c0.5-0.6,0.5-1.4-0.1-2l-2-1.9c-0.3-0.3-0.6-0.4-1-0.4c-0.4,0-0.7,0.2-1,0.4
						l-8.5,9C35.6,26.6,35.6,27.4,36.1,28L36.1,28z"/>
				</g>
			</g>
		</g>
	</g>
</g>
</svg>
