<?xml version="1.0" encoding="utf-8"?>
<!-- Generator: Adobe Illustrator 25.4.1, SVG Export Plug-In . SVG Version: 6.00 Build 0)  -->
<svg version="1.1" id="Layer_1" xmlns="http://www.w3.org/2000/svg" xmlns:xlink="http://www.w3.org/1999/xlink" x="0px" y="0px"
	 viewBox="0 0 64 64" style="enable-background:new 0 0 64 64;" xml:space="preserve">
<style type="text/css">
	.st0{fill:#FFFFFF;}
	.st1{fill:#FACCFA;}
</style>
<circle class="st0" cx="32" cy="32" r="32"/>
<g>
	<g>
		<g>
			<path d="M26.1,29.3c-4,0-7.2-3.2-7.2-7.2s3.2-7.2,7.2-7.2c4,0,7.2,3.2,7.2,7.2S30.1,29.3,26.1,29.3z M26.1,15.9
				c-3.4,0-6.2,2.8-6.2,6.2c0,3.4,2.8,6.2,6.2,6.2c3.4,0,6.2-2.8,6.2-6.2C32.3,18.6,29.5,15.9,26.1,15.9z"/>
		</g>
		<g>
			<path d="M36.8,47.6H15.5c-1.6,0-2.9-1.3-2.9-2.9v-4.5c0-5.8,4.7-10.5,10.5-10.5h6.1c5.8,0,10.5,4.7,10.5,10.5v4.5
				C39.7,46.3,38.4,47.6,36.8,47.6z M23.1,30.7c-5.2,0-9.5,4.3-9.5,9.5v4.5c0,1,0.8,1.9,1.9,1.9h21.3c1,0,1.9-0.8,1.9-1.9v-4.5
				c0-5.2-4.3-9.5-9.5-9.5H23.1z"/>
		</g>
	</g>
	<g>
		<path class="st1" d="M32,64C18.1,64,5.3,54.9,1.3,40.9l0,0C-3.6,23.9,6.2,6.2,23.1,1.3C31.3-1.1,40-0.1,47.5,4
			c7.5,4.1,12.9,10.9,15.3,19.1c2.4,8.2,1.4,16.9-2.7,24.3C55.9,55,49.1,60.4,40.9,62.7C37.9,63.6,34.9,64,32,64z M3.2,40.3
			c2.2,7.7,7.3,14,14.3,17.9c7,3.9,15.1,4.8,22.8,2.6c7.7-2.2,14-7.3,17.9-14.3s4.8-15.1,2.6-22.8c-2.2-7.7-7.3-14-14.3-17.9
			c-7-3.9-15.1-4.8-22.8-2.6C7.9,7.8-1.3,24.4,3.2,40.3L3.2,40.3z"/>
	</g>
	<g>
		<g>
			<path d="M53,44.2H43v-4.1h2.6V29.1H43V25h10v4.1h-2.6v11.1H53V44.2z M44,43.2h7.9v-2h-2.6V28.1h2.6v-2H44v2h2.6v13.1H44V43.2z"/>
		</g>
		<g>
			<path d="M48,23.9c-0.9,0-1.8-0.3-2.4-1c-0.7-0.7-1-1.5-1-2.4c0-0.9,0.3-1.7,1-2.4c0.6-0.7,1.5-1,2.5-1c0.9,0,1.7,0.3,2.4,1
				c0.7,0.7,1,1.5,1,2.4c0,1-0.3,1.8-1,2.4C49.7,23.5,48.9,23.9,48,23.9z M48,18c-0.7,0-1.3,0.2-1.7,0.7c-0.5,0.5-0.7,1-0.7,1.7
				c0,0.7,0.2,1.2,0.7,1.7c0.9,0.9,2.4,1,3.4,0c0.5-0.5,0.7-1,0.7-1.7c0-0.7-0.2-1.2-0.7-1.7C49.2,18.3,48.6,18,48,18z"/>
		</g>
	</g>
</g>
</svg>
