<?xml version="1.0" encoding="utf-8"?>
<!-- Generator: Adobe Illustrator 25.4.1, SVG Export Plug-In . SVG Version: 6.00 Build 0)  -->
<svg version="1.1" id="Layer_1" xmlns="http://www.w3.org/2000/svg" xmlns:xlink="http://www.w3.org/1999/xlink" x="0px" y="0px"
	 viewBox="0 0 64 64" style="enable-background:new 0 0 64 64;" xml:space="preserve">
<style type="text/css">
	.st0{fill:#FFFFFF;}
	.st1{fill:#FDB6BA;}
</style>
<circle class="st0" cx="32" cy="32" r="32"/>
<g>
	<g>
		<path class="st1" d="M31.9,64c-5.3,0-10.6-1.4-15.4-4C9,55.9,3.6,49.1,1.3,40.9l0,0c-4.9-17,4.9-34.7,21.9-39.6
			c16.9-4.9,34.7,4.9,39.6,21.9c4.9,17-4.9,34.7-21.9,39.6C37.9,63.6,34.9,64,31.9,64z M3.3,40.3c2.2,7.7,7.3,14,14.3,17.9
			c7,3.9,15.1,4.8,22.7,2.6c15.8-4.6,25-21.2,20.4-37c-4.6-15.8-21.2-25-37-20.4C7.9,7.8-1.3,24.4,3.3,40.3L3.3,40.3z"/>
	</g>
	<g>
		<g>
			<g>
				<path d="M30.8,45.8H14.6c-1.4,0-2.6-1.2-2.6-2.6V30.5c0-1.4,1.2-2.6,2.6-2.6h16.1c1.4,0,2.6,1.2,2.6,2.6v12.7
					C33.4,44.6,32.2,45.8,30.8,45.8z M14.6,28.9c-0.9,0-1.6,0.7-1.6,1.6v12.7c0,0.9,0.7,1.6,1.6,1.6h16.1c0.9,0,1.6-0.7,1.6-1.6
					V30.5c0-0.9-0.7-1.6-1.6-1.6H14.6z"/>
			</g>
			<g>
				<path d="M29,28.4h-1.1v-6.1c0-2.9-2.3-5.2-5.2-5.2s-5.2,2.3-5.2,5.2v6.1h-1.1v-6.1c0-3.5,2.8-6.3,6.3-6.3s6.3,2.8,6.3,6.3V28.4z
					"/>
			</g>
		</g>
		<g>
			<g>
				<circle class="st0" cx="37.7" cy="30.1" r="7.4"/>
				<path d="M37.7,38c-1.8,0-3.6-0.6-5.1-1.9c-3.3-2.8-3.7-7.8-0.9-11.2c2.8-3.3,7.8-3.7,11.2-0.9c1.6,1.4,2.6,3.3,2.8,5.4
					c0.2,2.1-0.5,4.2-1.9,5.8C42.2,37.1,39.9,38,37.7,38z M37.7,23.2c-0.2,0-0.4,0-0.6,0c-1.8,0.1-3.5,1-4.7,2.4
					c-2.5,2.9-2.1,7.2,0.8,9.7c2.9,2.5,7.2,2.1,9.7-0.8c1.2-1.4,1.8-3.2,1.6-5c-0.1-1.8-1-3.5-2.4-4.7
					C40.9,23.8,39.4,23.2,37.7,23.2z"/>
			</g>
			<g>
				<path d="M51.8,43.6c-0.4,0-0.9-0.2-1.2-0.5L42,36l0.7-0.8l8.6,7c0.2,0.2,0.4,0.2,0.6,0.2c0.1,0,0.2,0,0.3-0.2l0.2-0.2
					c0.1-0.1,0.1-0.3,0.1-0.4c0-0.2-0.1-0.4-0.3-0.6l-8.6-7l0.7-0.8l8.6,7c0.4,0.3,0.6,0.8,0.7,1.3c0,0.4-0.1,0.8-0.3,1.1L53,43
					c-0.3,0.3-0.6,0.5-1,0.5C51.9,43.6,51.9,43.6,51.8,43.6z"/>
			</g>
		</g>
		<g>
			<g>
				<line class="st0" x1="22.7" y1="37.6" x2="22.7" y2="35"/>
				<path d="M22.7,38.1c-0.3,0-0.5-0.2-0.5-0.5V35c0-0.3,0.2-0.5,0.5-0.5c0.3,0,0.5,0.2,0.5,0.5v2.6C23.2,37.9,23,38.1,22.7,38.1z"
					/>
			</g>
			<g>
				<circle class="st0" cx="22.7" cy="33.8" r="1.1"/>
				<path d="M22.7,35.5c-0.9,0-1.7-0.7-1.7-1.7c0-0.9,0.7-1.7,1.7-1.7s1.7,0.7,1.7,1.7C24.4,34.7,23.6,35.5,22.7,35.5z M22.7,33.2
					c-0.3,0-0.6,0.3-0.6,0.6s0.3,0.6,0.6,0.6s0.6-0.3,0.6-0.6S23,33.2,22.7,33.2z"/>
			</g>
		</g>
	</g>
</g>
</svg>
