<?xml version="1.0" encoding="utf-8"?>
<!-- Generator: Adobe Illustrator 25.4.1, SVG Export Plug-In . SVG Version: 6.00 Build 0)  -->
<svg version="1.1" id="Layer_1" xmlns="http://www.w3.org/2000/svg" xmlns:xlink="http://www.w3.org/1999/xlink" x="0px" y="0px"
	 viewBox="0 0 64 64" style="enable-background:new 0 0 64 64;" xml:space="preserve">
<style type="text/css">
	.st0{fill:#FFFFFF;}
	.st1{fill:#FACCFA;}
</style>
<circle class="st0" cx="32" cy="32" r="32"/>
<g>
	<g>
		<g>
			<g>
				<path d="M53.2,43.3h-10v-4.1h2.6V28.2h-2.6v-4.1h10v4.1h-2.6v11.1h2.6V43.3z M44.2,42.3h7.9v-2h-2.6V27.1h2.6v-2h-7.9v2h2.6
					v13.1h-2.6V42.3z"/>
			</g>
			<g>
				<path d="M48.2,22.9c-1,0-1.8-0.3-2.4-1c-0.7-0.7-1-1.5-1-2.4c0-0.9,0.3-1.7,1-2.4c0.6-0.7,1.5-1,2.5-1c0.9,0,1.7,0.3,2.4,1
					c0.7,0.7,1,1.5,1,2.4c0,1-0.3,1.8-1,2.4C49.9,22.6,49.1,22.9,48.2,22.9z M48.2,17.1c-0.7,0-1.3,0.2-1.7,0.7
					c-0.5,0.5-0.7,1-0.7,1.7c0,0.7,0.2,1.2,0.7,1.7c0.9,0.9,2.4,1,3.4,0c0.5-0.5,0.7-1,0.7-1.7c0-0.7-0.2-1.2-0.7-1.7
					C49.4,17.4,48.8,17.1,48.2,17.1z"/>
			</g>
		</g>
		<g>
			<g>
				<rect x="10.8" y="25" width="1" height="16.8"/>
			</g>
			<g>
				<path d="M23.9,47.9c-7.3,0-13.1-2.7-13.1-6.1h1c0,2.8,5.5,5.1,12,5.1s12-2.3,12-5.1h1C37,45.2,31.2,47.9,23.9,47.9z"/>
			</g>
			<g>
				<path d="M23.9,42.3c-7.3,0-13.1-2.7-13.1-6.1h1c0,2.8,5.5,5.1,12,5.1s12-2.3,12-5.1h1C37,39.6,31.2,42.3,23.9,42.3z"/>
			</g>
			<g>
				<path d="M23.9,36.7c-7.3,0-13.1-2.7-13.1-6.1h1c0,2.8,5.5,5.1,12,5.1s12-2.3,12-5.1h1C37,34,31.2,36.7,23.9,36.7z"/>
			</g>
			<g>
				<path d="M23.9,31.1c-7.3,0-13.1-2.7-13.1-6.1s5.7-6.1,13.1-6.1S37,21.5,37,25S31.2,31.1,23.9,31.1z M23.9,19.9
					c-6.5,0-12,2.3-12,5.1s5.5,5.1,12,5.1s12-2.3,12-5.1S30.4,19.9,23.9,19.9z"/>
			</g>
			<g>
				<rect x="35.9" y="25" width="1" height="16.8"/>
			</g>
		</g>
	</g>
	<g>
		<path class="st1" d="M32.1,64c-2.2,0-4.3-0.2-6.5-0.7C8.3,59.8-2.9,42.8,0.7,25.6l0,0C2.4,17.2,7.3,10,14.4,5.3
			c7.1-4.7,15.7-6.3,24-4.6C46.8,2.4,54,7.3,58.7,14.4c4.7,7.1,6.3,15.7,4.6,24c-1.7,8.4-6.6,15.6-13.7,20.3
			C44.3,62.2,38.3,64,32.1,64z M2.7,26C-0.6,42.1,9.8,58,26,61.3c7.8,1.6,15.8,0.1,22.5-4.3c6.7-4.4,11.2-11.1,12.8-19
			c1.6-7.8,0.1-15.8-4.3-22.5C52.6,8.9,45.9,4.3,38,2.7C30.2,1.1,22.2,2.6,15.5,7C8.9,11.4,4.3,18.1,2.7,26L2.7,26z"/>
	</g>
</g>
</svg>
