<?xml version="1.0" encoding="utf-8"?>
<!-- Generator: Adobe Illustrator 25.4.1, SVG Export Plug-In . SVG Version: 6.00 Build 0)  -->
<svg version="1.1" id="Layer_1" xmlns="http://www.w3.org/2000/svg" xmlns:xlink="http://www.w3.org/1999/xlink" x="0px" y="0px"
	 viewBox="0 0 64 64" style="enable-background:new 0 0 64 64;" xml:space="preserve">
<style type="text/css">
	.st0{fill:#FFFFFF;}
	.st1{fill:#95872C;}
	.st2{fill:#BCBEC0;}
</style>
<circle class="st0" cx="32" cy="32" r="32"/>
<g>
	<g>
		<g>
			<path d="M60.1,4.5l-2.3,1.5l-0.6-1.1l2.5-1.3l-2.5-1.3l0.6-1.1l2.3,1.5L60,0h1.2l-0.1,2.8l2.3-1.5L64,2.3l-2.5,1.3L64,4.9
				l-0.6,1.1l-2.3-1.5l0.1,2.8H60L60.1,4.5z"/>
		</g>
	</g>
	<g>
		<g>
			<path class="st1" d="M32,64c-3.4,0-6.8-0.5-10.1-1.7l0,0C5.1,56.7-3.9,38.6,1.7,21.8C7.3,5.1,25.4-3.9,42.2,1.7
				c8.1,2.7,14.7,8.4,18.5,16.1c3.8,7.7,4.4,16.3,1.7,24.4C57.8,55.5,45.3,64,32,64z M22.5,60.3c7.6,2.5,15.7,2,22.8-1.6
				c7.1-3.6,12.5-9.7,15-17.3c2.5-7.6,2-15.7-1.6-22.8c-3.6-7.1-9.7-12.5-17.3-15C25.9-1.6,8.9,6.9,3.7,22.5
				C-1.6,38.1,6.9,55.1,22.5,60.3L22.5,60.3z"/>
		</g>
		<g>
			<g>
				<path class="st2" d="M33.2,64l-0.1-2.1c2.2-0.1,4.5-0.4,6.7-1l0.6,2C38,63.5,35.6,63.9,33.2,64z M26,63.4l-0.4-0.1
					c-2.2-0.5-4.4-1.1-6.5-2.1l0.8-1.9c1.9,0.8,4,1.5,6,1.9l0.4,0.1L26,63.4z M47.1,60.2l-1-1.9c2-1.1,3.9-2.4,5.6-3.8l1.4,1.6
					C51.2,57.7,49.2,59.1,47.1,60.2z M12.9,57.6c-1.9-1.4-3.7-3.1-5.3-5l1.6-1.4c1.5,1.7,3.1,3.3,4.9,4.6L12.9,57.6z M57.9,50.8
					l-1.7-1.2c1.3-1.8,2.4-3.8,3.3-5.9l1.9,0.8C60.5,46.7,59.3,48.8,57.9,50.8z M3.6,46.7c-1.1-2.1-2-4.4-2.6-6.8l2-0.5
					c0.6,2.2,1.4,4.3,2.4,6.3L3.6,46.7z M63.5,37.6l-2.1-0.4c0.3-1.7,0.5-3.5,0.5-5.2c0-0.5,0-1,0-1.5l2.1-0.1c0,0.5,0,1.1,0,1.6
					C64,33.8,63.8,35.7,63.5,37.6z M0,32.7c0-0.2,0-0.5,0-0.7c0-2.2,0.2-4.3,0.7-6.5L2.7,26c-0.4,2-0.6,4-0.6,6c0,0.2,0,0.5,0,0.7
					L0,32.7z M60.8,23.8c-0.6-2.2-1.5-4.3-2.6-6.2l1.8-1c1.2,2.1,2.1,4.4,2.8,6.7L60.8,23.8z M4.2,21.1l-2-0.8
					c0.9-2.2,2-4.4,3.4-6.4l1.7,1.2C6.1,17,5,19,4.2,21.1z M54.3,12c-1.5-1.7-3.2-3.2-5-4.5l1.2-1.7c2,1.4,3.8,3,5.4,4.8L54.3,12z
					 M11.8,10l-1.4-1.5c1.8-1.6,3.7-3.1,5.8-4.3l1,1.8C15.2,7.1,13.4,8.5,11.8,10z M43.3,4.3c-1.7-0.7-3.5-1.2-5.3-1.6
					c-0.4-0.1-0.8-0.2-1.2-0.2l0.3-2.1c0.4,0.1,0.9,0.2,1.3,0.2c1.9,0.4,3.8,1,5.7,1.7L43.3,4.3z M23.4,3.4l-0.6-2
					c2.3-0.7,4.7-1.1,7.1-1.3l0.1,2.1C27.8,2.3,25.6,2.7,23.4,3.4z"/>
			</g>
		</g>
		<g>
			<g>
				<path d="M44.2,48.4c-0.6,0.1-1.2-0.2-1.6-0.7L26.2,31.3c-3.2,1.6-7.4,1.1-9.8-1.4c-2-2-2.8-4.9-2.2-7.8l0.2-0.9l4.8,4.8l4.5-0.5
					l0.6-4.5l-4.7-4.7l0.9-0.2c2.8-0.6,5.6,0.2,7.6,2.2c2.4,2.4,3,6.7,1.5,9.9l16.2,16.4c0.9,0.9,0.9,2.4,0,3.3
					C45.4,48.2,44.8,48.4,44.2,48.4z M26.4,29.9l0.4,0.4L43.3,47c0.2,0.2,0.6,0.4,0.9,0.4c0,0,0,0,0,0c0.3,0,0.7-0.1,0.9-0.4
					c0.5-0.5,0.5-1.3,0-1.8L28.3,28.3l0.2-0.3c1.5-2.7,1-6.8-1.1-9c-1.5-1.5-3.6-2.3-5.7-2.1l3.7,3.7l-0.7,5.9l-5.8,0.6l-3.7-3.7
					c-0.2,2.1,0.5,4.3,2.1,5.8c2.2,2.2,6.2,2.6,8.9,1L26.4,29.9z"/>
			</g>
			<g>
				<g>
					<path class="st0" d="M35.9,28.4L23.7,41.2l-0.8-0.7c-0.2-0.2-0.6-0.1-0.8,0.1l-3,5.8c-0.1,0.2-0.1,0.4,0.1,0.6l0.8,0.7
						c0.2,0.1,0.4,0.2,0.6,0.1l5.6-3.3c0.3-0.2,0.3-0.5,0.1-0.8L25.6,43l12.2-12.8"/>
					<path d="M20.4,48.4c-0.3,0-0.5-0.1-0.7-0.3l-0.8-0.7c-0.3-0.3-0.4-0.8-0.2-1.2l3-5.8c0.1-0.3,0.4-0.5,0.7-0.5
						c0.3-0.1,0.6,0,0.9,0.3l0.4,0.4L35.5,28l0.8,0.7L23.7,42l-1.1-1.1l-2.9,5.8l0.8,0.7l5.6-3.3l-1.1-1l12.6-13.2l0.8,0.7L26.3,43
						l0.4,0.4c0.2,0.2,0.3,0.5,0.3,0.8c0,0.3-0.2,0.6-0.5,0.8l-5.6,3.3C20.7,48.3,20.6,48.4,20.4,48.4z"/>
				</g>
				<g>
					<path d="M39.1,31.3c-0.6,0-1.2-0.2-1.7-0.7l-2-1.9c-1-0.9-1-2.5-0.1-3.4l8.5-9c0.4-0.5,1-0.7,1.7-0.8c0.6,0,1.3,0.2,1.7,0.7
						l2,1.9c0.5,0.4,0.7,1,0.8,1.7c0,0.7-0.2,1.3-0.7,1.7l-8.5,9C40.4,31,39.7,31.3,39.1,31.3z M36.1,28l2,1.9
						c0.6,0.5,1.4,0.5,2-0.1l8.5-9c0.3-0.3,0.4-0.6,0.4-1c0-0.4-0.2-0.7-0.4-1l-2-1.9c-0.3-0.3-0.6-0.4-1-0.4c-0.4,0-0.7,0.2-1,0.4
						l-8.5,9C35.6,26.6,35.6,27.4,36.1,28L36.1,28z"/>
				</g>
			</g>
		</g>
	</g>
</g>
</svg>
