<?xml version="1.0" encoding="utf-8"?>
<!-- Generator: Adobe Illustrator 25.4.1, SVG Export Plug-In . SVG Version: 6.00 Build 0)  -->
<svg version="1.1" id="Layer_1" xmlns="http://www.w3.org/2000/svg" xmlns:xlink="http://www.w3.org/1999/xlink" x="0px" y="0px"
	 viewBox="0 0 64 64" style="enable-background:new 0 0 64 64;" xml:space="preserve">
<style type="text/css">
	.st0{fill:#FFFFFF;}
	.st1{fill:#27635F;}
	.st2{fill:#BCBEC0;}
</style>
<circle class="st0" cx="32" cy="32" r="32"/>
<g>
	<g>
		<g>
			<path class="st1" d="M32,64c-8.4,0-16.8-3.3-23.1-9.8l0,0c-12.2-12.7-11.8-33,1-45.2c12.7-12.2,33-11.8,45.2,1
				c12.2,12.7,11.8,33-1,45.2C47.9,61.1,40,64,32,64z M10.4,52.7C21.8,64.6,40.8,65,52.7,53.6C64.6,42.2,65,23.2,53.6,11.3
				C42.2-0.6,23.2-1,11.3,10.4C-0.6,21.8-1,40.8,10.4,52.7L10.4,52.7z"/>
		</g>
		<g>
			<g>
				<path d="M52.2,41.8h-15v-8.1c0-1.4,0.9-2.5,2.1-2.5h10.8c1.1,0,2.1,1.1,2.1,2.5V41.8z M38.2,40.8h12.9v-7c0-0.8-0.5-1.4-1-1.4
					H39.2c-0.6,0-1,0.7-1,1.4V40.8z"/>
			</g>
			<g>
				<path d="M51.1,43.5H38.3c-1.3,0-2.4-0.9-2.4-2.1v-0.5l0.5,0h17v0.5C53.4,42.6,52.4,43.5,51.1,43.5z M37.1,41.9
					c0.2,0.3,0.7,0.5,1.1,0.5h12.8c0.5,0,0.9-0.2,1.1-0.5H37.1z"/>
			</g>
			<g>
				<path d="M49.1,34.3h-8.8c-0.3,0-0.5-0.2-0.5-0.5c0-0.3,0.2-0.5,0.5-0.5h8.8c0.3,0,0.5,0.2,0.5,0.5C49.6,34,49.4,34.3,49.1,34.3z
					"/>
			</g>
		</g>
		<g>
			<g>
				<path class="st0" d="M45.3,27.6c-0.1,0.2-0.5,0.2-0.6,0L44,26.4l-0.7-1.2c-0.1-0.2,0-0.5,0.3-0.5l1.4,0l1.4,0
					c0.3,0,0.5,0.3,0.3,0.5L46,26.4L45.3,27.6z"/>
				<path d="M45,28.3c-0.3,0-0.6-0.2-0.8-0.4l-1.4-2.4c-0.2-0.3-0.2-0.6,0-0.9c0.2-0.3,0.4-0.4,0.8-0.4h2.8c0.3,0,0.6,0.2,0.8,0.4
					c0.2,0.3,0.2,0.6,0,0.9l-1.4,2.4C45.6,28.1,45.3,28.3,45,28.3z M44.8,27.3C44.8,27.3,44.8,27.3,44.8,27.3L44.8,27.3z M43.9,25.2
					l1.1,1.9l1.1-1.9H43.9z M46.2,24.9C46.2,24.9,46.2,24.9,46.2,24.9L46.2,24.9z"/>
			</g>
			<g>
				<path d="M20.2,26.7c-0.3,0-0.5-0.2-0.5-0.5l0-6.4c0-1.2,1-2.1,2.1-2.1h21.5c1.2,0,2.2,1,2.2,2.2v4.8c0,0.3-0.2,0.5-0.5,0.5
					s-0.5-0.2-0.5-0.5v-4.8c0-0.6-0.5-1.1-1.1-1.1H21.8c-0.6,0-1.1,0.5-1.1,1.1l0,6.4C20.7,26.5,20.5,26.7,20.2,26.7L20.2,26.7z"/>
			</g>
		</g>
		<g>
			<g>
				<rect x="11.9" y="32.7" width="1.1" height="9.3"/>
			</g>
			<g>
				<path class="st0" d="M12.5,42c0,1.7,3.1,3.1,6.9,3.1s6.9-1.4,6.9-3.1"/>
				<path d="M19.4,45.6c-4.2,0-7.5-1.6-7.5-3.6H13c0,1.2,2.6,2.6,6.4,2.6s6.4-1.4,6.4-2.6h1.1C26.8,44.1,23.6,45.6,19.4,45.6z"/>
			</g>
			<g>
				<path class="st0" d="M12.5,38.9c0,1.7,3.1,3.1,6.9,3.1s6.9-1.4,6.9-3.1"/>
				<path d="M19.4,42.5c-4.2,0-7.5-1.6-7.5-3.6H13c0,1.2,2.6,2.6,6.4,2.6s6.4-1.4,6.4-2.6h1.1C26.8,41,23.6,42.5,19.4,42.5z"/>
			</g>
			<g>
				<path class="st0" d="M12.5,35.8c0,1.7,3.1,3.1,6.9,3.1s6.9-1.4,6.9-3.1"/>
				<path d="M19.4,39.4c-4.2,0-7.5-1.6-7.5-3.6H13c0,1.2,2.6,2.6,6.4,2.6s6.4-1.4,6.4-2.6h1.1C26.8,37.9,23.6,39.4,19.4,39.4z"/>
			</g>
			<g>
				<ellipse class="st0" cx="19.4" cy="32.7" rx="6.9" ry="3.1"/>
				<path d="M19.4,36.4c-4.2,0-7.5-1.6-7.5-3.6c0-2.1,3.2-3.6,7.5-3.6s7.5,1.6,7.5,3.6C26.8,34.8,23.6,36.4,19.4,36.4z M19.4,30.2
					c-3.8,0-6.4,1.4-6.4,2.6c0,1.2,2.6,2.6,6.4,2.6s6.4-1.4,6.4-2.6C25.8,31.5,23.2,30.2,19.4,30.2z"/>
			</g>
			<g>
				<rect x="25.8" y="32.7" width="1.1" height="9.3"/>
			</g>
		</g>
		<g>
			<path class="st2" d="M33.2,64l-0.1-2.1c2.2-0.1,4.5-0.4,6.7-1l0.6,2C38,63.5,35.6,63.9,33.2,64z M26,63.4l-0.4-0.1
				c-2.2-0.5-4.4-1.1-6.5-2.1l0.8-1.9c1.9,0.9,4,1.5,6,1.9l0.4,0.1L26,63.4z M47.1,60.2l-1-1.9c2-1.1,3.9-2.4,5.6-3.8l1.4,1.6
				C51.2,57.7,49.2,59.1,47.1,60.2z M12.8,57.6c-1.9-1.4-3.7-3.1-5.3-5l1.6-1.4c1.5,1.7,3.1,3.3,4.9,4.6L12.8,57.6z M57.9,50.8
				l-1.7-1.2c1.3-1.8,2.4-3.8,3.3-5.9l1.9,0.8C60.5,46.7,59.3,48.9,57.9,50.8z M3.6,46.7c-1.1-2.1-2-4.4-2.6-6.8l2-0.5
				c0.6,2.2,1.4,4.3,2.4,6.3L3.6,46.7z M63.5,37.6l-2.1-0.4c0.3-1.7,0.5-3.5,0.5-5.2c0-0.5,0-1,0-1.5l2.1-0.1c0,0.5,0,1.1,0,1.6
				C64,33.8,63.8,35.7,63.5,37.6z M0,32.8c0-0.2,0-0.5,0-0.7c0-2.2,0.2-4.3,0.7-6.5L2.7,26c-0.4,2-0.6,4-0.6,6.1c0,0.2,0,0.5,0,0.7
				L0,32.8z M60.8,23.8c-0.6-2.2-1.5-4.3-2.6-6.2l1.8-1c1.2,2.1,2.1,4.4,2.8,6.7L60.8,23.8z M4.2,21.1l-2-0.8c0.9-2.2,2-4.4,3.4-6.4
				l1.7,1.2C6.1,17,5,19,4.2,21.1z M54.3,12.1c-1.5-1.7-3.2-3.2-5-4.5l1.2-1.7c2,1.4,3.8,3,5.4,4.8L54.3,12.1z M11.8,10l-1.4-1.5
				c1.8-1.6,3.7-3.1,5.8-4.3l1,1.8C15.2,7.1,13.4,8.5,11.8,10z M43.3,4.3c-1.7-0.7-3.5-1.2-5.3-1.6c-0.4-0.1-0.8-0.2-1.2-0.2
				l0.3-2.1c0.4,0.1,0.9,0.2,1.3,0.2c1.9,0.4,3.8,1,5.7,1.7L43.3,4.3z M23.4,3.4l-0.6-2c2.3-0.7,4.7-1.1,7.1-1.3l0.1,2.1
				C27.8,2.3,25.6,2.7,23.4,3.4z"/>
		</g>
	</g>
	<g>
		<g>
			<path d="M60.1,4.5l-2.3,1.5l-0.6-1.1l2.5-1.3l-2.5-1.3l0.6-1.1l2.3,1.5L60,0h1.2l-0.1,2.8l2.3-1.5L64,2.3l-2.5,1.3L64,4.9
				l-0.6,1.1l-2.3-1.5l0.1,2.8H60L60.1,4.5z"/>
		</g>
	</g>
</g>
</svg>
