<?xml version="1.0" encoding="utf-8"?>
<!-- Generator: Adobe Illustrator 25.4.1, SVG Export Plug-In . SVG Version: 6.00 Build 0)  -->
<svg version="1.1" id="Layer_1" xmlns="http://www.w3.org/2000/svg" xmlns:xlink="http://www.w3.org/1999/xlink" x="0px" y="0px"
	 viewBox="0 0 64 64" style="enable-background:new 0 0 64 64;" xml:space="preserve">
<style type="text/css">
	.st0{fill:#FFFFFF;}
	.st1{fill:#EE9B64;}
</style>
<circle class="st0" cx="32" cy="32" r="32"/>
<g>
	<g>
		<path class="st1" d="M32,64c-4.7,0-9.4-1-13.7-3.1C10.5,57.2,4.7,50.7,1.9,42.7C-1,34.6-0.5,26,3.1,18.2
			C10.7,2.3,29.8-4.5,45.8,3.1s22.7,26.7,15.1,42.6l0,0c-3.7,7.7-10.1,13.5-18.2,16.4C39.2,63.4,35.6,64,32,64z M32.1,2.1
			c-11.2,0-21.9,6.3-27,17C1.6,26.3,1.2,34.5,3.8,42c2.7,7.5,8.1,13.6,15.3,17c7.2,3.4,15.3,3.8,22.8,1.2c7.5-2.7,13.6-8.1,17-15.3
			l0,0C66.1,30,59.7,12.1,44.9,5C40.7,3,36.4,2.1,32.1,2.1z"/>
	</g>
	<g>
		<g>
			<path d="M35,50.9H19c-1.4,0-2.5-1.1-2.5-2.5V27.9c0-1.4,1.1-2.5,2.5-2.5h16c1.4,0,2.5,1.1,2.5,2.5v20.5
				C37.5,49.8,36.4,50.9,35,50.9z M19,26.4c-0.8,0-1.5,0.7-1.5,1.5v20.5c0,0.8,0.7,1.5,1.5,1.5h16c0.8,0,1.5-0.7,1.5-1.5V27.9
				c0-0.8-0.7-1.5-1.5-1.5H19z"/>
		</g>
		<g>
			<g>
				<path d="M24.2,45.5c-0.1,0-0.3,0-0.4-0.1c-0.2-0.2-0.2-0.5,0-0.7l5.6-5.8c0.2-0.2,0.5-0.2,0.7,0c0.2,0.2,0.2,0.5,0,0.7l-5.6,5.8
					C24.5,45.4,24.3,45.5,24.2,45.5z"/>
			</g>
		</g>
		<g>
			<g>
				<path d="M29.8,45.5c-0.1,0-0.3-0.1-0.4-0.2l-5.6-5.8c-0.2-0.2-0.2-0.5,0-0.7c0.2-0.2,0.5-0.2,0.7,0l5.6,5.8
					c0.2,0.2,0.2,0.5,0,0.7C30,45.4,29.9,45.5,29.8,45.5z"/>
			</g>
		</g>
		<g>
			<g>
				<path class="st0" d="M43.4,12.3H29.6c-1.1,0-2,0.9-2,2v20.5c0,1.1,0.9,2,2,2h16c1.1,0,2-0.9,2-2V16.4c0-0.2-0.1-0.3-0.2-0.5
					l-3.5-3.5C43.8,12.4,43.6,12.3,43.4,12.3z"/>
				<path d="M45.6,37.4h-16c-1.4,0-2.5-1.1-2.5-2.5V14.3c0-1.4,1.1-2.5,2.5-2.5h13.9c0.3,0,0.6,0.1,0.8,0.3l3.5,3.5
					c0.2,0.2,0.3,0.5,0.3,0.8v18.4C48.1,36.2,47,37.4,45.6,37.4z M29.6,12.8c-0.8,0-1.5,0.7-1.5,1.5v20.5c0,0.8,0.7,1.5,1.5,1.5h16
					c0.8,0,1.5-0.7,1.5-1.5V16.4l-3.6-3.6H29.6z"/>
			</g>
			<g>
				<path d="M47.6,16.8h-2.1c-1.4,0-2.5-1.2-2.5-2.6v-1.9c0-0.3,0.2-0.5,0.5-0.5c0.3,0,0.5,0.2,0.5,0.5v1.9c0,0.8,0.7,1.5,1.5,1.5
					h2.1c0.3,0,0.5,0.2,0.5,0.5S47.8,16.8,47.6,16.8z"/>
			</g>
		</g>
		<g>
			<g>
				<path d="M41.7,20h-8.1c-0.3,0-0.5-0.2-0.5-0.5s0.2-0.5,0.5-0.5h8.1c0.3,0,0.5,0.2,0.5,0.5S41.9,20,41.7,20z"/>
			</g>
			<g>
				<path d="M41.7,23.2h-8.2c-0.3,0-0.5-0.2-0.5-0.5c0-0.3,0.2-0.5,0.5-0.5h8.2c0.3,0,0.5,0.2,0.5,0.5C42.2,23,41.9,23.2,41.7,23.2z
					"/>
			</g>
		</g>
		<g>
			<g>
				<path d="M37.5,32.5l-2.7-3.1c-0.2-0.2-0.2-0.5,0-0.7c0.2-0.2,0.5-0.2,0.7,0l1.9,2.1l3.8-4.6c0.2-0.2,0.5-0.3,0.7-0.1
					c0.2,0.2,0.3,0.5,0.1,0.7L37.5,32.5z"/>
			</g>
		</g>
	</g>
</g>
</svg>
