<?xml version="1.0" encoding="utf-8"?>
<!-- Generator: Adobe Illustrator 25.4.1, SVG Export Plug-In . SVG Version: 6.00 Build 0)  -->
<svg version="1.1" id="Layer_1" xmlns="http://www.w3.org/2000/svg" xmlns:xlink="http://www.w3.org/1999/xlink" x="0px" y="0px"
	 viewBox="0 0 64 64" style="enable-background:new 0 0 64 64;" xml:space="preserve">
<style type="text/css">
	.st0{fill:#FFFFFF;}
	.st1{fill:#231F20;}
	.st2{fill:#060256;}
</style>
<circle class="st0" cx="32" cy="32" r="32"/>
<g>
	<g>
		<g>
			<path class="st1" d="M20.5,54V43.4h-2.9c-2.2,0-4-2-4-4.4V19.5c0-2.4,1.8-4.4,4-4.4h28.5c2.2,0,4,2,4,4.4V39c0,2.4-1.8,4.4-4,4.4
				H29.7L20.5,54z M17.6,16.1c-1.6,0-3,1.5-3,3.4V39c0,1.9,1.3,3.4,3,3.4h4v8.8l7.7-8.8h16.9c1.6,0,3-1.5,3-3.4V19.5
				c0-1.9-1.3-3.4-3-3.4H17.6z"/>
		</g>
		<g>
			<g>
				<g>
					<path class="st1" d="M26.6,27.7c-2.5,0-4.5-2-4.5-4.5s2-4.5,4.5-4.5s4.5,2,4.5,4.5S29.1,27.7,26.6,27.7z M26.6,19.7
						c-1.9,0-3.4,1.5-3.4,3.4s1.5,3.4,3.4,3.4s3.4-1.5,3.4-3.4S28.5,19.7,26.6,19.7z"/>
				</g>
				<g>
					<path class="st1" d="M32.9,39H20.4c-1.1,0-1.9-0.9-1.9-1.9v-2.6c0-3.5,2.9-6.4,6.4-6.4h3.6c3.5,0,6.4,2.9,6.4,6.4V37
						C34.9,38.1,34,39,32.9,39z M24.8,29c-3,0-5.4,2.4-5.4,5.4V37c0,0.5,0.4,0.9,0.9,0.9h12.6c0.5,0,0.9-0.4,0.9-0.9v-2.6
						c0-3-2.4-5.4-5.4-5.4H24.8z"/>
				</g>
			</g>
			<g>
				<g>
					<g>
						<path class="st1" d="M40.7,37.1l-0.2,0c-4.9-1.5-5.4-6.8-5-9.6l0.1-0.4l0.4-0.1c0.4,0,3-0.8,4.3-1.8l0.3-0.2l0.4,0.2
							c1.3,1,3.9,1.7,4.3,1.8l0.4,0l0.1,0.4c0.5,2.9-0.1,8.1-5,9.7L40.7,37.1z M36.5,27.9c-0.2,1.4-0.4,6.6,4.2,8.1
							c4.5-1.5,4.3-6.6,4.2-8.1c-0.9-0.2-2.9-0.9-4.2-1.7C39.3,27,37.4,27.7,36.5,27.9z M40.6,25.5L40.6,25.5L40.6,25.5z"/>
					</g>
				</g>
				<g>
					<rect x="40.1" y="25.5" class="st1" width="1.1" height="11"/>
				</g>
			</g>
		</g>
	</g>
	<g>
		<path class="st2" d="M32,64c-2.1,0-4.3-0.2-6.4-0.7C17.2,61.6,10,56.7,5.3,49.6c-4.7-7.1-6.3-15.7-4.6-24l0,0
			C2.4,17.2,7.3,10,14.4,5.3c7.1-4.7,15.7-6.3,24-4.6c17.3,3.6,28.4,20.5,24.9,37.8C60.2,53.6,46.9,64,32,64z M2.7,26L2.7,26
			C1.1,33.8,2.7,41.8,7,48.5c4.4,6.7,11.1,11.2,18.9,12.8c16.1,3.3,32-7.1,35.3-23.3C64.6,21.9,54.2,6,38,2.7
			C30.2,1.1,22.2,2.7,15.6,7C8.9,11.4,4.3,18.2,2.7,26z"/>
	</g>
</g>
</svg>
