<?xml version="1.0" encoding="utf-8"?>
<!-- Generator: Adobe Illustrator 25.4.1, SVG Export Plug-In . SVG Version: 6.00 Build 0)  -->
<svg version="1.1" id="Layer_1" xmlns="http://www.w3.org/2000/svg" xmlns:xlink="http://www.w3.org/1999/xlink" x="0px" y="0px"
	 viewBox="0 0 64 64" style="enable-background:new 0 0 64 64;" xml:space="preserve">
<style type="text/css">
	.st0{fill:#FFFFFF;}
	.st1{fill:#C09036;}
	.st2{fill:#D1D3D4;}
</style>
<circle class="st0" cx="32" cy="32" r="32"/>
<g>
	<g>
		<g>
			<path class="st1" d="M32,64c-4.7,0-9.4-1-13.7-3.1C10.5,57.2,4.7,50.7,1.9,42.7s-2.4-16.7,1.3-24.4C10.7,2.3,29.8-4.5,45.7,3.1
				c7.7,3.7,13.5,10.1,16.4,18.2c2.9,8.1,2.4,16.7-1.3,24.4l0,0c-3.7,7.7-10.1,13.5-18.2,16.4C39.2,63.4,35.6,64,32,64z M32,2.1
				c-11.2,0-21.9,6.3-27,17C1.6,26.3,1.2,34.5,3.8,42c2.7,7.5,8.1,13.6,15.3,17c7.2,3.4,15.3,3.9,22.8,1.2c7.5-2.7,13.6-8.1,17-15.3
				l0,0c3.4-7.2,3.9-15.3,1.2-22.8c-2.7-7.5-8.1-13.6-15.3-17C40.7,3,36.3,2.1,32,2.1z"/>
		</g>
		<g>
			<g>
				<g>
					<path d="M41.2,50.1H22.3c-1.1,0-2.1-1-2.1-2.2l-2-28.6c0-0.3,0.1-0.6,0.3-0.8c0.2-0.2,0.5-0.4,0.8-0.4h24.8
						c0.3,0,0.6,0.1,0.8,0.4c0.2,0.2,0.3,0.5,0.3,0.8l-2,28.6C43.2,49.1,42.3,50.1,41.2,50.1z M19.3,19.2
						C19.3,19.2,19.3,19.2,19.3,19.2l1.9,28.7c0,0.7,0.5,1.2,1,1.2h18.9c0.6,0,1-0.5,1-1.1l2-28.7L19.3,19.2z"/>
				</g>
				<g>
					<path d="M35.8,45.9C35.8,45.9,35.8,45.9,35.8,45.9c-0.3,0-0.5-0.3-0.5-0.6l2-23.5c0-0.3,0.3-0.5,0.6-0.5c0.3,0,0.5,0.3,0.5,0.6
						l-2,23.5C36.3,45.7,36.1,45.9,35.8,45.9z"/>
				</g>
				<g>
					<path d="M27.7,45.9c-0.3,0-0.5-0.2-0.5-0.5l-1.9-23.5c0-0.3,0.2-0.5,0.5-0.6c0.3,0,0.5,0.2,0.6,0.5l1.9,23.5
						C28.2,45.6,28,45.9,27.7,45.9C27.7,45.9,27.7,45.9,27.7,45.9z"/>
				</g>
			</g>
			<g>
				<g>
					<path d="M36.6,19.2h-9.7v-0.5c0-2.7,2.2-4.8,4.8-4.8c2.7,0,4.8,2.2,4.8,4.8V19.2z M28,18.1h7.5c-0.3-1.8-1.8-3.3-3.7-3.3
						C29.8,14.9,28.2,16.3,28,18.1z"/>
				</g>
				<g>
					<path d="M47.3,19.2H16.2c-0.3,0-0.5-0.2-0.5-0.5c0-0.3,0.2-0.5,0.5-0.5h31.1c0.3,0,0.5,0.2,0.5,0.5
						C47.8,19,47.5,19.2,47.3,19.2z"/>
				</g>
			</g>
		</g>
		<g>
			<g>
				<path class="st2" d="M33.2,63.9l-0.1-2.1c2.2-0.1,4.5-0.4,6.7-1l0.5,2C38,63.5,35.6,63.9,33.2,63.9z M26,63.4l-0.4-0.1
					c-2.2-0.5-4.4-1.1-6.5-2.1l0.8-1.9c1.9,0.8,4,1.5,6,1.9l0.4,0.1L26,63.4z M47.1,60.2l-1-1.9c2-1.1,3.9-2.4,5.6-3.8l1.4,1.6
					C51.2,57.7,49.2,59.1,47.1,60.2z M12.9,57.6c-1.9-1.4-3.7-3.1-5.3-5l1.6-1.4c1.5,1.7,3.1,3.3,4.9,4.6L12.9,57.6z M57.9,50.8
					l-1.7-1.2c1.3-1.8,2.4-3.8,3.3-5.9l1.9,0.8C60.5,46.7,59.3,48.8,57.9,50.8z M3.6,46.7c-1.1-2.1-2-4.4-2.6-6.8l2-0.5
					c0.6,2.2,1.4,4.3,2.4,6.3L3.6,46.7z M63.5,37.5l-2.1-0.4c0.3-1.7,0.5-3.5,0.5-5.2c0-0.5,0-1,0-1.5l2.1-0.1c0,0.5,0,1.1,0,1.6
					C64,33.8,63.8,35.7,63.5,37.5z M0,32.7c0-0.2,0-0.5,0-0.7c0-2.2,0.2-4.3,0.7-6.5L2.7,26c-0.4,2-0.6,4-0.6,6c0,0.2,0,0.5,0,0.7
					L0,32.7z M60.7,23.8c-0.6-2.2-1.5-4.3-2.6-6.2l1.8-1c1.2,2.1,2.1,4.4,2.8,6.7L60.7,23.8z M4.2,21.1l-2-0.8
					c0.9-2.2,2-4.4,3.4-6.4l1.7,1.2C6.1,17,5,19,4.2,21.1z M54.3,12c-1.5-1.7-3.2-3.2-5-4.5l1.2-1.7c2,1.4,3.8,3,5.4,4.8L54.3,12z
					 M11.8,10l-1.4-1.5c1.8-1.6,3.7-3.1,5.8-4.3l1,1.8C15.2,7.1,13.4,8.5,11.8,10z M43.3,4.3c-1.7-0.7-3.5-1.2-5.3-1.6
					c-0.4-0.1-0.8-0.2-1.2-0.2l0.3-2.1c0.4,0.1,0.9,0.2,1.3,0.2c1.9,0.4,3.8,1,5.7,1.7L43.3,4.3z M23.4,3.4l-0.6-2
					c2.3-0.7,4.7-1.1,7.1-1.3l0.1,2.1C27.8,2.3,25.6,2.7,23.4,3.4z"/>
			</g>
		</g>
	</g>
	<g>
		<g>
			<path d="M60,4.5L57.6,6L57,5l2.5-1.3L57,2.4l0.6-1.1L60,2.8l-0.1-2.8h1.2L61,2.8l2.3-1.5l0.6,1.1l-2.5,1.3L63.9,5L63.3,6L61,4.5
				l0.1,2.8h-1.2L60,4.5z"/>
		</g>
	</g>
</g>
</svg>
