<svg id="Layer_1" data-name="Layer 1" xmlns="http://www.w3.org/2000/svg" viewBox="0 0 64 64"><defs><style>.cls-1{fill:#fff;}.cls-2{fill:#faccfa;}</style></defs><circle class="cls-1" cx="32" cy="32" r="32"/><path class="cls-2" d="M32,64A32.08,32.08,0,1,1,42.7,62.14,32,32,0,0,1,32,64ZM32,2.05A29.94,29.94,0,1,0,59,44.87h0A30,30,0,0,0,32,2.05Z" transform="translate(0 0)"/><path d="M45.61,48.36H18.39a2.57,2.57,0,0,1-2.57-2.56V20.5a2.57,2.57,0,0,1,2.57-2.56H45.61a2.56,2.56,0,0,1,2.56,2.56V45.8A2.56,2.56,0,0,1,45.61,48.36ZM18.39,19a1.54,1.54,0,0,0-1.54,1.54V45.8a1.54,1.54,0,0,0,1.54,1.54H45.61a1.54,1.54,0,0,0,1.54-1.54V20.5A1.54,1.54,0,0,0,45.61,19Z" transform="translate(0 0)"/><rect x="16.34" y="24.78" width="31.32" height="1.02"/><path d="M24.4,20.84a.51.51,0,0,1-.51-.51V16.15a.51.51,0,0,1,1,0v4.18A.51.51,0,0,1,24.4,20.84Z" transform="translate(0 0)"/><path d="M39.6,20.84a.51.51,0,0,1-.51-.51V16.15a.51.51,0,0,1,1,0v4.18A.51.51,0,0,1,39.6,20.84Z" transform="translate(0 0)"/><path d="M32.88,41.75a.51.51,0,0,1-.51-.51V32.38l-2.08,1.89a.51.51,0,0,1-.72,0,.52.52,0,0,1,0-.73l3.8-3.45V41.24A.51.51,0,0,1,32.88,41.75Z" transform="translate(0 0)"/></svg>