<?xml version="1.0" encoding="utf-8"?>
<!-- Generator: Adobe Illustrator 25.4.1, SVG Export Plug-In . SVG Version: 6.00 Build 0)  -->
<svg version="1.1" id="Layer_1" xmlns="http://www.w3.org/2000/svg" xmlns:xlink="http://www.w3.org/1999/xlink" x="0px" y="0px"
	 viewBox="0 0 64 64" style="enable-background:new 0 0 64 64;" xml:space="preserve">
<style type="text/css">
	.st0{fill:#FFFFFF;}
	.st1{fill:#FACCFA;}
	.st2{fill:#262626;}
</style>
<circle class="st0" cx="32" cy="32" r="32"/>
<g>
	<g>
		<path class="st1" d="M31.9,64c-6.7,0-13.2-2.1-18.7-6.1c-6.9-5-11.5-12.4-12.9-20.8c-1.4-8.4,0.6-16.9,5.7-23.8
			c5-6.9,12.4-11.5,20.8-12.8c17.4-2.8,33.9,9.1,36.7,26.5c2.8,17.4-9.1,33.9-26.5,36.7C35.4,63.9,33.6,64,31.9,64z M32.1,2
			c-1.6,0-3.2,0.1-4.8,0.4C10.9,5.1-0.2,20.5,2.4,36.8c1.3,7.9,5.5,14.8,12,19.5c6.5,4.7,14.4,6.6,22.3,5.3
			c16.3-2.6,27.4-18,24.8-34.3c-1.3-7.9-5.5-14.8-12-19.5C44.4,4,38.3,2,32.1,2z"/>
	</g>
	<g>
		<g>
			<path class="st0" d="M39.3,27.4h6.1c0.7,0,1.3,0.8,1.3,1.4c0,0,0,0.7,0,0.7"/>
			<path class="st2" d="M46.8,30c-0.3,0-0.5-0.2-0.5-0.5l0-0.7c0-0.3-0.4-0.9-0.8-0.9h-6.1c-0.3,0-0.5-0.2-0.5-0.5s0.2-0.5,0.5-0.5
				h6.1c1,0,1.8,1,1.9,1.9l0,0.7C47.3,29.7,47.1,30,46.8,30z"/>
		</g>
		<g>
			<path class="st2" d="M45.4,48H18.3c-0.8,0-1.4-0.6-1.4-1.4V24.4c0-0.9,0.7-1.7,1.6-1.7h2.5c0.3,0,0.5,0.2,0.5,0.5
				s-0.2,0.5-0.5,0.5h-2.5c-0.3,0-0.6,0.3-0.6,0.7v22.2c0,0.1,0,0.1,0,0.2c0,0,0,0,0,0c1.6-4,4.9-16.3,4.9-16.4
				c0.3-0.8,0.6-1.4,1.8-1.4h27.2c0.2,0,0.4,0.1,0.6,0.4c0.3,0.4,0.4,0.9,0.3,1.3l-6,16.2C46.6,47.6,46.1,48,45.4,48z M19,47h26.4
				c0.1,0,0.3-0.2,0.4-0.6l6-16.1c0-0.1-0.1-0.2-0.2-0.3H24.7c-0.6,0-0.7,0.1-0.9,0.7C23.8,31.1,20.7,42.7,19,47z M18,46.9
				C18,46.9,18,46.9,18,46.9L18,46.9C18,46.9,18,46.9,18,46.9z"/>
		</g>
		<g>
			<path class="st2" d="M21.1,39.4L21.1,39.4c-0.3,0-0.5-0.2-0.5-0.5l0-21.5c0-0.8,0.7-1.4,1.5-1.4h16.3c0.8,0,1.5,0.6,1.5,1.4
				l0,12.1c0,0.3-0.2,0.5-0.5,0.5c-0.3,0-0.5-0.2-0.5-0.5l0-12.1c0-0.2-0.2-0.4-0.5-0.4H22.1c-0.3,0-0.5,0.2-0.5,0.4l0,21.5
				C21.6,39.2,21.4,39.4,21.1,39.4z"/>
		</g>
		<g>
			<path d="M32.6,20.2h-1.1c0-0.3-0.1-0.5-0.2-0.7c-0.2-0.2-0.4-0.3-0.7-0.3c-0.2,0-0.4,0-0.5,0.1c-0.1,0.1-0.2,0.2-0.3,0.3
				c-0.1,0.1-0.1,0.2-0.1,0.4c0,0.1,0,0.3,0.1,0.4c0.1,0.1,0.2,0.2,0.3,0.3c0.1,0.1,0.2,0.2,0.4,0.2l1.5,0.8
				c0.1,0.1,0.2,0.1,0.4,0.2c0.1,0.1,0.3,0.2,0.4,0.3c0.1,0.1,0.2,0.3,0.3,0.5c0.1,0.2,0.1,0.4,0.1,0.7c0,0.2-0.1,0.4-0.2,0.6
				c-0.1,0.2-0.2,0.3-0.4,0.5c-0.2,0.1-0.3,0.2-0.5,0.3l0,0c0.2,0.2,0.3,0.4,0.4,0.6c0.1,0.2,0.1,0.5,0.1,0.7c0,0.4-0.1,0.7-0.3,1
				c-0.2,0.3-0.4,0.5-0.8,0.6c-0.3,0.1-0.7,0.2-1,0.2c-0.4,0-0.8-0.1-1.1-0.2c-0.3-0.2-0.6-0.4-0.8-0.7c-0.2-0.3-0.3-0.7-0.3-1.1
				h1.1c0,0.3,0.1,0.6,0.3,0.8c0.2,0.2,0.5,0.3,0.8,0.3c0.3,0,0.5-0.1,0.7-0.2c0.2-0.1,0.3-0.3,0.3-0.6c0-0.2,0-0.3-0.1-0.4
				c-0.1-0.1-0.2-0.2-0.3-0.3c-0.1-0.1-0.2-0.2-0.4-0.2l-1.5-0.8c-0.1-0.1-0.2-0.1-0.4-0.2c-0.1-0.1-0.3-0.2-0.4-0.4
				c-0.1-0.1-0.2-0.3-0.3-0.5c-0.1-0.2-0.1-0.4-0.1-0.7c0-0.2,0.1-0.4,0.2-0.6c0.1-0.2,0.2-0.3,0.4-0.5c0.2-0.1,0.3-0.2,0.5-0.3v0
				c-0.2-0.2-0.3-0.4-0.4-0.6c-0.1-0.2-0.2-0.5-0.2-0.7c0-0.3,0.1-0.6,0.3-0.9c0.2-0.3,0.4-0.5,0.7-0.6c0.3-0.2,0.6-0.2,1-0.2
				c0.4,0,0.8,0.1,1.1,0.3c0.3,0.2,0.5,0.4,0.7,0.7C32.5,19.4,32.6,19.8,32.6,20.2z M32.1,23.5c0-0.1,0-0.2-0.1-0.4
				c-0.1-0.1-0.1-0.2-0.3-0.3c-0.1-0.1-0.2-0.2-0.4-0.2l-1.4-0.8c-0.1-0.1-0.2-0.1-0.4,0c-0.1,0.1-0.2,0.1-0.3,0.3
				c-0.1,0.1-0.1,0.3-0.1,0.5c0,0.2,0.1,0.4,0.2,0.5c0.1,0.1,0.3,0.3,0.5,0.4l1.4,0.7c0.1,0.1,0.2,0.1,0.4,0c0.1,0,0.3-0.1,0.4-0.3
				C32,23.8,32,23.6,32.1,23.5z"/>
		</g>
	</g>
</g>
</svg>
