<?xml version="1.0" encoding="utf-8"?>
<!-- Generator: Adobe Illustrator 25.4.1, SVG Export Plug-In . SVG Version: 6.00 Build 0)  -->
<svg version="1.1" id="Layer_1" xmlns="http://www.w3.org/2000/svg" xmlns:xlink="http://www.w3.org/1999/xlink" x="0px" y="0px"
	 viewBox="0 0 64 64" style="enable-background:new 0 0 64 64;" xml:space="preserve">
<style type="text/css">
	.st0{fill:#FFFFFF;}
	.st1{fill:none;stroke:#000000;stroke-width:2;stroke-linecap:round;stroke-miterlimit:10;}
	.st2{fill:#FDB6BA;}
</style>
<circle class="st0" cx="32" cy="32" r="32"/>
<g>
	<g>
		<path class="st1" d="M19.6,56"/>
	</g>
	<g>
		<path class="st2" d="M32,64c-5.3,0-10.6-1.4-15.4-4C9.1,55.9,3.6,49.1,1.3,40.9C-1.1,32.6-0.1,24,4,16.5
			C8.1,9.1,14.9,3.6,23.1,1.3C31.4-1.1,40-0.1,47.5,4c7.5,4.1,12.9,10.9,15.3,19.1c2.4,8.2,1.4,16.8-2.7,24.3S49.1,60.4,40.9,62.7
			C37.9,63.6,34.9,64,32,64z M32,2.1c-2.8,0-5.6,0.4-8.3,1.2c-15.8,4.6-25,21.2-20.4,37s21.2,25,37,20.4c7.7-2.2,14-7.3,17.9-14.3
			c3.9-7,4.8-15.1,2.6-22.7c-2.2-7.7-7.3-14-14.3-17.9C42,3.4,37,2.1,32,2.1z"/>
	</g>
	<g>
		<g>
			<g>
				<path d="M47.5,38.7h-1.9c-0.4,0-0.7-0.3-0.7-0.8l-0.1-1.2c-0.7-0.2-1.3-0.4-2-0.8l-0.9,0.8c-0.1,0.1-0.3,0.2-0.5,0.2
					c-0.2,0-0.4-0.1-0.6-0.2l-1.4-1.4c-0.1-0.1-0.2-0.3-0.2-0.5c0-0.2,0.1-0.4,0.2-0.5l0.8-0.9c-0.4-0.6-0.6-1.3-0.8-2l-1.2-0.1
					c0,0,0,0,0,0c-0.4,0-0.7-0.3-0.7-0.7v-1.9c0-0.4,0.3-0.7,0.8-0.7l1.2-0.1c0.2-0.7,0.4-1.3,0.8-2L39.4,25c-0.3-0.3-0.3-0.7,0-1
					l1.4-1.4c0.3-0.3,0.8-0.3,1.1,0l0.9,0.8c0.6-0.4,1.3-0.6,2-0.8l0.1-1.2c0-0.4,0.3-0.7,0.7-0.7h1.9c0.4,0,0.7,0.3,0.7,0.8
					l0.1,1.2c0.7,0.2,1.3,0.4,2,0.8l0.9-0.8c0.1-0.1,0.3-0.2,0.5-0.2c0.2,0,0.4,0.1,0.5,0.2l1.4,1.4c0.3,0.3,0.3,0.8,0,1.1L52.7,26
					c0.4,0.6,0.6,1.3,0.8,2l1.2,0.1c0.4,0,0.7,0.3,0.7,0.7v1.9c0,0.4-0.3,0.7-0.8,0.7l-1.2,0.1c-0.2,0.7-0.4,1.3-0.8,2l0.8,0.9
					c0.1,0.1,0.2,0.3,0.2,0.5c0,0.2-0.1,0.4-0.2,0.5l-1.4,1.4c-0.3,0.3-0.8,0.3-1.1,0L50.2,36c-0.6,0.4-1.3,0.6-2,0.8L48.2,38
					C48.2,38.4,47.9,38.7,47.5,38.7z M47.1,37.9C47.1,37.9,47.1,37.9,47.1,37.9L47.1,37.9z M45.8,37.9L45.8,37.9
					C45.8,37.9,45.8,37.9,45.8,37.9z M45.8,37.6h1.3l0.1-1.8l0.4-0.1c0.8-0.2,1.6-0.5,2.3-1l0.3-0.2l1.3,1.2l0.9-0.9l-1.2-1.3
					l0.2-0.3c0.5-0.7,0.8-1.5,1-2.3l0.1-0.4l1.8-0.1V29l-1.8-0.1l-0.1-0.4c-0.2-0.8-0.5-1.6-1-2.3l-0.2-0.3l1.2-1.3l-0.9-0.9
					l-1.3,1.2L50,24.5c-0.7-0.5-1.5-0.8-2.3-1l-0.4-0.1l-0.1-1.8h-1.3l-0.1,1.8l-0.4,0.1c-0.8,0.2-1.6,0.5-2.3,1l-0.3,0.2l-1.3-1.2
					l-0.9,0.9l1.2,1.3l-0.2,0.3c-0.5,0.7-0.8,1.5-1,2.3l-0.1,0.4L38.5,29v1.3l1.8,0.1l0.1,0.4c0.2,0.8,0.5,1.6,1,2.3l0.2,0.3
					l-1.2,1.3l0.9,0.9l1.3-1.2l0.3,0.2c0.7,0.5,1.5,0.8,2.3,1l0.4,0.1L45.8,37.6z M41.5,36L41.5,36C41.5,36,41.5,36,41.5,36z
					 M41.1,36C41.1,36,41.1,36,41.1,36L41.1,36z M51.8,35.9L51.8,35.9C51.8,36,51.8,36,51.8,35.9z M52.8,35
					C52.8,35.1,52.8,35.1,52.8,35L52.8,35z M40.2,35L40.2,35C40.2,35,40.2,35,40.2,35z M52.8,34.6C52.8,34.6,52.8,34.6,52.8,34.6
					L52.8,34.6z M40.2,34.6L40.2,34.6C40.2,34.6,40.2,34.6,40.2,34.6z M54.7,30.3C54.7,30.3,54.7,30.3,54.7,30.3L54.7,30.3
					C54.7,30.3,54.7,30.3,54.7,30.3z M38.2,30.3L38.2,30.3C38.3,30.3,38.3,30.3,38.2,30.3z M38.3,29L38.3,29
					C38.3,29,38.3,29,38.3,29z M52.8,24.3C52.7,24.4,52.7,24.4,52.8,24.3L52.8,24.3z M40.2,24.3L40.2,24.3
					C40.2,24.3,40.2,24.3,40.2,24.3z M41.1,23.4C41.1,23.4,41.2,23.4,41.1,23.4L41.1,23.4z M51.9,23.4L51.9,23.4
					C51.8,23.4,51.9,23.4,51.9,23.4z M41.5,23.4L41.5,23.4C41.5,23.4,41.5,23.4,41.5,23.4z M47.1,21.5
					C47.1,21.5,47.1,21.5,47.1,21.5L47.1,21.5z M45.8,21.5L45.8,21.5C45.8,21.5,45.8,21.5,45.8,21.5z"/>
			</g>
			<g>
				<path d="M46.5,34.6c-2.7,0-4.9-2.2-4.9-4.9s2.2-4.9,4.9-4.9c2.7,0,4.9,2.2,4.9,4.9S49.2,34.6,46.5,34.6z M46.5,25.9
					c-2.1,0-3.8,1.7-3.8,3.8c0,2.1,1.7,3.8,3.8,3.8c2.1,0,3.8-1.7,3.8-3.8C50.3,27.6,48.6,25.9,46.5,25.9z"/>
			</g>
			<g>
				<path d="M46.5,34.6c-2.7,0-4.9-2.2-4.9-4.9s2.2-4.9,4.9-4.9c2.7,0,4.9,2.2,4.9,4.9S49.2,34.6,46.5,34.6z M46.5,25.9
					c-2.1,0-3.8,1.7-3.8,3.8c0,2.1,1.7,3.8,3.8,3.8c2.1,0,3.8-1.7,3.8-3.8C50.3,27.6,48.6,25.9,46.5,25.9z"/>
			</g>
		</g>
		<g>
			<g>
				<path d="M25.7,28.7c-4.1,0-7.4-3.3-7.4-7.4s3.3-7.4,7.4-7.4s7.4,3.3,7.4,7.4S29.7,28.7,25.7,28.7z M25.7,15.1
					c-3.5,0-6.3,2.8-6.3,6.3c0,3.5,2.8,6.3,6.3,6.3s6.3-2.8,6.3-6.3C32,17.9,29.1,15.1,25.7,15.1z"/>
			</g>
			<g>
				<path d="M36.5,47.4H14.8c-1.6,0-3-1.3-3-3v-4.5c0-5.9,4.8-10.7,10.7-10.7h6.2c5.9,0,10.7,4.8,10.7,10.7v4.5
					C39.5,46.1,38.2,47.4,36.5,47.4z M22.5,30.2c-5.3,0-9.7,4.3-9.7,9.7v4.5c0,1.1,0.9,1.9,1.9,1.9h21.7c1.1,0,1.9-0.9,1.9-1.9v-4.5
					c0-5.3-4.3-9.7-9.7-9.7H22.5z"/>
			</g>
		</g>
	</g>
</g>
</svg>
