<?xml version="1.0" encoding="utf-8"?>
<!-- Generator: Adobe Illustrator 25.4.1, SVG Export Plug-In . SVG Version: 6.00 Build 0)  -->
<svg version="1.1" id="Layer_1" xmlns="http://www.w3.org/2000/svg" xmlns:xlink="http://www.w3.org/1999/xlink" x="0px" y="0px"
	 viewBox="0 0 64 64" style="enable-background:new 0 0 64 64;" xml:space="preserve">
<style type="text/css">
	.st0{fill:#FFFFFF;}
	.st1{fill:#27635F;}
</style>
<circle class="st0" cx="32" cy="32" r="32"/>
<g>
	<g>
		<g>
			<g>
				<rect x="11.9" y="33.4" width="1.1" height="9.3"/>
			</g>
			<g>
				<path class="st0" d="M12.5,42.7c0,1.7,3.1,3.1,6.9,3.1s6.9-1.4,6.9-3.1"/>
				<path d="M19.4,46.3c-4.3,0-7.5-1.6-7.5-3.6H13c0,1.2,2.6,2.6,6.4,2.6s6.4-1.4,6.4-2.6h1.1C26.8,44.8,23.6,46.3,19.4,46.3z"/>
			</g>
			<g>
				<path class="st0" d="M12.5,39.6c0,1.7,3.1,3.1,6.9,3.1s6.9-1.4,6.9-3.1"/>
				<path d="M19.4,43.3c-4.3,0-7.5-1.6-7.5-3.6H13c0,1.2,2.6,2.6,6.4,2.6s6.4-1.4,6.4-2.6h1.1C26.8,41.7,23.6,43.3,19.4,43.3z"/>
			</g>
			<g>
				<path class="st0" d="M12.5,36.5c0,1.7,3.1,3.1,6.9,3.1s6.9-1.4,6.9-3.1"/>
				<path d="M19.4,40.2c-4.3,0-7.5-1.6-7.5-3.6H13c0,1.2,2.6,2.6,6.4,2.6s6.4-1.4,6.4-2.6h1.1C26.8,38.6,23.6,40.2,19.4,40.2z"/>
			</g>
			<g>
				<ellipse class="st0" cx="19.4" cy="33.4" rx="6.9" ry="3.1"/>
				<path d="M19.4,37.1c-4.3,0-7.5-1.6-7.5-3.6c0-2.1,3.2-3.6,7.5-3.6s7.5,1.6,7.5,3.6C26.8,35.5,23.6,37.1,19.4,37.1z M19.4,30.9
					c-3.8,0-6.4,1.4-6.4,2.6c0,1.2,2.6,2.6,6.4,2.6s6.4-1.4,6.4-2.6C25.8,32.2,23.2,30.9,19.4,30.9z"/>
			</g>
			<g>
				<rect x="25.8" y="33.4" width="1.1" height="9.3"/>
			</g>
		</g>
		<g>
			<path class="st1" d="M32,64c-0.2,0-0.5,0-0.7,0c-8.5-0.2-16.5-3.7-22.4-9.9l0,0c-12.2-12.7-11.8-33,1-45.2C16,3,24.1-0.2,32.7,0
				c8.5,0.2,16.5,3.7,22.4,9.9C61,16,64.2,24.1,64,32.7c-0.2,8.5-3.7,16.5-9.9,22.4C48.1,60.9,40.3,64,32,64z M10.4,52.7
				c5.5,5.8,13,9,20.9,9.2c8,0.2,15.6-2.8,21.3-8.3c5.8-5.5,9-13,9.2-20.9c0.2-8-2.8-15.6-8.3-21.3c-5.5-5.8-13-9-20.9-9.2
				c-8-0.2-15.6,2.8-21.3,8.3C-0.6,21.8-1,40.8,10.4,52.7L10.4,52.7z"/>
		</g>
		<g>
			<g>
				<path d="M45.3,47.4c-5.2,0-9.4-4.2-9.4-9.4c0-5.2,4.2-9.4,9.4-9.4s9.4,4.2,9.4,9.4C54.7,43.2,50.5,47.4,45.3,47.4z M45.3,29.8
					c-4.6,0-8.3,3.7-8.3,8.3s3.7,8.3,8.3,8.3s8.3-3.7,8.3-8.3S49.9,29.8,45.3,29.8z"/>
			</g>
			<g>
				<path d="M45.3,47.4c-2.8,0-5-4.1-5-9.4c0-5.2,2.2-9.4,5-9.4s5,4.1,5,9.4C50.3,43.3,48.1,47.4,45.3,47.4z M45.3,29.8
					c-2.1,0-3.9,3.8-3.9,8.3c0,4.5,1.8,8.3,3.9,8.3c2.1,0,3.9-3.8,3.9-8.3C49.2,33.6,47.4,29.8,45.3,29.8z"/>
			</g>
			<g>
				<rect x="37.5" y="33.3" width="15.7" height="1.1"/>
			</g>
			<g>
				<rect x="37.5" y="41.8" width="15.7" height="1.1"/>
			</g>
			<g>
				<rect x="36.6" y="37.6" width="17.6" height="1.1"/>
			</g>
			<g>
				<rect x="44.8" y="29.3" width="1.1" height="17.6"/>
			</g>
		</g>
		<g>
			<g>
				<path class="st0" d="M45.3,26.5c-0.1,0.2-0.5,0.2-0.6,0L44,25.3l-0.7-1.2c-0.1-0.2,0-0.5,0.3-0.5l1.4,0l1.4,0
					c0.3,0,0.5,0.3,0.3,0.5L46,25.3L45.3,26.5z"/>
				<path d="M45,27.2c-0.3,0-0.6-0.2-0.8-0.4l-1.4-2.4c-0.2-0.3-0.2-0.6,0-0.9c0.2-0.3,0.5-0.4,0.8-0.4h2.8c0.3,0,0.6,0.2,0.8,0.4
					c0.2,0.3,0.2,0.6,0,0.9l-1.4,2.4C45.6,27,45.3,27.2,45,27.2z M43.9,24.1l1.1,1.9l1.1-1.9H43.9z"/>
			</g>
			<g>
				<path d="M20.2,25.6c-0.3,0-0.5-0.2-0.5-0.5l0-6.4c0-1.2,1-2.1,2.1-2.1h21.5c1.2,0,2.2,1,2.2,2.2v4.8c0,0.3-0.2,0.5-0.5,0.5
					s-0.5-0.2-0.5-0.5v-4.8c0-0.6-0.5-1.1-1.1-1.1H21.8c-0.6,0-1.1,0.5-1.1,1.1l0,6.4C20.7,25.4,20.5,25.6,20.2,25.6L20.2,25.6z"/>
			</g>
		</g>
	</g>
</g>
</svg>
