<?xml version="1.0" encoding="utf-8"?>
<!-- Generator: Adobe Illustrator 25.4.1, SVG Export Plug-In . SVG Version: 6.00 Build 0)  -->
<svg version="1.1" id="Layer_1" xmlns="http://www.w3.org/2000/svg" xmlns:xlink="http://www.w3.org/1999/xlink" x="0px" y="0px"
	 viewBox="0 0 64 64" style="enable-background:new 0 0 64 64;" xml:space="preserve">
<style type="text/css">
	.st0{fill:#FFFFFF;}
	.st1{fill:#FACCFA;}
</style>
<circle class="st0" cx="32" cy="32" r="32"/>
<g>
	<g>
		<path class="st1" d="M32,64C18.1,64,5.3,54.9,1.3,40.9l0,0c-4.9-17,4.9-34.7,21.9-39.6c17-4.9,34.7,4.9,39.6,21.9
			c4.9,17-4.9,34.7-21.9,39.6C37.9,63.6,34.9,64,32,64z M3.2,40.3c4.6,15.9,21.2,25,37.1,20.5c15.9-4.6,25-21.2,20.5-37.1
			C56.2,7.9,39.6-1.3,23.7,3.2C16,5.5,9.7,10.5,5.8,17.5S1,32.6,3.2,40.3L3.2,40.3z"/>
	</g>
	<g>
		<g>
			<g>
				<g>
					<path d="M21.9,37.9c-3.9,0-7.1-3-7.1-6.7v-0.5H29v0.5C29,34.9,25.8,37.9,21.9,37.9z M15.9,31.7c0.3,2.9,2.9,5.2,6,5.2
						s5.7-2.3,6-5.2H15.9z"/>
				</g>
				<g>
					<path d="M28.5,31.4c-0.2,0-0.4-0.1-0.5-0.3l-6.1-11.4l-6.1,11.4c-0.1,0.3-0.4,0.3-0.7,0.2c-0.3-0.1-0.3-0.4-0.2-0.7l6.4-12
						c0.2-0.4,0.9-0.4,1.2,0l6.4,12c0.1,0.3,0,0.6-0.2,0.7C28.6,31.3,28.6,31.4,28.5,31.4z"/>
				</g>
			</g>
			<g>
				<g>
					<path d="M42.1,37.9c-3.9,0-7.1-3-7.1-6.7v-0.5h14.1v0.5C49.1,34.9,46,37.9,42.1,37.9z M36.1,31.7c0.3,2.9,2.9,5.2,6,5.2
						c3.1,0,5.7-2.3,6-5.2H36.1z"/>
				</g>
				<g>
					<path d="M48.6,31.4c-0.2,0-0.4-0.1-0.5-0.3l-6.1-11.4L36,31.1c-0.1,0.3-0.4,0.3-0.7,0.2c-0.3-0.1-0.3-0.4-0.2-0.7l6.4-12
						c0.2-0.4,0.9-0.4,1.2,0l6.4,12c0.1,0.3,0,0.6-0.2,0.7C48.8,31.3,48.7,31.4,48.6,31.4z"/>
				</g>
			</g>
		</g>
		<g>
			<path d="M42.3,19.3H21.7c-0.3,0-0.5-0.2-0.5-0.5s0.2-0.5,0.5-0.5h20.5c0.3,0,0.5,0.2,0.5,0.5S42.5,19.3,42.3,19.3z"/>
		</g>
		<g>
			<path d="M32,48.6c-0.3,0-0.5-0.2-0.5-0.5V14.4c0-0.3,0.2-0.5,0.5-0.5s0.5,0.2,0.5,0.5v33.6C32.5,48.3,32.3,48.6,32,48.6z"/>
		</g>
		<g>
			<path d="M43.6,48.7H20.4c-0.3,0-0.5-0.2-0.5-0.5s0.2-0.5,0.5-0.5h23.2c0.3,0,0.5,0.2,0.5,0.5S43.9,48.7,43.6,48.7z"/>
		</g>
	</g>
</g>
</svg>
