<?xml version="1.0" encoding="utf-8"?>
<!-- Generator: Adobe Illustrator 25.4.1, SVG Export Plug-In . SVG Version: 6.00 Build 0)  -->
<svg version="1.1" id="Layer_1" xmlns="http://www.w3.org/2000/svg" xmlns:xlink="http://www.w3.org/1999/xlink" x="0px" y="0px"
	 viewBox="0 0 64 64" style="enable-background:new 0 0 64 64;" xml:space="preserve">
<style type="text/css">
	.st0{fill:#FFFFFF;}
	.st1{fill:#114260;}
</style>
<circle class="st0" cx="32" cy="32" r="32"/>
<g>
	<g>
		<path class="st1" d="M32.1,64c-2.2,0-4.3-0.2-6.5-0.7C17.2,61.6,10,56.7,5.3,49.6c-4.7-7.1-6.3-15.7-4.6-24l0,0
			C4.2,8.3,21.2-2.9,38.4,0.7c17.3,3.6,28.4,20.5,24.9,37.8c-1.7,8.4-6.6,15.6-13.7,20.3C44.3,62.2,38.3,64,32.1,64z M2.7,26L2.7,26
			C1.1,33.8,2.7,41.8,7,48.4c4.4,6.7,11.1,11.2,18.9,12.8c7.8,1.6,15.8,0.1,22.5-4.3c6.7-4.4,11.2-11.1,12.8-18.9
			C64.6,21.9,54.2,6,38,2.7C21.9-0.6,6,9.8,2.7,26z"/>
	</g>
	<g>
		<g>
			<path d="M47.4,44.5H16.1V20c0-0.3,0.2-0.5,0.5-0.5s0.5,0.2,0.5,0.5v23.5h30.3c0.3,0,0.5,0.2,0.5,0.5S47.7,44.5,47.4,44.5z"/>
		</g>
		<g>
			<g>
				<polygon points="22.3,36.1 21.6,35.3 29.5,28.8 37.1,31.9 44.5,25.7 45.1,26.5 37.3,33.2 29.6,30 				"/>
			</g>
			<g>
				<circle class="st0" cx="21.9" cy="35.7" r="1.4"/>
				<path d="M21.9,37.6c-1,0-1.9-0.8-1.9-1.9s0.8-1.9,1.9-1.9c1,0,1.9,0.8,1.9,1.9S23,37.6,21.9,37.6z M21.9,34.9
					c-0.5,0-0.8,0.4-0.8,0.8s0.4,0.8,0.8,0.8c0.5,0,0.8-0.4,0.8-0.8S22.4,34.9,21.9,34.9z"/>
			</g>
			<g>
				<circle class="st0" cx="29.5" cy="29.4" r="1.4"/>
				<path d="M29.5,31.3c-1,0-1.9-0.8-1.9-1.9c0-1,0.8-1.9,1.9-1.9c1,0,1.9,0.8,1.9,1.9C31.4,30.4,30.6,31.3,29.5,31.3z M29.5,28.5
					c-0.5,0-0.8,0.4-0.8,0.8c0,0.5,0.4,0.8,0.8,0.8s0.8-0.4,0.8-0.8C30.4,28.9,30,28.5,29.5,28.5z"/>
			</g>
			<g>
				<circle class="st0" cx="37.2" cy="32.5" r="1.4"/>
				<path d="M37.2,34.4c-1,0-1.9-0.8-1.9-1.9c0-1,0.8-1.9,1.9-1.9c1,0,1.9,0.8,1.9,1.9C39.1,33.6,38.2,34.4,37.2,34.4z M37.2,31.7
					c-0.5,0-0.8,0.4-0.8,0.8c0,0.5,0.4,0.8,0.8,0.8c0.5,0,0.8-0.4,0.8-0.8C38,32.1,37.6,31.7,37.2,31.7z"/>
			</g>
			<g>
				<circle class="st0" cx="44.8" cy="26.1" r="1.4"/>
				<path d="M44.8,28c-1,0-1.9-0.8-1.9-1.9c0-1,0.8-1.9,1.9-1.9c1,0,1.9,0.8,1.9,1.9C46.7,27.2,45.8,28,44.8,28z M44.8,25.3
					c-0.5,0-0.8,0.4-0.8,0.8s0.4,0.8,0.8,0.8c0.5,0,0.8-0.4,0.8-0.8S45.3,25.3,44.8,25.3z"/>
			</g>
		</g>
	</g>
</g>
</svg>
