<?xml version="1.0" encoding="utf-8"?>
<!-- Generator: Adobe Illustrator 25.4.1, SVG Export Plug-In . SVG Version: 6.00 Build 0)  -->
<svg version="1.1" id="Layer_1" xmlns="http://www.w3.org/2000/svg" xmlns:xlink="http://www.w3.org/1999/xlink" x="0px" y="0px"
	 viewBox="0 0 64 64" style="enable-background:new 0 0 64 64;" xml:space="preserve">
<style type="text/css">
	.st0{fill:#FFFFFF;}
	.st1{fill:#5B7745;}
</style>
<circle class="st0" cx="32" cy="32" r="32"/>
<g>
	<g>
		<g>
			<g>
				<g>
					<path d="M20.5,47.4c-0.8,0-1.5-0.3-2.1-0.8c-1.2-1.1-1.3-3.1-0.1-4.3L27.8,32l-9.8-10c-0.6-0.6-0.9-1.3-0.9-2.2
						c0-0.8,0.3-1.6,0.9-2.1c0.6-0.6,1.4-0.9,2.2-0.9c0.8,0,1.6,0.3,2.1,0.9l9.6,9.8l9.4-10c0.6-0.6,1.3-0.9,2.1-1
						c0.8,0,1.6,0.3,2.2,0.8c1.2,1.1,1.3,3.1,0.1,4.3L36.2,32l9.8,10c1.2,1.2,1.2,3.1,0,4.3c-0.6,0.6-1.3,0.9-2.1,0.9c0,0,0,0,0,0
						c-0.8,0-1.6-0.3-2.1-0.9L32,36.4l-9.4,10c-0.6,0.6-1.3,0.9-2.1,1C20.5,47.4,20.5,47.4,20.5,47.4z M20.2,17.9
						c-0.5,0-1,0.2-1.4,0.6c-0.4,0.4-0.6,0.9-0.6,1.4c0,0.5,0.2,1,0.6,1.4L29.2,32L19,43c-0.8,0.8-0.7,2.1,0.1,2.8
						c0.4,0.4,0.9,0.6,1.4,0.5c0.5,0,1-0.2,1.4-0.6L32,34.9l10.3,10.6c0.4,0.4,0.9,0.6,1.4,0.6c0.5,0,1-0.2,1.4-0.6
						c0.8-0.8,0.8-2,0-2.8L34.8,32L45,21c0.8-0.8,0.7-2.1-0.1-2.8c-0.4-0.4-0.9-0.6-1.4-0.5c-0.5,0-1,0.2-1.4,0.6L32,29.1L21.6,18.5
						C21.3,18.2,20.8,17.9,20.2,17.9C20.2,17.9,20.2,17.9,20.2,17.9z"/>
				</g>
			</g>
		</g>
		<g>
			<path class="st1" d="M32,64c-3.4,0-6.9-0.6-10.2-1.7l0,0c-8.1-2.7-14.7-8.4-18.5-16.1C-0.4,38.6-1,29.9,1.7,21.8
				c2.7-8.1,8.4-14.7,16.1-18.5C25.4-0.4,34.1-1,42.2,1.7c8.1,2.7,14.7,8.4,18.5,16.1c3.8,7.6,4.4,16.3,1.7,24.4
				c-2.7,8.1-8.4,14.7-16.1,18.5C41.8,62.9,36.9,64,32,64z M32,2.1c-4.6,0-9.1,1.1-13.3,3.1c-7.1,3.6-12.5,9.7-15,17.3
				c-2.5,7.6-2,15.7,1.6,22.8c3.6,7.1,9.7,12.5,17.3,15l0,0c7.6,2.5,15.7,2,22.8-1.6c7.1-3.6,12.5-9.7,15-17.3
				c2.5-7.6,2-15.7-1.6-22.8c-3.6-7.1-9.7-12.5-17.3-15C38.4,2.6,35.2,2.1,32,2.1z"/>
		</g>
	</g>
</g>
</svg>
