<?xml version="1.0" encoding="utf-8"?>
<!-- Generator: Adobe Illustrator 25.4.1, SVG Export Plug-In . SVG Version: 6.00 Build 0)  -->
<svg version="1.1" id="Layer_1" xmlns="http://www.w3.org/2000/svg" xmlns:xlink="http://www.w3.org/1999/xlink" x="0px" y="0px"
	 viewBox="0 0 64 64" style="enable-background:new 0 0 64 64;" xml:space="preserve">
<style type="text/css">
	.st0{fill:#FFFFFF;}
	.st1{fill:#27635F;}
</style>
<circle class="st0" cx="32" cy="32" r="32"/>
<g>
	<g>
		<g>
			<path class="st1" d="M32,64c-0.2,0-0.5,0-0.7,0c-8.5-0.2-16.5-3.7-22.4-9.9l0,0C3,48-0.2,39.9,0,31.3c0.2-8.5,3.7-16.5,9.9-22.4
				c12.7-12.2,33-11.8,45.3,1c12.2,12.7,11.8,33-1,45.3C48.1,60.9,40.3,64,32,64z M32,2.1c-7.4,0-14.9,2.8-20.7,8.3
				c-5.8,5.5-9,13-9.2,21c-0.2,8,2.8,15.6,8.3,21.3l0,0C21.8,64.6,40.8,65,52.7,53.6C64.6,42.2,65,23.2,53.6,11.3
				C47.7,5.2,39.9,2.1,32,2.1z"/>
		</g>
		<g>
			<g>
				<path d="M52.2,41.8h-15v-8.1c0-1.4,0.9-2.5,2.1-2.5h10.8c1.1,0,2.1,1.1,2.1,2.5V41.8z M38.2,40.8h12.9v-7.1c0-0.8-0.5-1.4-1-1.4
					H39.3c-0.6,0-1,0.7-1,1.4V40.8z"/>
			</g>
			<g>
				<path d="M51.1,43.5H38.3c-1.3,0-2.4-0.9-2.4-2.1v-0.5l0.5,0h17v0.5C53.4,42.6,52.4,43.5,51.1,43.5z M37.2,41.9
					c0.2,0.3,0.7,0.5,1.1,0.5h12.8c0.5,0,0.9-0.2,1.1-0.5H37.2z"/>
			</g>
			<g>
				<path d="M49.1,34.2h-8.8c-0.3,0-0.5-0.2-0.5-0.5c0-0.3,0.2-0.5,0.5-0.5h8.8c0.3,0,0.5,0.2,0.5,0.5C49.6,34,49.4,34.2,49.1,34.2z
					"/>
			</g>
		</g>
		<g>
			<g>
				<path class="st0" d="M45.3,27.5c-0.1,0.2-0.5,0.2-0.6,0L44,26.4l-0.7-1.2c-0.1-0.2,0-0.5,0.3-0.5l1.4,0l1.4,0
					c0.3,0,0.5,0.3,0.3,0.5L46,26.4L45.3,27.5z"/>
				<path d="M45,28.3C45,28.3,45,28.3,45,28.3c-0.3,0-0.6-0.2-0.8-0.4l-1.4-2.4c-0.2-0.3-0.2-0.6,0-0.9c0.2-0.3,0.4-0.4,0.8-0.4h2.8
					c0.3,0,0.6,0.2,0.8,0.4c0.2,0.3,0.2,0.6,0,0.9l-1.4,2.4C45.6,28.1,45.3,28.3,45,28.3z M43.9,25.2L45,27l1.1-1.9H43.9z"/>
			</g>
			<g>
				<path d="M20.2,26.7c-0.3,0-0.5-0.2-0.5-0.5l0-6.4c0-1.2,1-2.1,2.1-2.1h21.5c1.2,0,2.2,1,2.2,2.2v4.8c0,0.3-0.2,0.5-0.5,0.5
					c-0.3,0-0.5-0.2-0.5-0.5v-4.8c0-0.6-0.5-1.1-1.1-1.1H21.8c-0.6,0-1.1,0.5-1.1,1.1l0,6.4C20.7,26.5,20.5,26.7,20.2,26.7
					L20.2,26.7z"/>
			</g>
		</g>
		<g>
			<g>
				<rect x="12" y="32.7" width="1.1" height="9.3"/>
			</g>
			<g>
				<path class="st0" d="M12.5,42c0,1.7,3.1,3.1,6.9,3.1s6.9-1.4,6.9-3.1"/>
				<path d="M19.4,45.6c-4.3,0-7.5-1.6-7.5-3.6H13c0,1.2,2.6,2.6,6.4,2.6s6.4-1.4,6.4-2.6h1.1C26.9,44.1,23.7,45.6,19.4,45.6z"/>
			</g>
			<g>
				<path class="st0" d="M12.5,38.9c0,1.7,3.1,3.1,6.9,3.1s6.9-1.4,6.9-3.1"/>
				<path d="M19.4,42.5c-4.3,0-7.5-1.6-7.5-3.6H13c0,1.2,2.6,2.6,6.4,2.6s6.4-1.4,6.4-2.6h1.1C26.9,41,23.7,42.5,19.4,42.5z"/>
			</g>
			<g>
				<path class="st0" d="M12.5,35.8c0,1.7,3.1,3.1,6.9,3.1s6.9-1.4,6.9-3.1"/>
				<path d="M19.4,39.4c-4.3,0-7.5-1.6-7.5-3.6H13c0,1.2,2.6,2.6,6.4,2.6s6.4-1.4,6.4-2.6h1.1C26.9,37.9,23.7,39.4,19.4,39.4z"/>
			</g>
			<g>
				<ellipse class="st0" cx="19.4" cy="32.7" rx="6.9" ry="3.1"/>
				<path d="M19.4,36.3c-4.3,0-7.5-1.6-7.5-3.6c0-2.1,3.2-3.6,7.5-3.6s7.5,1.6,7.5,3.6C26.9,34.8,23.7,36.3,19.4,36.3z M19.4,30.1
					c-3.8,0-6.4,1.4-6.4,2.6c0,1.2,2.6,2.6,6.4,2.6s6.4-1.4,6.4-2.6C25.8,31.5,23.2,30.1,19.4,30.1z"/>
			</g>
			<g>
				<rect x="25.8" y="32.7" width="1.1" height="9.3"/>
			</g>
		</g>
	</g>
</g>
</svg>
