<?xml version="1.0" encoding="utf-8"?>
<!-- Generator: Adobe Illustrator 25.4.1, SVG Export Plug-In . SVG Version: 6.00 Build 0)  -->
<svg version="1.1" id="Layer_1" xmlns="http://www.w3.org/2000/svg" xmlns:xlink="http://www.w3.org/1999/xlink" x="0px" y="0px"
	 viewBox="0 0 64 64" style="enable-background:new 0 0 64 64;" xml:space="preserve">
<style type="text/css">
	.st0{fill:#FFFFFF;}
	.st1{fill:#FDB6BA;}
</style>
<circle class="st0" cx="32" cy="32" r="32"/>
<g>
	<g>
		<path class="st1" d="M32,64c-15.4,0-29-11.2-31.6-26.9c-1.4-8.4,0.6-16.9,5.7-23.8S18.5,1.8,26.9,0.4c17.4-2.8,33.9,9.1,36.7,26.5
			c1.4,8.4-0.6,16.9-5.7,23.8S45.5,62.2,37.1,63.6l0,0C35.4,63.9,33.7,64,32,64z M32,2.1c-1.6,0-3.2,0.1-4.8,0.4
			C19.4,3.8,12.4,8,7.8,14.5C3.1,21,1.2,28.9,2.5,36.8c2.6,16.3,18,27.4,34.3,24.8c7.9-1.3,14.8-5.5,19.5-12
			c4.7-6.5,6.6-14.4,5.3-22.3C59.1,12.6,46.4,2.1,32,2.1z"/>
	</g>
	<g>
		<g>
			<g>
				<path d="M51.6,32.9h-24c-0.3,0-0.5-0.2-0.5-0.5s0.2-0.5,0.5-0.5h24c0.3,0,0.5,0.2,0.5,0.5S51.9,32.9,51.6,32.9z"/>
			</g>
			<g>
				<path d="M45.2,36.3c-0.3,0-0.5-0.2-0.5-0.5v-3.4c0-0.3,0.2-0.5,0.5-0.5c0.3,0,0.5,0.2,0.5,0.5v3.4
					C45.7,36.1,45.5,36.3,45.2,36.3z"/>
			</g>
			<g>
				<path d="M49.2,37.3c-0.3,0-0.5-0.2-0.5-0.5v-4.2c0-0.3,0.2-0.5,0.5-0.5s0.5,0.2,0.5,0.5v4.2C49.7,37.1,49.4,37.3,49.2,37.3z"/>
			</g>
		</g>
		<g>
			<path d="M20.5,39.9c-4.2,0-7.6-3.4-7.6-7.6c0-4.2,3.4-7.6,7.6-7.6s7.6,3.4,7.6,7.6C28.1,36.6,24.7,39.9,20.5,39.9z M20.5,25.9
				c-3.6,0-6.5,2.9-6.5,6.5c0,3.6,2.9,6.5,6.5,6.5S27,36,27,32.4C27,28.8,24.1,25.9,20.5,25.9z"/>
		</g>
	</g>
</g>
</svg>
