<?xml version="1.0" encoding="utf-8"?>
<!-- Generator: Adobe Illustrator 25.4.1, SVG Export Plug-In . SVG Version: 6.00 Build 0)  -->
<svg version="1.1" id="Layer_1" xmlns="http://www.w3.org/2000/svg" xmlns:xlink="http://www.w3.org/1999/xlink" x="0px" y="0px"
	 viewBox="0 0 64 64" style="enable-background:new 0 0 64 64;" xml:space="preserve">
<style type="text/css">
	.st0{fill:#FFFFFF;}
	.st1{fill:#FACCFA;}
	.st2{fill:#262626;}
</style>
<circle class="st0" cx="32" cy="32" r="32"/>
<g>
	<g>
		<path class="st1" d="M31.9,64c-4.6,0-9.3-1-13.7-3.1C2.3,53.3-4.5,34.2,3.1,18.3C10.7,2.3,29.8-4.5,45.7,3.1
			c7.7,3.7,13.5,10.1,16.4,18.2c2.9,8.1,2.4,16.7-1.3,24.5C55.4,57.3,43.9,64,31.9,64z M32,2.1c-11.2,0-22,6.3-27.1,17.1
			C-2.1,34,4.2,51.9,19.1,59C34,66.1,51.9,59.8,59,44.9l0,0c3.4-7.2,3.9-15.4,1.2-22.9c-2.7-7.5-8.1-13.6-15.3-17
			C40.7,3,36.3,2.1,32,2.1z"/>
	</g>
	<g>
		<g>
			<path d="M30.7,20h-1.1c0-0.3-0.1-0.5-0.2-0.7C29.2,19.1,29,19,28.6,19c-0.2,0-0.4,0-0.5,0.1c-0.1,0.1-0.2,0.2-0.3,0.3
				c-0.1,0.1-0.1,0.2-0.1,0.4c0,0.1,0,0.3,0.1,0.4s0.2,0.2,0.3,0.3s0.2,0.2,0.4,0.2l1.5,0.8c0.1,0.1,0.2,0.1,0.4,0.2
				c0.1,0.1,0.3,0.2,0.4,0.3c0.1,0.1,0.2,0.3,0.3,0.5c0.1,0.2,0.1,0.4,0.1,0.7c0,0.2-0.1,0.4-0.2,0.6c-0.1,0.2-0.2,0.3-0.4,0.5
				c-0.2,0.1-0.3,0.2-0.5,0.3l0,0c0.2,0.2,0.3,0.4,0.4,0.6c0.1,0.2,0.1,0.5,0.1,0.7c0,0.4-0.1,0.7-0.3,1c-0.2,0.3-0.4,0.5-0.8,0.6
				c-0.3,0.1-0.7,0.2-1,0.2c-0.4,0-0.8-0.1-1.1-0.2c-0.3-0.2-0.6-0.4-0.8-0.7c-0.2-0.3-0.3-0.7-0.3-1.1h1.1c0,0.3,0.1,0.6,0.3,0.8
				c0.2,0.2,0.5,0.3,0.8,0.3c0.3,0,0.5-0.1,0.7-0.2c0.2-0.1,0.3-0.3,0.3-0.6c0-0.2,0-0.3-0.1-0.4c-0.1-0.1-0.2-0.2-0.3-0.3
				C29,25,28.9,25,28.8,24.9l-1.5-0.8C27.2,24,27.1,24,27,23.9c-0.1-0.1-0.3-0.2-0.4-0.4c-0.1-0.1-0.2-0.3-0.3-0.5
				c-0.1-0.2-0.1-0.4-0.1-0.7c0-0.2,0.1-0.4,0.2-0.6c0.1-0.2,0.2-0.3,0.4-0.5c0.2-0.1,0.3-0.2,0.5-0.3v0c-0.2-0.2-0.3-0.4-0.4-0.6
				c-0.1-0.2-0.2-0.5-0.2-0.7c0-0.3,0.1-0.6,0.3-0.9s0.4-0.5,0.7-0.6c0.3-0.2,0.6-0.2,1-0.2c0.4,0,0.8,0.1,1.1,0.3
				c0.3,0.2,0.5,0.4,0.7,0.7C30.6,19.2,30.7,19.6,30.7,20z M30.1,23.3c0-0.1,0-0.2-0.1-0.4c-0.1-0.1-0.1-0.2-0.3-0.3
				c-0.1-0.1-0.2-0.2-0.4-0.2L28,21.6c-0.1-0.1-0.2-0.1-0.4,0c-0.1,0.1-0.2,0.1-0.3,0.3c-0.1,0.1-0.1,0.3-0.1,0.5
				c0,0.2,0.1,0.4,0.2,0.5c0.1,0.1,0.3,0.3,0.5,0.4l1.4,0.8c0.1,0.1,0.2,0.1,0.4,0c0.1,0,0.3-0.1,0.4-0.3
				C30.1,23.6,30.1,23.4,30.1,23.3z"/>
		</g>
		<g>
			<path class="st2" d="M38.2,43.9h-19c-1.4,0-2.6-1.1-2.6-2.6V17.1c0-1.4,1.1-2.6,2.6-2.6h19c1.4,0,2.6,1.1,2.6,2.6v24.3
				C40.7,42.7,39.6,43.9,38.2,43.9z M19.1,15.5c-0.8,0-1.5,0.7-1.5,1.5v24.3c0,0.8,0.7,1.5,1.5,1.5h19c0.8,0,1.5-0.7,1.5-1.5V17.1
				c0-0.8-0.7-1.5-1.5-1.5H19.1z"/>
		</g>
		<g>
			<g>
				<g>
					<path d="M40.4,49.8c0,0-0.1,0-0.1,0c-5.3-0.1-9.7-4.1-10.2-9.4c0-0.3,0.2-0.5,0.5-0.6c0.3,0,0.5,0.2,0.6,0.5
						c0.4,4.8,4.4,8.4,9.2,8.5c0,0,0.1,0,0.1,0c4,0,7.5-2.5,8.8-6.2c0.1-0.3,0.4-0.4,0.7-0.3c0.3,0.1,0.4,0.4,0.3,0.7
						C48.7,47.1,44.8,49.8,40.4,49.8z"/>
				</g>
				<g>
					<path d="M30.5,40.8c-0.3,0-0.5-0.2-0.5-0.5c0-0.4,0-0.7,0-1.1c0-0.3,0.3-0.5,0.5-0.5c0.3,0,0.5,0.2,0.5,0.5c0,0.3,0,0.7,0,1
						C31.1,40.6,30.8,40.8,30.5,40.8C30.5,40.8,30.5,40.8,30.5,40.8z"/>
				</g>
				<g>
					<path class="st0" d="M30.2,36.9c0.2-0.3,0.6-0.3,0.7,0l0.8,1.4l0.8,1.4c0.2,0.3,0,0.6-0.4,0.6l-1.6,0l-1.6,0
						c-0.3,0-0.5-0.4-0.4-0.6l0.8-1.4L30.2,36.9z"/>
					<path d="M32.1,40.8C32.1,40.8,32.1,40.8,32.1,40.8l-3.3,0c-0.3,0-0.6-0.2-0.8-0.5c-0.2-0.3-0.2-0.6,0-0.9l1.7-2.8
						c0.2-0.3,0.5-0.5,0.8-0.5c0,0,0,0,0,0c0.3,0,0.6,0.2,0.8,0.5l1.6,2.8c0.2,0.3,0.2,0.6,0,0.9C32.8,40.7,32.5,40.8,32.1,40.8z
						 M29.1,39.8l2.9,0l-1.4-2.6L29.1,39.8z M30.2,36.9L30.2,36.9L30.2,36.9z"/>
				</g>
			</g>
			<g>
				<g>
					<path d="M49.7,37.3c-0.3,0-0.5-0.2-0.5-0.5c-0.4-4.8-4.4-8.4-9.2-8.5c0,0-0.1,0-0.1,0c-4,0-7.5,2.5-8.8,6.2
						c-0.1,0.3-0.4,0.4-0.7,0.3c-0.3-0.1-0.4-0.4-0.3-0.7c1.5-4.1,5.4-6.9,9.8-6.9c0,0,0.1,0,0.1,0c5.3,0.1,9.7,4.1,10.2,9.4
						C50.3,37,50.1,37.3,49.7,37.3C49.8,37.3,49.8,37.3,49.7,37.3z"/>
				</g>
				<g>
					<path d="M49.8,38.4C49.8,38.4,49.8,38.4,49.8,38.4c-0.3,0-0.5-0.2-0.5-0.5c0-0.3,0-0.7,0-1c0-0.3,0.2-0.5,0.5-0.6
						c0.3,0,0.5,0.2,0.6,0.5c0,0.4,0,0.7,0,1.1C50.3,38.1,50.1,38.4,49.8,38.4z"/>
				</g>
				<g>
					<path class="st0" d="M50.1,40.3c-0.2,0.3-0.6,0.3-0.7,0l-0.8-1.4l-0.8-1.4c-0.2-0.3,0-0.6,0.4-0.6l1.6,0l1.6,0
						c0.3,0,0.5,0.4,0.4,0.6l-0.8,1.4L50.1,40.3z"/>
					<path d="M49.7,41C49.7,41,49.7,41,49.7,41c-0.4,0-0.7-0.2-0.8-0.5l-1.6-2.8c-0.2-0.3-0.2-0.6,0-0.9c0.2-0.3,0.4-0.5,0.8-0.5
						l3.2,0c0.3,0,0.6,0.2,0.8,0.5c0.2,0.3,0.2,0.6,0,0.9l-1.7,2.8C50.3,40.8,50,41,49.7,41z M49.8,40L49.8,40L49.8,40z M48.3,37.3
						l1.4,2.6l1.5-2.5L48.3,37.3z"/>
				</g>
			</g>
		</g>
	</g>
</g>
</svg>
