<?xml version="1.0" encoding="utf-8"?>
<!-- Generator: Adobe Illustrator 25.4.1, SVG Export Plug-In . SVG Version: 6.00 Build 0)  -->
<svg version="1.1" id="Layer_1" xmlns="http://www.w3.org/2000/svg" xmlns:xlink="http://www.w3.org/1999/xlink" x="0px" y="0px"
	 viewBox="0 0 64 64" style="enable-background:new 0 0 64 64;" xml:space="preserve">
<style type="text/css">
	.st0{fill:#FFFFFF;}
	.st1{fill:#27635F;}
	.st2{fill:#BCBEC0;}
</style>
<circle class="st0" cx="32" cy="32" r="32"/>
<g>
	<g>
		<g>
			<path d="M60.1,4.5l-2.3,1.5l-0.6-1.1l2.5-1.3l-2.5-1.3l0.6-1.1l2.3,1.5L60,0h1.2l-0.1,2.8l2.3-1.5L64,2.3l-2.5,1.3L64,4.9
				l-0.6,1.1l-2.3-1.5l0.1,2.8H60L60.1,4.5z"/>
		</g>
	</g>
	<g>
		<g>
			<g>
				<rect x="11.9" y="33.5" width="1.1" height="9.3"/>
			</g>
			<g>
				<path class="st0" d="M12.5,42.7c0,1.7,3.1,3.1,6.9,3.1s6.9-1.4,6.9-3.1"/>
				<path d="M19.4,46.3c-4.2,0-7.5-1.6-7.5-3.6H13c0,1.2,2.6,2.6,6.4,2.6s6.4-1.4,6.4-2.6h1.1C26.9,44.8,23.6,46.3,19.4,46.3z"/>
			</g>
			<g>
				<path class="st0" d="M12.5,39.6c0,1.7,3.1,3.1,6.9,3.1s6.9-1.4,6.9-3.1"/>
				<path d="M19.4,43.3c-4.2,0-7.5-1.6-7.5-3.6H13c0,1.2,2.6,2.6,6.4,2.6s6.4-1.4,6.4-2.6h1.1C26.9,41.7,23.6,43.3,19.4,43.3z"/>
			</g>
			<g>
				<path class="st0" d="M12.5,36.5c0,1.7,3.1,3.1,6.9,3.1s6.9-1.4,6.9-3.1"/>
				<path d="M19.4,40.2c-4.2,0-7.5-1.6-7.5-3.6H13c0,1.2,2.6,2.6,6.4,2.6s6.4-1.4,6.4-2.6h1.1C26.9,38.6,23.6,40.2,19.4,40.2z"/>
			</g>
			<g>
				<ellipse class="st0" cx="19.4" cy="33.5" rx="6.9" ry="3.1"/>
				<path d="M19.4,37.1c-4.2,0-7.5-1.6-7.5-3.6c0-2.1,3.2-3.6,7.5-3.6s7.5,1.6,7.5,3.6C26.9,35.5,23.6,37.1,19.4,37.1z M19.4,30.9
					c-3.8,0-6.4,1.4-6.4,2.6c0,1.2,2.6,2.6,6.4,2.6s6.4-1.4,6.4-2.6C25.8,32.2,23.2,30.9,19.4,30.9z"/>
			</g>
			<g>
				<rect x="25.8" y="33.5" width="1.1" height="9.3"/>
			</g>
		</g>
		<g>
			<path class="st1" d="M32,64c-0.2,0-0.5,0-0.7,0c-8.5-0.2-16.5-3.7-22.4-9.9l0,0C3,48-0.2,39.9,0,31.3c0.2-8.5,3.7-16.5,9.9-22.4
				c12.7-12.2,33-11.8,45.2,1C61,16,64.2,24.2,64,32.7c-0.2,8.5-3.7,16.5-9.9,22.4C48.1,60.9,40.3,64,32,64z M32,2.1
				c-7.4,0-14.9,2.8-20.7,8.3c-5.8,5.5-9,13-9.2,20.9c-0.2,8,2.8,15.6,8.3,21.3l0,0c5.5,5.8,13,9,20.9,9.2c8,0.2,15.6-2.8,21.3-8.3
				c5.8-5.5,9-13,9.2-20.9c0.2-8-2.8-15.6-8.3-21.3C47.7,5.2,39.9,2.1,32,2.1z"/>
		</g>
		<g>
			<g>
				<path d="M45.3,47.4c-5.2,0-9.3-4.2-9.3-9.3s4.2-9.3,9.3-9.3s9.3,4.2,9.3,9.3S50.5,47.4,45.3,47.4z M45.3,29.8
					c-4.6,0-8.3,3.7-8.3,8.3s3.7,8.3,8.3,8.3c4.6,0,8.3-3.7,8.3-8.3S49.9,29.8,45.3,29.8z"/>
			</g>
			<g>
				<path d="M45.3,47.4c-2.8,0-5-4.1-5-9.3s2.2-9.3,5-9.3c2.8,0,5,4.1,5,9.3S48.1,47.4,45.3,47.4z M45.3,29.8
					c-2.1,0-3.9,3.8-3.9,8.3s1.8,8.3,3.9,8.3s3.9-3.8,3.9-8.3S47.4,29.8,45.3,29.8z"/>
			</g>
			<g>
				<rect x="37.5" y="33.4" width="15.7" height="1.1"/>
			</g>
			<g>
				<rect x="37.5" y="41.8" width="15.7" height="1.1"/>
			</g>
			<g>
				<rect x="36.6" y="37.6" width="17.6" height="1.1"/>
			</g>
			<g>
				<rect x="44.8" y="29.3" width="1.1" height="17.6"/>
			</g>
		</g>
		<g>
			<g>
				<path class="st2" d="M33.2,64l-0.1-2.1c2.3-0.1,4.5-0.4,6.7-1l0.6,2C38,63.5,35.6,63.9,33.2,64z M26,63.4l-0.4-0.1
					c-2.2-0.5-4.4-1.2-6.5-2.1l0.8-1.9c1.9,0.8,4,1.5,6,1.9l0.4,0.1L26,63.4z M47.1,60.2l-1-1.9c2-1.1,3.9-2.4,5.6-3.8l1.4,1.6
					C51.2,57.7,49.2,59.1,47.1,60.2z M12.9,57.6c-1.9-1.4-3.7-3.1-5.3-5l1.6-1.4c1.5,1.7,3.1,3.3,4.9,4.6L12.9,57.6z M57.9,50.8
					l-1.7-1.2c1.3-1.8,2.4-3.8,3.3-5.9l1.9,0.8C60.5,46.7,59.3,48.8,57.9,50.8z M3.6,46.7c-1.1-2.1-2-4.4-2.6-6.8l2-0.5
					c0.6,2.2,1.4,4.3,2.4,6.3L3.6,46.7z M63.5,37.6l-2.1-0.4c0.3-1.7,0.5-3.5,0.5-5.2c0-0.5,0-1,0-1.5l2.1-0.1c0,0.5,0,1.1,0,1.6
					C64,33.8,63.8,35.7,63.5,37.6z M0,32.8c0-0.2,0-0.5,0-0.7c0-2.2,0.2-4.3,0.7-6.5L2.7,26c-0.4,2-0.6,4-0.6,6.1c0,0.2,0,0.5,0,0.7
					L0,32.8z M60.8,23.8c-0.6-2.2-1.5-4.3-2.6-6.2l1.8-1c1.2,2.1,2.1,4.4,2.8,6.7L60.8,23.8z M4.2,21.1l-2-0.8
					c0.9-2.3,2-4.4,3.4-6.4l1.7,1.2C6.1,17,5,19,4.2,21.1z M54.3,12.1c-1.5-1.7-3.2-3.2-5-4.5l1.2-1.7c2,1.4,3.8,3,5.4,4.8
					L54.3,12.1z M11.8,10l-1.4-1.5c1.8-1.6,3.7-3.1,5.8-4.3l1,1.8C15.2,7.2,13.4,8.5,11.8,10z M43.3,4.3c-1.7-0.7-3.5-1.2-5.3-1.6
					c-0.4-0.1-0.8-0.2-1.2-0.2l0.3-2.1c0.4,0.1,0.9,0.2,1.3,0.2c1.9,0.4,3.8,1,5.7,1.7L43.3,4.3z M23.4,3.4l-0.6-2
					c2.3-0.7,4.7-1.1,7.1-1.3l0.1,2.1C27.8,2.3,25.6,2.7,23.4,3.4z"/>
			</g>
		</g>
		<g>
			<g>
				<path class="st0" d="M45.3,26.5c-0.1,0.2-0.5,0.2-0.6,0L44,25.3l-0.7-1.2c-0.1-0.2,0-0.5,0.3-0.5l1.4,0l1.4,0
					c0.3,0,0.5,0.3,0.3,0.5L46,25.3L45.3,26.5z"/>
				<path d="M45,27.2c-0.3,0-0.6-0.2-0.8-0.4l-1.4-2.4c-0.2-0.3-0.2-0.6,0-0.9c0.2-0.3,0.4-0.4,0.8-0.4h2.8c0.3,0,0.6,0.2,0.8,0.4
					c0.2,0.3,0.2,0.6,0,0.9l-1.4,2.4C45.6,27,45.3,27.2,45,27.2L45,27.2z M44.8,26.2C44.8,26.2,44.8,26.2,44.8,26.2L44.8,26.2z
					 M43.9,24.1L45,26l1.1-1.9H43.9z"/>
			</g>
			<g>
				<path d="M20.2,25.6c-0.3,0-0.5-0.2-0.5-0.5l0-6.4c0-1.2,1-2.1,2.1-2.1h21.5c1.2,0,2.2,1,2.2,2.2v4.8c0,0.3-0.2,0.5-0.5,0.5
					s-0.5-0.2-0.5-0.5v-4.8c0-0.6-0.5-1.1-1.1-1.1H21.8c-0.6,0-1.1,0.5-1.1,1.1l0,6.4C20.7,25.4,20.5,25.6,20.2,25.6L20.2,25.6z"/>
			</g>
		</g>
	</g>
</g>
</svg>
