<?xml version="1.0" encoding="utf-8"?>
<!-- Generator: Adobe Illustrator 25.4.1, SVG Export Plug-In . SVG Version: 6.00 Build 0)  -->
<svg version="1.1" id="Layer_1" xmlns="http://www.w3.org/2000/svg" xmlns:xlink="http://www.w3.org/1999/xlink" x="0px" y="0px"
	 viewBox="0 0 64 64" style="enable-background:new 0 0 64 64;" xml:space="preserve">
<style type="text/css">
	.st0{fill:#FFFFFF;}
	.st1{fill:#C09036;}
</style>
<circle class="st0" cx="32" cy="32" r="32"/>
<g>
	<g>
		<g>
			<path class="st1" d="M32,64c-4.7,0-9.4-1-13.7-3.1C2.3,53.3-4.5,34.2,3.1,18.2C10.7,2.3,29.8-4.5,45.7,3.1
				c15.9,7.6,22.7,26.7,15.1,42.6l0,0c-3.7,7.7-10.1,13.5-18.2,16.4C39.2,63.4,35.6,64,32,64z M32,2.1c-11.2,0-21.9,6.3-27,17
				C-2.1,34,4.3,51.9,19.1,59c7.2,3.4,15.3,3.8,22.8,1.2c7.5-2.7,13.6-8.1,17-15.3l0,0C66.1,30,59.7,12.1,44.8,5
				C40.7,3,36.3,2.1,32,2.1z"/>
		</g>
		<g>
			<g>
				<g>
					<path d="M41.2,50.1H22.3c-1.1,0-2.1-1-2.1-2.2l-2-28.6c0-0.3,0.1-0.6,0.3-0.8c0.2-0.2,0.5-0.4,0.8-0.4h24.8
						c0.3,0,0.6,0.1,0.8,0.4c0.2,0.2,0.3,0.5,0.3,0.8l-2,28.6C43.2,49.2,42.3,50.1,41.2,50.1z M19.3,19.2
						C19.3,19.2,19.3,19.2,19.3,19.2l1.9,28.7c0,0.7,0.5,1.2,1,1.2h18.9c0.6,0,1-0.5,1-1.1l2-28.7L19.3,19.2z"/>
				</g>
				<g>
					<path d="M35.8,45.9C35.8,45.9,35.8,45.9,35.8,45.9c-0.3,0-0.5-0.3-0.5-0.6l2-23.5c0-0.3,0.3-0.5,0.6-0.5c0.3,0,0.5,0.3,0.5,0.6
						l-2,23.5C36.3,45.7,36.1,45.9,35.8,45.9z"/>
				</g>
				<g>
					<path d="M27.6,45.9c-0.3,0-0.5-0.2-0.5-0.5l-1.9-23.5c0-0.3,0.2-0.5,0.5-0.6c0.3,0,0.5,0.2,0.6,0.5l1.9,23.5
						C28.2,45.6,28,45.9,27.6,45.9C27.7,45.9,27.7,45.9,27.6,45.9z"/>
				</g>
			</g>
			<g>
				<g>
					<path d="M36.5,19.2h-9.7v-0.5c0-2.7,2.2-4.8,4.8-4.8s4.8,2.2,4.8,4.8V19.2z M28,18.1h7.5c-0.3-1.8-1.8-3.3-3.7-3.3
						S28.2,16.3,28,18.1z"/>
				</g>
				<g>
					<path d="M47.2,19.2H16.2c-0.3,0-0.5-0.2-0.5-0.5c0-0.3,0.2-0.5,0.5-0.5h31.1c0.3,0,0.5,0.2,0.5,0.5
						C47.8,19,47.5,19.2,47.2,19.2z"/>
				</g>
			</g>
		</g>
	</g>
</g>
</svg>
