<svg id="Layer_1" data-name="Layer 1" xmlns="http://www.w3.org/2000/svg" viewBox="0 0 128 128"><defs><style>.cls-1{fill:#fff;}.cls-2{fill:#fdb6ba;}</style></defs><circle class="cls-1" cx="64" cy="64" r="64"/><path class="cls-2" d="M64.13,128a64.63,64.63,0,0,1-13-1.33A64,64,0,0,1,1.33,51.12,64,64,0,1,1,126.67,76.88,64,64,0,0,1,64.13,128ZM63.88,4.2A59.84,59.84,0,0,0,5.45,52h0a59.77,59.77,0,0,0,91.44,61.94A59.77,59.77,0,0,0,76,5.45,60.55,60.55,0,0,0,63.88,4.2Z" transform="translate(0)"/><path d="M86.88,100.62H41.12a4.8,4.8,0,0,1-4.79-4.8V33.2a4.8,4.8,0,0,1,4.79-4.8H86.88a4.81,4.81,0,0,1,4.8,4.8V95.82A4.81,4.81,0,0,1,86.88,100.62ZM41.12,30.5a2.7,2.7,0,0,0-2.69,2.7V95.82a2.7,2.7,0,0,0,2.69,2.7H86.88a2.7,2.7,0,0,0,2.69-2.7V33.2a2.7,2.7,0,0,0-2.69-2.7Z" transform="translate(0)"/><path d="M74.48,30.5h-21v-4a3.22,3.22,0,0,1,3.33-3.09h14.3a3.22,3.22,0,0,1,3.33,3.09ZM55.62,28.4H72.38V26.53a1.15,1.15,0,0,0-1.23-1H56.85a1.15,1.15,0,0,0-1.23,1Z" transform="translate(0)"/><path d="M62.47,51.52H47a1.05,1.05,0,1,1,0-2.1H62.47a1.05,1.05,0,1,1,0,2.1Z" transform="translate(0)"/><path d="M71.93,54.9l-3.52-4A1.05,1.05,0,1,1,70,49.53l1.89,2.14,4.14-5a1,1,0,0,1,1.47-.13A1,1,0,0,1,77.63,48Z" transform="translate(0)"/><path d="M62.47,66.57H47a1,1,0,1,1,0-2.1H62.47a1.05,1.05,0,1,1,0,2.1Z" transform="translate(0)"/><path d="M71.93,69.9l-3.52-4A1.05,1.05,0,0,1,70,64.53l1.89,2.14,4.13-5A1.05,1.05,0,1,1,77.63,63Z" transform="translate(0)"/><path d="M62.47,81.63H47a1,1,0,1,1,0-2.1H62.47a1.05,1.05,0,1,1,0,2.1Z" transform="translate(0)"/><path d="M76.74,84.85a1.05,1.05,0,0,1-.75-.31L69.56,78.1A1,1,0,1,1,71,76.62l6.44,6.44a1,1,0,0,1,0,1.48A1,1,0,0,1,76.74,84.85Z" transform="translate(0)"/><path d="M70.3,84.85a1,1,0,0,1-.74-.31,1,1,0,0,1,0-1.48L76,76.62a1.05,1.05,0,1,1,1.49,1.48L71,84.54A1,1,0,0,1,70.3,84.85Z" transform="translate(0)"/></svg>