<svg id="Layer_1" data-name="Layer 1" xmlns="http://www.w3.org/2000/svg" viewBox="0 0 128 128"><defs><style>.cls-1{fill:#fff;}.cls-2{fill:#faccfa;}</style></defs><circle class="cls-1" cx="64" cy="64" r="64"/><path class="cls-2" d="M64,128A64,64,0,0,1,6.25,36.5,64,64,0,0,1,91.5,6.25,64,64,0,0,1,121.75,91.5,64.16,64.16,0,0,1,64,128ZM64,4.1a59.89,59.89,0,1,0,54,85.64h0A59.93,59.93,0,0,0,64,4.1Z" transform="translate(0 0)"/><path d="M91.23,96.72H36.77a5.13,5.13,0,0,1-5.12-5.12V41a5.13,5.13,0,0,1,5.12-5.13H91.23A5.13,5.13,0,0,1,96.35,41V91.6A5.13,5.13,0,0,1,91.23,96.72ZM36.77,37.92A3.08,3.08,0,0,0,33.7,41V91.6a3.08,3.08,0,0,0,3.07,3.07H91.23A3.08,3.08,0,0,0,94.3,91.6V41a3.08,3.08,0,0,0-3.07-3.08Z" transform="translate(0 0)"/><rect x="32.67" y="49.57" width="62.65" height="2.05"/><path d="M48.8,41.68a1,1,0,0,1-1-1V32.3a1,1,0,0,1,2,0v8.36A1,1,0,0,1,48.8,41.68Z" transform="translate(0 0)"/><path d="M79.2,41.68a1,1,0,0,1-1-1V32.3a1,1,0,0,1,2,0v8.36A1,1,0,0,1,79.2,41.68Z" transform="translate(0 0)"/><path d="M65.77,83.51a1,1,0,0,1-1-1V64.75l-4.16,3.79a1,1,0,0,1-1.45-.07A1,1,0,0,1,59.2,67l7.59-6.91V82.48A1,1,0,0,1,65.77,83.51Z" transform="translate(0 0)"/></svg>