<svg id="Layer_1" data-name="Layer 1" xmlns="http://www.w3.org/2000/svg" viewBox="0 0 128 128"><defs><style>.cls-1{fill:#fff;}.cls-2{fill:#faccfa;}</style></defs><circle class="cls-1" cx="64" cy="64" r="64"/><path class="cls-2" d="M64,128A64.1,64.1,0,0,1,2.51,81.72h0A64,64,0,1,1,64,128ZM6.48,80.58A59.85,59.85,0,1,0,11.6,35.05,59.92,59.92,0,0,0,6.48,80.58Z" transform="translate(0 0)"/><path d="M43.85,75.87c-7.8,0-14.14-6-14.14-13.47v-1H58v1C58,69.83,51.65,75.87,43.85,75.87Zm-12-12.43c.56,5.8,5.74,10.37,12,10.37s11.48-4.57,12-10.37Z" transform="translate(0 0)"/><path d="M57,62.74a1,1,0,0,1-.91-.55L43.85,39.36,31.65,62.19a1,1,0,0,1-1.82-1L42.69,37.16a1.37,1.37,0,0,1,2.32,0L57.87,61.22a1,1,0,0,1-.42,1.39A1,1,0,0,1,57,62.74Z" transform="translate(0 0)"/><path d="M84.15,75.87c-7.8,0-14.14-6-14.14-13.47v-1H98.29v1C98.29,69.83,91.94,75.87,84.15,75.87Zm-12-12.43c.55,5.8,5.74,10.37,12,10.37s11.47-4.57,12-10.37Z" transform="translate(0 0)"/><path d="M97.26,62.74a1,1,0,0,1-.91-.55L84.15,39.36,72,62.19a1,1,0,0,1-1.82-1L83,37.16a1.37,1.37,0,0,1,2.33,0L98.17,61.22a1,1,0,0,1-.43,1.39A.94.94,0,0,1,97.26,62.74Z" transform="translate(0 0)"/><path d="M84.51,38.69h-41a1,1,0,1,1,0-2.07h41a1,1,0,1,1,0,2.07Z" transform="translate(0 0)"/><path d="M64,97.14a1,1,0,0,1-1-1V28.87a1,1,0,0,1,2.06,0V96.11A1,1,0,0,1,64,97.14Z" transform="translate(0 0)"/><path d="M87.19,97.47H40.81a1,1,0,0,1,0-2.07H87.19a1,1,0,0,1,0,2.07Z" transform="translate(0 0)"/></svg>