<svg id="Layer_1" data-name="Layer 1" xmlns="http://www.w3.org/2000/svg" viewBox="0 0 128 128"><defs><style>.cls-1{fill:#fff;}.cls-2{fill:#27635f;}</style></defs><circle class="cls-1" cx="64" cy="64" r="64"/><path class="cls-2" d="M64.05,128l-1.41,0a63.6,63.6,0,0,1-44.85-19.71h0A64,64,0,1,1,64.05,128ZM64,4.2A59.79,59.79,0,0,0,20.83,105.36h0A59.81,59.81,0,1,0,64,4.2Z"/><path d="M104.38,83.61h-30V67.41c0-2.74,1.86-5,4.15-5h21.68c2.29,0,4.16,2.24,4.16,5Zm-27.89-2.1h25.78V67.41c0-1.56-.94-2.87-2-2.87H78.54c-1.11,0-2.05,1.31-2.05,2.87Z"/><path d="M102.17,87H76.59a4.47,4.47,0,0,1-4.71-4.15V81.79l1.05-.07h34v1A4.48,4.48,0,0,1,102.17,87ZM74.32,83.82a2.77,2.77,0,0,0,2.27,1.08h25.58a2.81,2.81,0,0,0,2.29-1.08Z"/><path d="M98.17,68.48H80.57a1.06,1.06,0,0,1,0-2.11h17.6a1.06,1.06,0,1,1,0,2.11Z"/><path class="cls-1" d="M90.59,55.1a.72.72,0,0,1-1.25,0L88,52.72l-1.38-2.39a.72.72,0,0,1,.63-1.08h5.5a.72.72,0,0,1,.62,1.08L92,52.72Z"/><path d="M90,56.51h0a1.74,1.74,0,0,1-1.53-.89l-2.75-4.76a1.78,1.78,0,0,1,1.54-2.66h5.5a1.74,1.74,0,0,1,1.53.89,1.78,1.78,0,0,1,0,1.77L91.5,55.63A1.75,1.75,0,0,1,90,56.51ZM87.79,50.3,90,54.08l2.18-3.78Z"/><path d="M40.4,53.41a1.06,1.06,0,0,1-1.06-1V39.53a4.25,4.25,0,0,1,4.24-4.25H86.64A4.39,4.39,0,0,1,91,39.66v9.59a1,1,0,0,1-2.1,0V39.66a2.28,2.28,0,0,0-2.28-2.27H43.57a2.14,2.14,0,0,0-2.14,2.14l0,12.82a1.06,1.06,0,0,1-1.05,1.06Z"/><rect x="23.9" y="65.44" width="2.1" height="18.56"/><path class="cls-1" d="M25,84c0,3.42,6.2,6.19,13.86,6.19S52.68,87.42,52.68,84"/><path d="M38.82,91.24c-8.5,0-14.92-3.12-14.92-7.24H26c0,2.43,5.26,5.13,12.81,5.13S51.63,86.43,51.63,84h2.1C53.73,88.12,47.32,91.24,38.82,91.24Z"/><path class="cls-1" d="M25,77.81C25,81.23,31.16,84,38.82,84s13.86-2.77,13.86-6.19"/><path d="M38.82,85.05c-8.5,0-14.92-3.11-14.92-7.24H26C26,80.24,31.27,83,38.82,83s12.81-2.71,12.81-5.14h2.1C53.73,81.94,47.32,85.05,38.82,85.05Z"/><path class="cls-1" d="M25,71.62c0,3.42,6.2,6.19,13.86,6.19S52.68,75,52.68,71.62"/><path d="M38.82,78.86c-8.5,0-14.92-3.11-14.92-7.24H26c0,2.43,5.26,5.14,12.81,5.14s12.81-2.71,12.81-5.14h2.1C53.73,75.75,47.32,78.86,38.82,78.86Z"/><ellipse class="cls-1" cx="38.82" cy="65.44" rx="13.86" ry="6.19"/><path d="M38.82,72.67c-8.5,0-14.92-3.11-14.92-7.23s6.42-7.24,14.92-7.24,14.91,3.11,14.91,7.24S47.32,72.67,38.82,72.67Zm0-12.37C31.27,60.3,26,63,26,65.44s5.26,5.13,12.81,5.13,12.81-2.71,12.81-5.13S46.37,60.3,38.82,60.3Z"/><rect x="51.63" y="65.44" width="2.1" height="18.56"/></svg>