<svg id="Layer_1" data-name="Layer 1" xmlns="http://www.w3.org/2000/svg" viewBox="0 0 128 128"><defs><style>.cls-1{fill:#fff;}.cls-2{fill:#c09036;}</style></defs><circle class="cls-1" cx="64" cy="64" r="64"/><path class="cls-2" d="M63.94,128a64,64,0,1,1,57.81-36.51h0A64.17,64.17,0,0,1,63.94,128ZM64.07,4.2A59.78,59.78,0,1,0,118,89.68h0A59.79,59.79,0,0,0,64.07,4.2Z"/><path d="M82.32,100.27H44.53a4.25,4.25,0,0,1-4.13-4.35l-4-57.23A2.2,2.2,0,0,1,37,37a2.25,2.25,0,0,1,1.66-.72H88.25a2.29,2.29,0,0,1,1.67.72,2.24,2.24,0,0,1,.59,1.69L86.45,96A4.23,4.23,0,0,1,82.32,100.27ZM38.61,38.4a.17.17,0,0,0-.12.05l4,57.4a2.18,2.18,0,0,0,2,2.32H82.32a2.15,2.15,0,0,0,2-2.25l4.07-57.36Z"/><path d="M71.67,91.78h-.09a1.05,1.05,0,0,1-1-1.14l4-46.93a1.06,1.06,0,0,1,1.14-1,1.05,1.05,0,0,1,1,1.13l-4,46.93A1,1,0,0,1,71.67,91.78Z"/><path d="M55.29,91.78a1,1,0,0,1-1-1L50.54,43.89a1.05,1.05,0,1,1,2.1-.17l3.7,46.93a1,1,0,0,1-1,1.13Z"/><path d="M73.1,38.4H53.77v-1a9.67,9.67,0,1,1,19.33,0ZM56,36.3h15a7.56,7.56,0,0,0-15,0Z"/><path d="M94.5,38.4H32.37a1.05,1.05,0,0,1,0-2.1H94.5a1,1,0,0,1,0,2.1Z"/></svg>