<svg id="Layer_1" data-name="Layer 1" xmlns="http://www.w3.org/2000/svg" viewBox="0 0 128 128"><defs><style>.cls-1{fill:#fff;}.cls-2{fill:#faccfa;}.cls-3{fill:#262626;}</style></defs><circle class="cls-1" cx="64" cy="64" r="64"/><path class="cls-2" d="M63.87,128A64,64,0,0,1,12.14,26.52,63.95,63.95,0,1,1,63.87,128ZM64.13,4.09a60.56,60.56,0,0,0-9.65.78,59.57,59.57,0,1,0,9.65-.78Z" transform="translate(0 0)"/><path class="cls-1" d="M78.66,54.77H90.89a3.08,3.08,0,0,1,2.7,2.76v1.36" transform="translate(0 0)"/><path class="cls-3" d="M93.59,59.92a1,1,0,0,1-1-1V57.53a2.06,2.06,0,0,0-1.67-1.73H78.66a1,1,0,1,1,0-2H90.89a4.09,4.09,0,0,1,3.72,3.74v1.4A1,1,0,0,1,93.59,59.92Z" transform="translate(0 0)"/><path class="cls-3" d="M90.89,96.08H36.59a2.85,2.85,0,0,1-2.79-2.9V48.83a3.32,3.32,0,0,1,3.25-3.38h5.07a1,1,0,0,1,0,2H37.05a1.27,1.27,0,0,0-1.2,1.33V93.18a.91.91,0,0,0,.09.41l.05-.07C39.2,85.46,45.73,61,45.8,60.71c.54-1.63,1.14-2.84,3.7-2.84h54.3c.41,0,.72.21,1.16.77a3,3,0,0,1,.66,2.6l-12,32.3C93.15,95.1,92.12,96.08,90.89,96.08ZM38,94h52.9c.25,0,.59-.49.78-1.14l12-32.27c0-.18-.13-.48-.3-.7H49.5c-1.28,0-1.34.18-1.73,1.38C47.51,62.24,41.32,85.48,38,94Zm-1.93-.26h0Z" transform="translate(0 0)"/><path class="cls-3" d="M42.14,78.76h0a1,1,0,0,1-1-1V34.79a2.94,2.94,0,0,1,3-2.88H76.68a2.94,2.94,0,0,1,3,2.88v24.1a1,1,0,1,1-2.05,0V34.79a.9.9,0,0,0-.94-.83H44.12a.9.9,0,0,0-.95.83V77.74A1,1,0,0,1,42.14,78.76Z" transform="translate(0 0)"/><path d="M65.16,40.33H63a2.18,2.18,0,0,0-.48-1.44,1.81,1.81,0,0,0-1.48-.58,2.19,2.19,0,0,0-1,.22,1.42,1.42,0,0,0-.63.55,1.32,1.32,0,0,0-.21.72,1.35,1.35,0,0,0,.26.81,2.81,2.81,0,0,0,.63.66,5,5,0,0,0,.72.48l3,1.64a5,5,0,0,1,.72.43,4.57,4.57,0,0,1,.78.7,3.45,3.45,0,0,1,.62,1,3.13,3.13,0,0,1,.21,1.34A2.31,2.31,0,0,1,65.81,48a3.59,3.59,0,0,1-.78.91,3.07,3.07,0,0,1-1,.54l0,0a3.41,3.41,0,0,1,.88,1.18,3.56,3.56,0,0,1,.29,1.46,3.23,3.23,0,0,1-.57,2,3.51,3.51,0,0,1-1.52,1.18,5.37,5.37,0,0,1-2.07.39,5.15,5.15,0,0,1-2.3-.5,3.72,3.72,0,0,1-1.57-1.42,4.1,4.1,0,0,1-.56-2.17h2.17a1.9,1.9,0,0,0,.63,1.54,2.39,2.39,0,0,0,1.64.52,2.55,2.55,0,0,0,1.38-.37A1.22,1.22,0,0,0,63,52.11a1.48,1.48,0,0,0-.26-.88,2.61,2.61,0,0,0-.62-.62c-.25-.17-.49-.32-.71-.44l-3-1.61c-.2-.11-.44-.26-.71-.44a4.64,4.64,0,0,1-.78-.71,3.26,3.26,0,0,1-.84-2.36,2.39,2.39,0,0,1,.31-1.12,3.14,3.14,0,0,1,.77-.93,2.78,2.78,0,0,1,1-.55V42.4a4.13,4.13,0,0,1-.85-1.16,3.24,3.24,0,0,1-.32-1.44,3.19,3.19,0,0,1,.52-1.8A3.46,3.46,0,0,1,59,36.75a4.57,4.57,0,0,1,2.07-.46,4.28,4.28,0,0,1,2.17.53,3.62,3.62,0,0,1,1.43,1.42A4.22,4.22,0,0,1,65.16,40.33ZM64.1,46.91a1.37,1.37,0,0,0-.17-.72,2.2,2.2,0,0,0-.5-.61,4.1,4.1,0,0,0-.72-.48l-2.9-1.58a.81.81,0,0,0-.7,0,1.48,1.48,0,0,0-.67.56,1.59,1.59,0,0,0-.29.94,1.39,1.39,0,0,0,.39,1.07,3.85,3.85,0,0,0,1,.77l2.79,1.5a.87.87,0,0,0,.71,0,1.73,1.73,0,0,0,.72-.53A1.41,1.41,0,0,0,64.1,46.91Z" transform="translate(0 0)"/></svg>