<svg id="Layer_1" data-name="Layer 1" xmlns="http://www.w3.org/2000/svg" viewBox="0 0 128 128"><defs><style>.cls-1{fill:#fff;}.cls-2{fill:#95872c;}</style></defs><circle class="cls-1" cx="64" cy="64" r="64"/><path class="cls-2" d="M64,128a64.12,64.12,0,0,1-20.4-3.35h0A63.62,63.62,0,1,1,64,128ZM45,120.66A59.78,59.78,0,1,0,7.31,45,59.43,59.43,0,0,0,45,120.66Z" transform="translate(0 0)"/><path d="M88.43,96.83h0a4.57,4.57,0,0,1-3.27-1.37L52.47,62.52c-6.32,3.26-14.79,2.13-19.63-2.73A16.45,16.45,0,0,1,28.5,44.25l.44-1.83L38.45,52l9-1,1.13-9.1-9.44-9.48L41,32a16.42,16.42,0,0,1,15.29,4.46c4.77,4.78,6,13.47,3,19.73L91.72,88.94a4.63,4.63,0,0,1-3.29,7.89Zm-35.55-37,.77.85L86.64,94a2.56,2.56,0,0,0,1.78.74h0A2.53,2.53,0,0,0,91,92.21a2.53,2.53,0,0,0-.73-1.79L56.65,56.57l.38-.69c3-5.45,2-13.66-2.25-17.94a14.3,14.3,0,0,0-11.36-4.19l7.35,7.38L49.3,52.9,37.68,54.17l-7.47-7.49a14.32,14.32,0,0,0,4.12,11.63c4.31,4.32,12.3,5.22,17.81,2Z" transform="translate(0 0)"/><path class="cls-1" d="M71.8,56.73,47.33,82.43,45.83,81a1,1,0,0,0-1.52.29L38.39,92.88A1,1,0,0,0,38.57,94l1.55,1.48a1,1,0,0,0,1.14.13L52.51,89a1,1,0,0,0,.2-1.53L51.2,86.08,75.63,60.43" transform="translate(0 0)"/><path d="M40.77,96.79a2,2,0,0,1-1.38-.55l-1.55-1.48a2,2,0,0,1-.39-2.36l5.92-11.59a2,2,0,0,1,1.47-1.08,2,2,0,0,1,1.71.51l.74.71L71,56l1.52,1.45L47.37,83.91,45.1,81.77,39.33,93.36l1.52,1.36L52,88.13l-2.27-2L74.87,59.7l1.52,1.45L52.69,86l.74.7a2,2,0,0,1,.6,1.68,2,2,0,0,1-1,1.52L41.79,96.51A2,2,0,0,1,40.77,96.79Z" transform="translate(0 0)"/><path d="M78.12,62.54a4.81,4.81,0,0,1-3.34-1.33l-4-3.74a4.88,4.88,0,0,1-.19-6.89L87.56,32.66a4.9,4.9,0,0,1,6.89-.19l4,3.74a4.88,4.88,0,0,1,.19,6.89L81.67,61a4.8,4.8,0,0,1-3.41,1.52Zm-5.85-6.6,4,3.74a2.82,2.82,0,0,0,2,.75,2.73,2.73,0,0,0,1.94-.86L97.07,41.65A2.77,2.77,0,0,0,97,37.74L93,34a2.8,2.8,0,0,0-2-.75,2.73,2.73,0,0,0-1.94.86L72.15,52a2.79,2.79,0,0,0,.12,3.92Z" transform="translate(0 0)"/></svg>