<svg id="Layer_1" data-name="Layer 1" xmlns="http://www.w3.org/2000/svg" viewBox="0 0 128 128"><defs><style>.cls-1{fill:#fff;}.cls-2{fill:#114260;}</style></defs><circle class="cls-1" cx="64" cy="64" r="64"/><path class="cls-2" d="M64.14,128a64.72,64.72,0,0,1-13-1.33A64,64,0,0,1,1.33,51.11h0A64,64,0,1,1,64.14,128ZM5.45,52h0a59.78,59.78,0,0,0,91.45,62A59.78,59.78,0,1,0,5.45,52Z" transform="translate(0 0)"/><path d="M94.86,89.08H32.11V40a1.05,1.05,0,1,1,2.1,0V87H94.86a1.06,1.06,0,0,1,0,2.11Z" transform="translate(0 0)"/><polygon points="44.51 72.19 43.17 70.57 58.92 57.55 74.17 63.88 88.94 51.47 90.29 53.08 74.54 66.31 59.28 59.97 44.51 72.19"/><circle class="cls-1" cx="43.84" cy="71.38" r="2.73"/><path d="M43.84,75.16a3.78,3.78,0,1,1,3.78-3.78A3.78,3.78,0,0,1,43.84,75.16Zm0-5.46a1.68,1.68,0,1,0,1.68,1.68A1.68,1.68,0,0,0,43.84,69.7Z" transform="translate(0 0)"/><circle class="cls-1" cx="59.1" cy="58.76" r="2.73"/><path d="M59.1,62.54a3.78,3.78,0,1,1,3.78-3.78A3.78,3.78,0,0,1,59.1,62.54Zm0-5.46a1.68,1.68,0,1,0,1.68,1.68A1.68,1.68,0,0,0,59.1,57.08Z" transform="translate(0 0)"/><circle class="cls-1" cx="74.36" cy="65.09" r="2.73"/><path d="M74.35,68.88a3.79,3.79,0,1,1,3.79-3.79A3.79,3.79,0,0,1,74.35,68.88Zm0-5.47A1.68,1.68,0,1,0,76,65.09,1.69,1.69,0,0,0,74.35,63.41Z" transform="translate(0 0)"/><circle class="cls-1" cx="89.61" cy="52.28" r="2.73"/><path d="M89.61,56.06a3.78,3.78,0,1,1,3.79-3.78A3.79,3.79,0,0,1,89.61,56.06Zm0-5.46a1.68,1.68,0,1,0,1.68,1.68A1.68,1.68,0,0,0,89.61,50.6Z" transform="translate(0 0)"/></svg>