<svg id="Layer_1" data-name="Layer 1" xmlns="http://www.w3.org/2000/svg" viewBox="0 0 128 128"><defs><style>.cls-1{fill:#fff;}.cls-2{fill:#fdb6ba;}</style></defs><circle class="cls-1" cx="64" cy="64" r="64"/><path class="cls-2" d="M64,128a64.06,64.06,0,1,1,10.22-.82h0A64.58,64.58,0,0,1,64,128ZM64,4.2a59.79,59.79,0,1,0,59,50.28A59.56,59.56,0,0,0,64,4.2Z" transform="translate(0)"/><path d="M103.13,65.81H55.06a1.06,1.06,0,0,1,0-2.11h48.07a1.06,1.06,0,0,1,0,2.11Z" transform="translate(0)"/><path d="M90.36,72.69a1,1,0,0,1-1-1V64.88a1,1,0,1,1,2.1,0v6.76A1,1,0,0,1,90.36,72.69Z" transform="translate(0)"/><path d="M98.3,74.64a1,1,0,0,1-1-1V65.14a1,1,0,0,1,2.1,0v8.45A1,1,0,0,1,98.3,74.64Z" transform="translate(0)"/><path d="M41,79.9A15.15,15.15,0,1,1,56.11,64.76,15.17,15.17,0,0,1,41,79.9Zm0-28.19A13,13,0,1,0,54,64.76,13.06,13.06,0,0,0,41,51.71Z" transform="translate(0)"/></svg>