<svg id="Layer_1" data-name="Layer 1" xmlns="http://www.w3.org/2000/svg" viewBox="0 0 128 128"><defs><style>.cls-1{fill:#fff;}.cls-2{fill:#95872c;}.cls-3{fill:#bcbec0;}</style></defs><circle class="cls-1" cx="64" cy="64" r="64"/><path d="M120.13,8.93l-4.66,3-1.2-2.1,4.91-2.55-4.91-2.55,1.2-2.11,4.66,3L119.93,0h2.4l-.2,5.51,4.65-3L128,4.68l-4.9,2.55L128,9.78l-1.2,2.1-4.65-3,.2,5.51h-2.4Z" transform="translate(0)"/><path class="cls-2" d="M63.93,128a63.8,63.8,0,0,1-20.28-3.32h0A64,64,0,1,1,63.93,128Zm-19-7.31A59.78,59.78,0,0,0,117.5,37.36,59.78,59.78,0,1,0,45,120.67Z" transform="translate(0)"/><path class="cls-3" d="M66.41,127.93l-.16-4.2a59.24,59.24,0,0,0,13.35-2l1.1,4.06A63.5,63.5,0,0,1,66.41,127.93ZM52,126.82l-.87-.17a64.86,64.86,0,0,1-12.93-4.11l1.69-3.85A59.9,59.9,0,0,0,52,122.53l.82.17Zm42.15-6.4-2-3.7a60.6,60.6,0,0,0,11.12-7.67l2.76,3.18A64.67,64.67,0,0,1,94.14,120.42Zm-68.43-5.17a64.1,64.1,0,0,1-10.52-9.91l3.21-2.71a60.27,60.27,0,0,0,9.83,9.26Zm90.09-13.68-3.4-2.47A59.17,59.17,0,0,0,119,87.35L122.91,89A63.68,63.68,0,0,1,115.8,101.57ZM7.15,93.32A63.77,63.77,0,0,1,2,79.82l4.07-1A60,60,0,0,0,10.89,91.4ZM127,75.13l-4.14-.73a61.58,61.58,0,0,0,.93-10.48c0-1,0-2-.08-3l4.2-.21c0,1.06.08,2.13.08,3.21A65,65,0,0,1,127,75.13ZM0,65.5c0-.49,0-1,0-1.45A64.31,64.31,0,0,1,1.34,51.1L5.46,52a60.23,60.23,0,0,0-1.24,12.1c0,.45,0,.9,0,1.35ZM121.51,47.6a60.46,60.46,0,0,0-5.16-12.49l3.68-2a64.33,64.33,0,0,1,5.52,13.36ZM8.35,42.14,4.44,40.61A63.71,63.71,0,0,1,11.2,27.84l3.47,2.37A60,60,0,0,0,8.35,42.14Zm100.18-18a59.77,59.77,0,0,0-10.08-9l2.43-3.43a64.76,64.76,0,0,1,10.79,9.61ZM23.51,20l-2.84-3.09A64,64,0,0,1,32.34,8.39l2.08,3.66A60,60,0,0,0,23.51,20ZM86.61,8.64A60,60,0,0,0,76,5.43Q74.83,5.19,73.61,5L74.29.84c.86.14,1.73.3,2.6.48A64.15,64.15,0,0,1,88.2,4.74ZM46.83,6.72l-1.21-4A64.34,64.34,0,0,1,59.85.12l.27,4.2A59.45,59.45,0,0,0,46.83,6.72Z" transform="translate(0)"/><path d="M88.44,96.82a4.2,4.2,0,0,1-3.29-1.36L52.48,62.52c-6.34,3.25-14.79,2.12-19.63-2.73a16.43,16.43,0,0,1-4.34-15.54L29,42.42,38.46,52l9-1,1.14-9.09-9.44-9.48L41,32a16.47,16.47,0,0,1,15.29,4.46c4.76,4.79,6,13.47,3,19.74L91.73,88.94a4.64,4.64,0,0,1,0,6.54A4.57,4.57,0,0,1,88.44,96.82ZM52.88,59.87l.77.85L86.64,94a2.5,2.5,0,0,0,1.79.74h0A2.47,2.47,0,0,0,90.22,94a2.53,2.53,0,0,0,0-3.58L56.65,56.56l.39-.69c3-5.44,2-13.66-2.25-17.93a14.3,14.3,0,0,0-11.37-4.19l7.35,7.38L49.3,52.89,37.68,54.17l-7.46-7.49a14.33,14.33,0,0,0,4.12,11.63c4.31,4.32,12.3,5.22,17.81,2Z" transform="translate(0)"/><path class="cls-1" d="M71.81,56.73,47.34,82.42,45.83,81a1,1,0,0,0-1.51.28L38.4,92.87A.94.94,0,0,0,38.58,94l1.55,1.49a.93.93,0,0,0,1.13.12L52.52,89a1,1,0,0,0,.19-1.53l-1.5-1.42L75.63,60.42" transform="translate(0)"/><path d="M40.78,96.78a2,2,0,0,1-1.38-.54l-1.55-1.49a2,2,0,0,1-.39-2.36L43.38,80.8a2,2,0,0,1,1.47-1.08,2,2,0,0,1,1.7.51l.75.71L71.05,56l1.52,1.45L47.38,83.91l-2.27-2.15L39.33,93.35l1.52,1.37L52,88.12l-2.27-2L74.87,59.7l1.52,1.45L52.69,86l.75.7a2,2,0,0,1,.6,1.68,2,2,0,0,1-1,1.52L41.79,96.51A2,2,0,0,1,40.78,96.78Z" transform="translate(0)"/><path d="M78.13,62.53a4.9,4.9,0,0,1-3.35-1.32l-4-3.74a4.89,4.89,0,0,1-.2-6.89L87.57,32.66A4.86,4.86,0,0,1,91,31.14a4.93,4.93,0,0,1,3.49,1.33l4,3.74a4.89,4.89,0,0,1,.2,6.89L81.67,61A4.87,4.87,0,0,1,78.13,62.53Zm-5.86-6.59,4,3.74a2.77,2.77,0,0,0,3.91-.11L97.08,41.65A2.79,2.79,0,0,0,97,37.73L93,34a2.69,2.69,0,0,0-2-.76,2.75,2.75,0,0,0-1.93.86L72.16,52a2.78,2.78,0,0,0,.11,3.92Z" transform="translate(0)"/></svg>