<svg id="Layer_1" data-name="Layer 1" xmlns="http://www.w3.org/2000/svg" viewBox="0 0 128 128"><defs><style>.cls-1{fill:#fff;}.cls-2{fill:#5b7745;}.cls-3{fill:#bcbec0;}</style></defs><circle class="cls-1" cx="64" cy="64" r="64"/><path d="M40.91,94.76a6.07,6.07,0,0,1-6.08-5.89,6,6,0,0,1,1.63-4.36L55.55,64.09,36,44.12a6.12,6.12,0,0,1,.1-8.63,6.18,6.18,0,0,1,4.33-1.73,6.08,6.08,0,0,1,4.29,1.83L63.88,55.18l18.71-20a6.07,6.07,0,0,1,4.25-1.93A6.09,6.09,0,0,1,91.5,43.49L72.41,63.91,92,83.89a6.11,6.11,0,0,1-.1,8.62,6.11,6.11,0,0,1-8.62-.1L64.08,72.82l-18.71,20a6.07,6.07,0,0,1-4.25,1.93Zm-.54-58.9a4,4,0,0,0-4,4,4,4,0,0,0,1.13,2.84L58.45,64.06,38,85.94a4,4,0,0,0,.19,5.64,4,4,0,0,0,5.64-.18L64.05,69.78,84.74,90.94a4,4,0,0,0,5.65.06,3.94,3.94,0,0,0,1.19-2.81,4,4,0,0,0-1.13-2.84L69.51,63.94,90,42.06a4,4,0,0,0-5.84-5.46L63.92,58.22,43.22,37.06a4,4,0,0,0-2.81-1.2Z"/><path class="cls-2" d="M64,128a64.12,64.12,0,0,1-20.4-3.35h0A63.59,63.59,0,1,1,64,128ZM45,120.66a59.76,59.76,0,0,0,72.5-83.29A59.76,59.76,0,0,0,37.35,10.5,59.76,59.76,0,0,0,45,120.66Z"/><path class="cls-3" d="M66.38,127.94l-.16-4.2a59.24,59.24,0,0,0,13.35-2l1.1,4.06A64.16,64.16,0,0,1,66.38,127.94ZM52,126.83l-.86-.17a63.85,63.85,0,0,1-12.93-4.12l1.69-3.84A60.34,60.34,0,0,0,52,122.54l.74.15Zm42.14-6.4-2-3.7a60.26,60.26,0,0,0,11.12-7.67l2.76,3.17A63.9,63.9,0,0,1,94.1,120.43Zm-68.41-5.17a64.1,64.1,0,0,1-10.52-9.91l3.21-2.71a59.79,59.79,0,0,0,9.83,9.25Zm90.07-13.68-3.4-2.47A58.68,58.68,0,0,0,119,87.36L122.87,89A63.18,63.18,0,0,1,115.76,101.58ZM7.14,93.34A63.8,63.8,0,0,1,2,79.84l4.07-1a60.25,60.25,0,0,0,4.81,12.62ZM127,75.14l-4.14-.73a60.31,60.31,0,0,0,.92-10.48c0-1,0-2-.07-3l4.2-.21c.05,1.07.08,2.14.08,3.21A65.61,65.61,0,0,1,127,75.14ZM0,65.51c0-.48,0-1,0-1.45A64.29,64.29,0,0,1,1.32,51.12L5.44,52A60.21,60.21,0,0,0,4.2,64.06c0,.46,0,.91,0,1.36Zm121.45-17.9a60.15,60.15,0,0,0-5.16-12.48l3.68-2a64.42,64.42,0,0,1,5.52,13.36ZM8.33,42.17,4.42,40.64a63.51,63.51,0,0,1,6.76-12.78l3.47,2.38A59.48,59.48,0,0,0,8.33,42.17Zm100.17-18a60.05,60.05,0,0,0-10.08-9l2.42-3.44a64.38,64.38,0,0,1,10.79,9.62ZM23.49,20l-2.85-3.1A64.64,64.64,0,0,1,32.31,8.42l2.08,3.65A60.35,60.35,0,0,0,23.49,20ZM86.58,8.66A60,60,0,0,0,76,5.46c-.81-.17-1.63-.32-2.44-.45L74.25.86q1.31.21,2.61.48a64.66,64.66,0,0,1,11.3,3.43ZM46.8,6.74l-1.21-4A63.77,63.77,0,0,1,59.82.15l.27,4.2A59.44,59.44,0,0,0,46.8,6.74Z"/><path d="M120.11,8.92l-4.66,3-1.2-2.11,4.91-2.55-4.91-2.55,1.2-2.1,4.66,2.95-.2-5.5h2.4l-.2,5.5,4.65-2.95,1.2,2.1-4.9,2.55L128,9.77l-1.2,2.11-4.65-3,.2,5.51h-2.4Z"/></svg>