<svg id="Layer_1" data-name="Layer 1" xmlns="http://www.w3.org/2000/svg" viewBox="0 0 128 128"><defs><style>.cls-1{fill:#fff;}.cls-2{fill:#5b7745;}</style></defs><circle class="cls-1" cx="64" cy="64" r="64"/><path d="M40.93,94.76a6,6,0,0,1-4.16-1.64,6.11,6.11,0,0,1-.29-8.61L55.57,64.1,36,44.12a6.11,6.11,0,0,1,.1-8.62,6.37,6.37,0,0,1,4.33-1.74,6.08,6.08,0,0,1,4.29,1.83L63.9,55.18l18.71-20a6.07,6.07,0,0,1,4.25-1.93,6.23,6.23,0,0,1,4.37,1.64,6.11,6.11,0,0,1,.29,8.61L72.43,63.91,92,83.89a6.09,6.09,0,0,1-4.35,10.35h-.08a6.08,6.08,0,0,1-4.29-1.83L64.1,72.82l-18.71,20a6.07,6.07,0,0,1-4.25,1.93Zm-.54-58.89a4,4,0,0,0-2.86,6.78L58.47,64.06,38,85.94a4,4,0,0,0,.19,5.65,4,4,0,0,0,5.64-.19L64.07,69.78,84.76,90.94a4,4,0,0,0,2.81,1.2A3.93,3.93,0,0,0,90.4,91a4,4,0,0,0,.07-5.64L69.53,63.94,90,42.06a4,4,0,0,0-.2-5.65,3.93,3.93,0,0,0-2.86-1.07,4,4,0,0,0-2.78,1.26L63.93,58.22,43.24,37.06a3.94,3.94,0,0,0-2.81-1.19Z"/><path class="cls-2" d="M64.06,128a64.12,64.12,0,0,1-20.4-3.35h0a64,64,0,0,1-40.31-81,64,64,0,0,1,81-40.31A64,64,0,0,1,64.06,128ZM63.94,4.21A59.78,59.78,0,0,0,45,120.66h0a59.76,59.76,0,0,0,72.5-83.29A59.33,59.33,0,0,0,83,7.34,59.94,59.94,0,0,0,63.94,4.21Z"/></svg>