<svg id="Layer_1" data-name="Layer 1" xmlns="http://www.w3.org/2000/svg" viewBox="0 0 128 128"><defs><style>.cls-1{fill:#fff;}.cls-2{fill:#fdb6ba;}</style></defs><circle class="cls-1" cx="64" cy="64" r="64"/><path class="cls-2" d="M63.89,128A64.08,64.08,0,0,1,2.51,81.71h0A63.87,63.87,0,1,1,63.89,128ZM6.55,80.54a59.78,59.78,0,1,0,40.88-74,59.34,59.34,0,0,0-40.88,74Z" transform="translate(0 0)"/><path d="M61.53,91.63H29.27A5.27,5.27,0,0,1,24,86.37V61a5.26,5.26,0,0,1,5.26-5.25H61.53A5.26,5.26,0,0,1,66.79,61V86.37A5.27,5.27,0,0,1,61.53,91.63ZM29.27,57.81A3.16,3.16,0,0,0,26.11,61V86.37a3.17,3.17,0,0,0,3.16,3.16H61.53a3.16,3.16,0,0,0,3.15-3.16V61a3.15,3.15,0,0,0-3.15-3.15Z" transform="translate(0 0)"/><path d="M58,56.76H55.87V44.65a10.48,10.48,0,1,0-20.95,0V56.76h-2.1V44.65a12.58,12.58,0,0,1,25.16,0Z" transform="translate(0 0)"/><circle class="cls-1" cx="75.42" cy="60.19" r="14.8"/><path d="M75.41,76a15.84,15.84,0,1,1,12.08-5.56A15.77,15.77,0,0,1,75.41,76Zm0-29.59c-.37,0-.75,0-1.12,0A13.63,13.63,0,0,0,65,51.27a13.75,13.75,0,1,0,19.38-1.55A13.63,13.63,0,0,0,75.45,46.44Z" transform="translate(0 0)"/><path d="M103.67,87.1a3.86,3.86,0,0,1-2.49-.94L84,72.1l1.33-1.63,17.17,14.08a1.82,1.82,0,0,0,1.25.45,1,1,0,0,0,.66-.31l.31-.37a1,1,0,0,0,.21-.71,1.78,1.78,0,0,0-.63-1.14L87.17,68.41l1.33-1.63,17.18,14.08a3.85,3.85,0,0,1,1.37,2.59,3,3,0,0,1-.7,2.23l-.31.37a3,3,0,0,1-2.1,1Z" transform="translate(0 0)"/><line class="cls-1" x1="45.4" y1="75.2" x2="45.4" y2="69.92"/><path d="M45.4,76.26a1.06,1.06,0,0,1-1-1.06V69.92a1.05,1.05,0,0,1,2.1,0V75.2A1.06,1.06,0,0,1,45.4,76.26Z" transform="translate(0 0)"/><circle class="cls-1" cx="45.4" cy="67.66" r="2.26"/><path d="M45.4,71a3.31,3.31,0,1,1,3.31-3.31A3.31,3.31,0,0,1,45.4,71Zm0-4.51a1.21,1.21,0,1,0,1.21,1.2A1.21,1.21,0,0,0,45.4,66.46Z" transform="translate(0 0)"/></svg>