<svg id="Layer_1" data-name="Layer 1" xmlns="http://www.w3.org/2000/svg" viewBox="0 0 128 128"><defs><style>.cls-1{fill:#fff;}.cls-2{fill:#27635f;}.cls-3{fill:#bcbec0;}</style></defs><circle class="cls-1" cx="64" cy="64" r="64"/><path d="M120.14,8.92l-4.65,2.95-1.21-2.1,4.91-2.55-4.91-2.56,1.21-2.1,4.65,3L119.94,0h2.4l-.2,5.51,4.66-3,1.2,2.1-4.91,2.56L128,9.77l-1.2,2.1-4.66-2.95.2,5.51h-2.4Z" transform="translate(0)"/><rect x="23.89" y="66.91" width="2.1" height="18.55"/><path class="cls-1" d="M24.94,85.46c0,3.42,6.21,6.18,13.86,6.18s13.85-2.76,13.85-6.18" transform="translate(0)"/><path d="M38.8,92.7c-8.5,0-14.91-3.12-14.91-7.24H26c0,2.43,5.26,5.13,12.81,5.13s12.8-2.7,12.8-5.13h2.1C53.7,89.58,47.3,92.7,38.8,92.7Z" transform="translate(0)"/><path class="cls-1" d="M24.94,79.28c0,3.41,6.21,6.18,13.86,6.18s13.85-2.77,13.85-6.18" transform="translate(0)"/><path d="M38.8,86.51c-8.5,0-14.91-3.11-14.91-7.23H26c0,2.42,5.26,5.13,12.81,5.13s12.8-2.71,12.8-5.13h2.1C53.7,83.4,47.3,86.51,38.8,86.51Z" transform="translate(0)"/><path class="cls-1" d="M24.94,73.09c0,3.42,6.21,6.19,13.86,6.19s13.85-2.77,13.85-6.19" transform="translate(0)"/><path d="M38.8,80.33c-8.5,0-14.91-3.11-14.91-7.24H26c0,2.43,5.26,5.14,12.81,5.14s12.8-2.71,12.8-5.14h2.1C53.7,77.22,47.3,80.33,38.8,80.33Z" transform="translate(0)"/><ellipse class="cls-1" cx="38.8" cy="66.91" rx="13.85" ry="6.18"/><path d="M38.8,74.14c-8.5,0-14.91-3.11-14.91-7.23s6.41-7.24,14.91-7.24,14.9,3.11,14.9,7.24S47.3,74.14,38.8,74.14Zm0-12.37C31.25,61.77,26,64.48,26,66.91S31.25,72,38.8,72s12.8-2.71,12.8-5.13S46.34,61.77,38.8,61.77Z" transform="translate(0)"/><rect x="51.6" y="66.91" width="2.1" height="18.55"/><path class="cls-2" d="M64,128H62.61a63.57,63.57,0,0,1-44.83-19.71h0a64,64,0,1,1,92.41-88.52,64,64,0,0,1-2,90.46A63.51,63.51,0,0,1,64,128ZM64,4.27a59.76,59.76,0,0,0-43.16,101.1h0A59.78,59.78,0,1,0,64,4.27Z" transform="translate(0)"/><path d="M90.61,94.88a18.7,18.7,0,1,1,18.69-18.7A18.71,18.71,0,0,1,90.61,94.88Zm0-35.29A16.6,16.6,0,1,0,107.2,76.18,16.61,16.61,0,0,0,90.61,59.59Z" transform="translate(0)"/><path d="M90.61,94.88c-5.59,0-10-8.21-10-18.7s4.38-18.69,10-18.69,10,8.21,10,18.69S96.21,94.88,90.61,94.88Zm0-35.29c-4.27,0-7.87,7.6-7.87,16.59s3.6,16.6,7.87,16.6,7.88-7.6,7.88-16.6S94.88,59.59,90.61,59.59Z" transform="translate(0)"/><rect x="75.04" y="66.71" width="31.3" height="2.1"/><rect x="75.04" y="83.54" width="31.3" height="2.1"/><rect x="73.13" y="75.13" width="35.13" height="2.1"/><rect x="89.56" y="58.54" width="2.1" height="35.29"/><path class="cls-3" d="M66.4,128l-.15-4.19a59.81,59.81,0,0,0,13.35-2l1.1,4A63,63,0,0,1,66.4,128ZM52,126.85l-.86-.17a65.13,65.13,0,0,1-12.93-4.12l1.69-3.85A60.37,60.37,0,0,0,52,122.56l.82.16Zm42.15-6.4-2-3.71a60.62,60.62,0,0,0,11.13-7.66l2.75,3.17A64.88,64.88,0,0,1,94.13,120.45ZM25.7,115.28a64.16,64.16,0,0,1-10.52-9.92l3.21-2.71a60.27,60.27,0,0,0,9.83,9.26Zm90.1-13.68-3.4-2.48A59.17,59.17,0,0,0,119,87.37L122.91,89A64,64,0,0,1,115.8,101.6ZM7.15,93.35A64,64,0,0,1,2,79.84l4.07-1a60,60,0,0,0,4.81,12.62ZM127,75.15l-4.14-.74a61.37,61.37,0,0,0,.93-10.47c0-1,0-2-.08-3l4.2-.21c0,1.07.08,2.14.08,3.22A65,65,0,0,1,127,75.15ZM0,65.52c0-.48,0-1,0-1.45A64.31,64.31,0,0,1,1.33,51.12L5.45,52a60.23,60.23,0,0,0-1.24,12.1c0,.45,0,.9,0,1.35ZM121.51,47.61a60.69,60.69,0,0,0-5.16-12.49l3.68-2a64.55,64.55,0,0,1,5.52,13.36ZM8.34,42.17,4.43,40.64a63.51,63.51,0,0,1,6.76-12.78l3.47,2.37A59.56,59.56,0,0,0,8.34,42.17ZM108.53,24.11a59.71,59.71,0,0,0-10.08-9l2.43-3.44a64.36,64.36,0,0,1,10.78,9.62ZM23.5,20l-2.85-3.09A64.69,64.69,0,0,1,32.32,8.41l2.09,3.65A59.86,59.86,0,0,0,23.5,20ZM86.61,8.65A60,60,0,0,0,76,5.45c-.81-.17-1.63-.32-2.44-.45L74.28.85c.87.14,1.74.3,2.6.48A64.51,64.51,0,0,1,88.19,4.76ZM46.82,6.74l-1.21-4A63.77,63.77,0,0,1,59.84.14l.27,4.2A58.89,58.89,0,0,0,46.82,6.74Z" transform="translate(0)"/><path class="cls-1" d="M90.55,52.94a.72.72,0,0,1-1.25,0l-1.38-2.38-1.37-2.39a.72.72,0,0,1,.62-1.08h5.5a.72.72,0,0,1,.63,1.08l-1.38,2.39Z" transform="translate(0)"/><path d="M89.92,54.35a1.75,1.75,0,0,1-1.53-.88L85.64,48.7A1.78,1.78,0,0,1,87.17,46h5.5a1.78,1.78,0,0,1,1.54.89,1.75,1.75,0,0,1,0,1.77l-2.75,4.76a1.76,1.76,0,0,1-1.54.89Zm-.28-1.94Zm-1.89-4.26,2.17,3.76,2.18-3.76Z" transform="translate(0)"/><path d="M40.38,51.25a1,1,0,0,1-1.05-1l0-12.82a4.25,4.25,0,0,1,4.24-4.25H86.6A4.38,4.38,0,0,1,91,37.51v9.58a1.05,1.05,0,1,1-2.1,0V37.51a2.28,2.28,0,0,0-2.27-2.28h-43a2.15,2.15,0,0,0-2.14,2.15l0,12.81a1.05,1.05,0,0,1-1,1.06Z" transform="translate(0)"/></svg>