<svg id="Layer_1" data-name="Layer 1" xmlns="http://www.w3.org/2000/svg" viewBox="0 0 128 128.01"><defs><style>.cls-1{fill:#fff;}.cls-2{fill:#faccfa;}</style></defs><circle class="cls-1" cx="64" cy="64.01" r="64"/><path d="M106.3,86.68H86.37V78.51h5.25V56.35H86.37V48.19H106.3v8.16h-5.25V78.51h5.25ZM88.43,84.61h15.81v-4H99V54.29h5.26v-4H88.43v4h5.26V80.58H88.43Z" transform="translate(0 0.01)"/><path d="M96.33,45.89a6.61,6.61,0,0,1-4.87-2,6.85,6.85,0,0,1-.06-9.61,6.56,6.56,0,0,1,4.93-2,6.74,6.74,0,0,1,4.83,2,6.5,6.5,0,0,1,2,4.85,6.88,6.88,0,0,1-6.87,6.87Zm0-11.62a4.54,4.54,0,0,0-3.44,1.4,4.81,4.81,0,0,0,0,6.74,4.76,4.76,0,0,0,6.79,0,4.57,4.57,0,0,0,1.42-3.4,4.48,4.48,0,0,0-1.41-3.37A4.67,4.67,0,0,0,96.33,34.27Z" transform="translate(0 0.01)"/><rect x="21.68" y="49.96" width="2.06" height="33.61"/><path d="M47.81,95.8c-14.65,0-26.13-5.38-26.13-12.24h2.07c0,5.52,11,10.17,24.06,10.17s24.07-4.65,24.07-10.17h2.06C73.94,90.42,62.46,95.8,47.81,95.8Z" transform="translate(0 0.01)"/><path d="M47.81,84.59c-14.65,0-26.13-5.37-26.13-12.23h2.07c0,5.51,11,10.17,24.06,10.17s24.07-4.66,24.07-10.17h2.06C73.94,79.22,62.46,84.59,47.81,84.59Z" transform="translate(0 0.01)"/><path d="M47.81,73.39c-14.65,0-26.13-5.37-26.13-12.23h2.07c0,5.51,11,10.17,24.06,10.17s24.07-4.66,24.07-10.17h2.06C73.94,68,62.46,73.39,47.81,73.39Z" transform="translate(0 0.01)"/><path d="M47.81,62.19c-14.65,0-26.13-5.38-26.13-12.24S33.16,37.72,47.81,37.72,73.94,43.09,73.94,50,62.46,62.19,47.81,62.19Zm0-22.41c-13,0-24.06,4.66-24.06,10.17s11,10.18,24.06,10.18S71.88,55.47,71.88,50,60.86,39.78,47.81,39.78Z" transform="translate(0 0.01)"/><rect x="71.88" y="49.96" width="2.06" height="33.61"/><path class="cls-2" d="M64.13,128A64.07,64.07,0,0,1,1.32,51.12h0a64,64,0,0,1,116.1-22.33A64,64,0,0,1,64.13,128ZM5.36,52A59.86,59.86,0,1,0,31.06,14,59.92,59.92,0,0,0,5.36,52Z" transform="translate(0 0.01)"/></svg>