<svg id="Layer_1" data-name="Layer 1" xmlns="http://www.w3.org/2000/svg" viewBox="0 0 128 128"><defs><style>.cls-1{fill:#fff;}.cls-2{fill:#27635f;}.cls-3{fill:#bcbec0;}</style></defs><circle class="cls-1" cx="64" cy="64" r="64"/><path class="cls-2" d="M64,128a63.81,63.81,0,0,1-46.22-19.7h0A64,64,0,1,1,64,128ZM20.81,105.39a59.79,59.79,0,1,0,1.81-84.55,59.85,59.85,0,0,0-1.81,84.55Z"/><path d="M104.32,83.65h-30V67.45c0-2.74,1.86-5,4.15-5h21.67c2.29,0,4.15,2.23,4.15,5ZM76.45,81.54h25.77V67.45c0-1.56-.94-2.87-2-2.87H78.5c-1.11,0-2,1.31-2,2.87Z"/><path d="M102.12,87H76.55a4.47,4.47,0,0,1-4.71-4.16v-1l1-.07h33.94v1A4.47,4.47,0,0,1,102.12,87ZM74.28,83.86a2.79,2.79,0,0,0,2.27,1.07h25.57a2.8,2.8,0,0,0,2.28-1.07Z"/><path d="M98.12,68.52H80.53a1.06,1.06,0,0,1,0-2.11H98.12a1.06,1.06,0,0,1,0,2.11Z"/><path class="cls-1" d="M90.54,55.14a.71.71,0,0,1-1.24,0l-1.38-2.38-1.37-2.38a.72.72,0,0,1,.62-1.08h5.5a.72.72,0,0,1,.62,1.08l-1.37,2.38Z"/><path d="M89.92,56.55a1.75,1.75,0,0,1-1.53-.88L85.63,50.9a1.78,1.78,0,0,1,1.54-2.66h5.5a1.77,1.77,0,0,1,1.53,2.67l-2.75,4.76A1.75,1.75,0,0,1,89.92,56.55Zm-.29-1.94h0Zm-1.89-4.26,2.18,3.77,2.18-3.77Zm4.64-.5Z"/><path d="M40.37,53.45a1,1,0,0,1-1-1.05l0-12.82a4.25,4.25,0,0,1,4.24-4.25H86.59A4.38,4.38,0,0,1,91,39.71V49.3a1.05,1.05,0,0,1-2.1,0V39.71a2.28,2.28,0,0,0-2.28-2.28H43.54a2.14,2.14,0,0,0-2.14,2.15l0,12.82a1,1,0,0,1-1.05,1.05Z"/><rect x="23.89" y="65.48" width="2.1" height="18.56"/><path class="cls-1" d="M24.94,84c0,3.41,6.2,6.18,13.85,6.18S52.65,87.45,52.65,84"/><path d="M38.79,91.27c-8.5,0-14.9-3.11-14.9-7.23H26c0,2.42,5.26,5.13,12.8,5.13S51.6,86.46,51.6,84h2.1C53.7,88.16,47.29,91.27,38.79,91.27Z"/><path class="cls-1" d="M24.94,77.85c0,3.42,6.2,6.19,13.85,6.19s13.86-2.77,13.86-6.19"/><path d="M38.79,85.09c-8.5,0-14.9-3.12-14.9-7.24H26C26,80.28,31.25,83,38.79,83s12.81-2.7,12.81-5.13h2.1C53.7,82,47.29,85.09,38.79,85.09Z"/><path class="cls-1" d="M24.94,71.66c0,3.42,6.2,6.19,13.85,6.19s13.86-2.77,13.86-6.19"/><path d="M38.79,78.9c-8.5,0-14.9-3.11-14.9-7.24H26c0,2.43,5.26,5.14,12.8,5.14S51.6,74.09,51.6,71.66h2.1C53.7,75.79,47.29,78.9,38.79,78.9Z"/><ellipse class="cls-1" cx="38.79" cy="65.48" rx="13.86" ry="6.19"/><path d="M38.79,72.71c-8.5,0-14.9-3.11-14.9-7.23s6.4-7.24,14.9-7.24S53.7,61.35,53.7,65.48,47.29,72.71,38.79,72.71Zm0-12.37c-7.54,0-12.8,2.71-12.8,5.14s5.26,5.13,12.8,5.13,12.81-2.7,12.81-5.13S46.34,60.34,38.79,60.34Z"/><rect x="51.6" y="65.48" width="2.1" height="18.56"/><path class="cls-3" d="M66.4,128l-.15-4.19a59.81,59.81,0,0,0,13.35-2l1.1,4A63,63,0,0,1,66.4,128ZM52,126.88l-.86-.18a64.11,64.11,0,0,1-12.94-4.11l1.69-3.85A60.57,60.57,0,0,0,52,122.59l.82.16Zm42.15-6.4-2-3.71a60.26,60.26,0,0,0,11.12-7.67l2.76,3.17A64.44,64.44,0,0,1,94.13,120.48ZM25.7,115.3a64.1,64.1,0,0,1-10.52-9.91l3.21-2.72a59.36,59.36,0,0,0,9.82,9.26Zm90.1-13.68-3.4-2.47A59.24,59.24,0,0,0,119,87.39L122.91,89A63.76,63.76,0,0,1,115.8,101.62ZM7.14,93.37A64.09,64.09,0,0,1,2,79.86l4.07-1a60.54,60.54,0,0,0,4.81,12.63ZM127,75.16l-4.14-.73A61.49,61.49,0,0,0,123.8,64c0-1,0-2-.08-3l4.2-.21c0,1.06.08,2.13.08,3.21A65,65,0,0,1,127,75.16ZM0,65.53c0-.48,0-1,0-1.45A64.31,64.31,0,0,1,1.32,51.13L5.44,52A60.41,60.41,0,0,0,4.2,64.08c0,.45,0,.9,0,1.35ZM121.51,47.62a59.61,59.61,0,0,0-5.16-12.48l3.68-2a63.65,63.65,0,0,1,5.52,13.37ZM8.34,42.16,4.43,40.63a63,63,0,0,1,6.76-12.78l3.47,2.38A59.25,59.25,0,0,0,8.34,42.16Zm100.19-18a58.84,58.84,0,0,0-10.07-9l2.42-3.44a64,64,0,0,1,10.79,9.62ZM23.5,20l-2.85-3.09A64.29,64.29,0,0,1,32.33,8.4l2.08,3.65A60.56,60.56,0,0,0,23.5,20ZM86.61,8.65A59.43,59.43,0,0,0,76,5.44Q74.83,5.2,73.61,5L74.28.84c.87.14,1.73.3,2.6.48A65.13,65.13,0,0,1,88.2,4.75ZM46.83,6.73l-1.22-4A63.85,63.85,0,0,1,59.85.13l.26,4.2A58.91,58.91,0,0,0,46.83,6.73Z"/><path d="M120.14,8.91l-4.66,3-1.2-2.11,4.91-2.55-4.91-2.55,1.2-2.11,4.66,3L119.94,0h2.4l-.2,5.51,4.66-3L128,4.66l-4.91,2.55L128,9.76l-1.2,2.11-4.66-3,.2,5.51h-2.4Z"/></svg>