<svg id="Layer_1" data-name="Layer 1" xmlns="http://www.w3.org/2000/svg" viewBox="0 0 128 128"><defs><style>.cls-1{fill:#fff;}.cls-2{fill:#faccfa;}</style></defs><circle class="cls-1" cx="64" cy="64" r="64"/><path d="M52.25,58.56A14.44,14.44,0,1,1,66.69,44.12,14.46,14.46,0,0,1,52.25,58.56Zm0-26.81A12.38,12.38,0,1,0,64.63,44.12,12.39,12.39,0,0,0,52.25,31.75Z" transform="translate(0 0)"/><path d="M73.59,95.24H30.92a5.86,5.86,0,0,1-5.85-5.85V80.48A21.09,21.09,0,0,1,46.14,59.42H58.37A21.1,21.1,0,0,1,79.44,80.48v8.91A5.86,5.86,0,0,1,73.59,95.24ZM46.14,61.48a19,19,0,0,0-19,19v8.91a3.78,3.78,0,0,0,3.78,3.78H73.59a3.79,3.79,0,0,0,3.78-3.78V80.48a19,19,0,0,0-19-19Z" transform="translate(0 0)"/><path class="cls-2" d="M64,128A64.1,64.1,0,0,1,2.51,81.73h0A64,64,0,1,1,64,128ZM6.48,80.58A59.85,59.85,0,0,0,116.37,93,59.85,59.85,0,1,0,6.48,80.58Z" transform="translate(0 0)"/><path d="M105.93,88.5H86V80.33h5.26V58.17H86V50h19.94v8.16h-5.25V80.33h5.25ZM88.06,86.43h15.81v-4H98.61V56.11h5.26v-4H88.06v4h5.25V82.4H88.06Z" transform="translate(0 0)"/><path d="M96,47.71a6.88,6.88,0,0,1-6.87-6.87A6.68,6.68,0,0,1,91,36.07,6.54,6.54,0,0,1,96,34a6.73,6.73,0,0,1,4.83,2,6.5,6.5,0,0,1,2,4.85,6.58,6.58,0,0,1-2,4.87A6.67,6.67,0,0,1,96,47.71Zm0-11.62a4.5,4.5,0,0,0-3.44,1.41,4.79,4.79,0,0,0,0,6.73,4.77,4.77,0,0,0,6.79,0,4.59,4.59,0,0,0,1.42-3.41,4.51,4.51,0,0,0-1.41-3.37A4.67,4.67,0,0,0,96,36.09Z" transform="translate(0 0)"/></svg>