<svg id="Layer_1" data-name="Layer 1" xmlns="http://www.w3.org/2000/svg" viewBox="0 0 128 128"><defs><style>.cls-1{fill:#fff;}.cls-2{fill:#27635f;}</style></defs><circle class="cls-1" cx="64" cy="64" r="64"/><rect x="23.87" y="66.89" width="2.1" height="18.56"/><path class="cls-1" d="M24.92,85.45c0,3.42,6.2,6.19,13.86,6.19s13.86-2.77,13.86-6.19" transform="translate(0 0)"/><path d="M38.78,92.69c-8.5,0-14.91-3.11-14.91-7.24H26c0,2.43,5.26,5.13,12.81,5.13s12.81-2.7,12.81-5.13h2.1C53.69,89.58,47.28,92.69,38.78,92.69Z" transform="translate(0 0)"/><path class="cls-1" d="M24.92,79.26c0,3.42,6.2,6.19,13.86,6.19s13.86-2.77,13.86-6.19" transform="translate(0 0)"/><path d="M38.78,86.5c-8.5,0-14.91-3.11-14.91-7.24H26c0,2.43,5.26,5.14,12.81,5.14s12.81-2.71,12.81-5.14h2.1C53.69,83.39,47.28,86.5,38.78,86.5Z" transform="translate(0 0)"/><path class="cls-1" d="M24.92,73.08c0,3.41,6.2,6.18,13.86,6.18s13.86-2.77,13.86-6.18" transform="translate(0 0)"/><path d="M38.78,80.31c-8.5,0-14.91-3.11-14.91-7.23H26c0,2.43,5.26,5.13,12.81,5.13s12.81-2.7,12.81-5.13h2.1C53.69,77.2,47.28,80.31,38.78,80.31Z" transform="translate(0 0)"/><ellipse class="cls-1" cx="38.78" cy="66.89" rx="13.86" ry="6.19"/><path d="M38.78,74.13c-8.5,0-14.91-3.11-14.91-7.24s6.41-7.24,14.91-7.24,14.91,3.11,14.91,7.24S47.28,74.13,38.78,74.13Zm0-12.37c-7.55,0-12.81,2.7-12.81,5.13S31.23,72,38.78,72s12.81-2.71,12.81-5.14S46.33,61.76,38.78,61.76Z" transform="translate(0 0)"/><rect x="51.59" y="66.89" width="2.1" height="18.56"/><path class="cls-2" d="M64,128H62.6a63.59,63.59,0,0,1-44.85-19.72h0A64,64,0,1,1,64,128ZM20.79,105.37a59.8,59.8,0,0,0,86.36-82.73,59.8,59.8,0,1,0-86.36,82.73Z" transform="translate(0 0)"/><path d="M90.61,94.87a18.7,18.7,0,1,1,18.7-18.7A18.72,18.72,0,0,1,90.61,94.87Zm0-35.3a16.6,16.6,0,1,0,16.59,16.6A16.62,16.62,0,0,0,90.61,59.57Z" transform="translate(0 0)"/><path d="M90.61,94.87c-5.6,0-10-8.22-10-18.7s4.38-18.7,10-18.7,10,8.21,10,18.7S96.2,94.87,90.61,94.87Zm0-35.3c-4.27,0-7.88,7.6-7.88,16.6s3.61,16.6,7.88,16.6,7.87-7.6,7.87-16.6S94.87,59.57,90.61,59.57Z" transform="translate(0 0)"/><rect x="75.03" y="66.7" width="31.31" height="2.1"/><rect x="75.03" y="83.53" width="31.31" height="2.1"/><rect x="73.12" y="75.11" width="35.14" height="2.1"/><rect x="89.55" y="58.52" width="2.1" height="35.3"/><path class="cls-1" d="M90.54,52.92a.72.72,0,0,1-1.25,0l-1.37-2.39-1.38-2.38a.72.72,0,0,1,.63-1.08h5.5a.72.72,0,0,1,.62,1.08l-1.37,2.38Z" transform="translate(0 0)"/><path d="M89.92,54.33a1.79,1.79,0,0,1-1.54-.89l-2.75-4.76a1.75,1.75,0,0,1,0-1.77A1.77,1.77,0,0,1,87.16,46h5.51a1.78,1.78,0,0,1,1.53,2.66l-2.75,4.76A1.76,1.76,0,0,1,89.92,54.33Zm-2.18-6.21,2.18,3.77,2.18-3.77Z" transform="translate(0 0)"/><path d="M40.36,51.23a1,1,0,0,1-1-1l0-12.83a4.24,4.24,0,0,1,4.24-4.24H86.59A4.39,4.39,0,0,1,91,37.49v9.58a1.06,1.06,0,0,1-2.11,0V37.49a2.28,2.28,0,0,0-2.27-2.28H43.53a2.14,2.14,0,0,0-2.14,2.14l0,12.82a1.06,1.06,0,0,1-1,1.06Z" transform="translate(0 0)"/></svg>