<svg id="Layer_1" data-name="Layer 1" xmlns="http://www.w3.org/2000/svg" viewBox="0 0 128 128"><defs><style>.cls-1{fill:#fff;}.cls-2{fill:#c09036;}.cls-3{fill:#d1d3d4;}</style></defs><circle class="cls-1" cx="64" cy="64" r="64"/><path class="cls-2" d="M64,128a64,64,0,1,1,57.79-36.5h0A64.09,64.09,0,0,1,64,128ZM64.09,4.2A59.77,59.77,0,1,0,118,89.66h0A59.76,59.76,0,0,0,64.09,4.2Z" transform="translate(0 0)"/><path d="M82.34,100.24H44.55a4.24,4.24,0,0,1-4.12-4.35l-4-57.22a2.26,2.26,0,0,1,2.25-2.38H88.26a2.26,2.26,0,0,1,2.27,2.4L86.46,96A4.23,4.23,0,0,1,82.34,100.24ZM38.63,38.39a.17.17,0,0,0-.12,0l4,57.38a2.17,2.17,0,0,0,2,2.32H82.34a2.15,2.15,0,0,0,2-2.25l4.07-57.34Z" transform="translate(0 0)"/><path d="M71.69,91.75H71.6a1.05,1.05,0,0,1-1-1.14l4-46.91a1.06,1.06,0,0,1,1.13-1,1.05,1.05,0,0,1,1,1.14l-4,46.91A1,1,0,0,1,71.69,91.75Z" transform="translate(0 0)"/><path d="M55.32,91.75a1,1,0,0,1-1-1l-3.7-46.92a1.05,1.05,0,0,1,1-1.13,1.07,1.07,0,0,1,1.13,1l3.7,46.91a1,1,0,0,1-1,1.13Z" transform="translate(0 0)"/><path d="M73.12,38.39H53.79v-1a9.67,9.67,0,0,1,19.33,0ZM56,36.29h15a7.56,7.56,0,0,0-15,0Z" transform="translate(0 0)"/><path d="M94.51,38.39H32.4a1.05,1.05,0,0,1,0-2.1H94.51a1,1,0,0,1,0,2.1Z" transform="translate(0 0)"/><path class="cls-3" d="M66.4,127.89l-.15-4.19a59.81,59.81,0,0,0,13.35-2l1.1,4A63,63,0,0,1,66.4,127.89ZM52,126.79l-.86-.18a63.82,63.82,0,0,1-12.93-4.11l1.69-3.84A60.34,60.34,0,0,0,52,122.5l.82.16Zm42.15-6.4-2-3.7A60.26,60.26,0,0,0,103.26,109l2.76,3.17A64.16,64.16,0,0,1,94.13,120.39Zm-68.42-5.17a64.1,64.1,0,0,1-10.52-9.91l3.21-2.72a59.43,59.43,0,0,0,9.83,9.26Zm90.07-13.68-3.4-2.47A58.68,58.68,0,0,0,119,87.32L122.89,89A63.18,63.18,0,0,1,115.78,101.54ZM7.16,93.3A64.43,64.43,0,0,1,2,79.79l4.07-1a60.46,60.46,0,0,0,4.81,12.62ZM127,75.1l-4.14-.73a59.58,59.58,0,0,0,.93-10.47c0-1,0-2-.08-3l4.2-.21c0,1.06.08,2.14.08,3.22A64,64,0,0,1,127,75.1ZM0,65.47c0-.48,0-1,0-1.45A65,65,0,0,1,1.34,51.08l4.12.85A60.2,60.2,0,0,0,4.23,64c0,.46,0,.91,0,1.36Zm121.45-17.9a60.15,60.15,0,0,0-5.16-12.48l3.68-2a64.11,64.11,0,0,1,5.52,13.36ZM8.36,42.13,4.44,40.6A64,64,0,0,1,11.2,27.82l3.47,2.38A58.94,58.94,0,0,0,8.36,42.13ZM108.52,24.08a59.77,59.77,0,0,0-10.08-9l2.42-3.43a64,64,0,0,1,10.79,9.61ZM23.51,20l-2.85-3.09A64.56,64.56,0,0,1,32.33,8.38L34.41,12A60.84,60.84,0,0,0,23.51,20ZM86.6,8.62A60,60,0,0,0,76,5.42c-.81-.17-1.62-.32-2.44-.45L74.27.82q1.31.22,2.61.48a64.66,64.66,0,0,1,11.3,3.43ZM46.82,6.71l-1.21-4A64.34,64.34,0,0,1,59.84.11l.27,4.2A58.89,58.89,0,0,0,46.82,6.71Z" transform="translate(0 0)"/><path d="M119.93,9.09,115.27,12l-1.2-2.1L119,7.38l-4.91-2.55,1.2-2.1,4.66,2.95-.2-5.5h2.4l-.2,5.5,4.65-2.95,1.2,2.1-4.9,2.55,4.9,2.56-1.2,2.1-4.65-2.95.2,5.5h-2.4Z" transform="translate(0 0)"/></svg>