<svg id="Layer_1" data-name="Layer 1" xmlns="http://www.w3.org/2000/svg" viewBox="0 0 128 128"><defs><style>.cls-1{fill:#fff;}.cls-2{fill:none;stroke:#000;stroke-linecap:round;stroke-miterlimit:10;stroke-width:2px;}.cls-3{fill:#fdb6ba;}</style></defs><circle class="cls-1" cx="64" cy="64" r="64"/><path class="cls-2" d="M39.15,112" transform="translate(0)"/><path class="cls-3" d="M63.91,128A64,64,0,0,1,8,33.06,64,64,0,0,1,125.47,46.28a64,64,0,0,1-43.76,79.19A64.28,64.28,0,0,1,63.91,128ZM64.09,4.2A59.78,59.78,0,1,0,80.55,121.43,59.77,59.77,0,0,0,92.91,11.69,59.48,59.48,0,0,0,64.09,4.2Z" transform="translate(0)"/><path d="M94.91,77.4H91.05a1.49,1.49,0,0,1-1.46-1.52l-.17-2.36a14.3,14.3,0,0,1-3.91-1.62l-1.85,1.6a1.51,1.51,0,0,1-.94.41,1.4,1.4,0,0,1-1.11-.42l-2.73-2.73a1.41,1.41,0,0,1-.42-1,1.56,1.56,0,0,1,.46-1.09l1.55-1.78A14.15,14.15,0,0,1,78.86,63l-2.44-.17h0A1.47,1.47,0,0,1,75,61.33V57.46A1.49,1.49,0,0,1,76.49,56l2.37-.17a14.22,14.22,0,0,1,1.61-3.91l-1.6-1.84a1.47,1.47,0,0,1,0-2l2.73-2.73a1.54,1.54,0,0,1,2.11,0l1.79,1.55a14.3,14.3,0,0,1,3.91-1.62l.17-2.44a1.47,1.47,0,0,1,1.46-1.44h3.86a1.49,1.49,0,0,1,1.46,1.51l.17,2.37a14.56,14.56,0,0,1,3.91,1.62l1.84-1.61a1.22,1.22,0,0,1,1-.4,1.43,1.43,0,0,1,1,.42L107.08,48a1.5,1.5,0,0,1,0,2.11l-1.56,1.79a14.56,14.56,0,0,1,1.62,3.91l2.42.17A1.48,1.48,0,0,1,111,57.46v3.87a1.49,1.49,0,0,1-1.51,1.46L107.1,63a14.3,14.3,0,0,1-1.62,3.91l1.61,1.85a1.48,1.48,0,0,1,.4,1,1.43,1.43,0,0,1-.42,1l-2.72,2.72a1.49,1.49,0,0,1-2.11,0l-1.79-1.55a14.56,14.56,0,0,1-3.91,1.62L96.37,76A1.48,1.48,0,0,1,94.91,77.4Zm-.64-1.59v0Zm-2.59,0v0A.09.09,0,0,0,91.68,75.76Zm0-.46h2.66l.25-3.52.79-.15a12.06,12.06,0,0,0,4.6-1.91l.67-.45,2.66,2.31,1.89-1.88L102.85,67l.46-.67a12.32,12.32,0,0,0,1.9-4.61l.15-.79,3.52-.25V58.06l-3.52-.24-.15-.8a12.45,12.45,0,0,0-1.9-4.61l-.46-.66,2.31-2.66-1.88-1.88-2.66,2.31-.67-.45a12.06,12.06,0,0,0-4.6-1.91L94.56,47l-.25-3.52H91.65L91.4,47l-.79.15A12.17,12.17,0,0,0,86,49.07l-.67.45-2.66-2.31-1.88,1.88,2.31,2.66-.45.66A12.45,12.45,0,0,0,80.75,57l-.16.8-3.52.24v2.67l3.52.24.16.79a12.32,12.32,0,0,0,1.9,4.61l.45.67L80.79,69.7l1.88,1.88,2.66-2.31.67.45a12.17,12.17,0,0,0,4.61,1.91l.79.15ZM83.09,72h0Zm-.81-.08,0,0Zm21.37,0,0,0S103.66,71.91,103.65,71.9Zm1.85-1.81,0,0Zm-25,0,0,0Zm25.11-.78h0Zm-25.23,0h0Zm29-8.58h0Zm-32.9,0h0Zm.12-2.58h0Zm28.89-9.4,0,0Zm-25.1-.06,0,.06Zm1.88-1.77,0,0Zm21.45-.06-.06.06Zm-20.63,0h0ZM94.27,43v0Zm-2.58-.08V43A.22.22,0,0,0,91.69,42.9Z" transform="translate(0)"/><path d="M93,69.15a9.76,9.76,0,1,1,9.75-9.76A9.77,9.77,0,0,1,93,69.15Zm0-17.41a7.66,7.66,0,1,0,7.65,7.65A7.66,7.66,0,0,0,93,51.74Z" transform="translate(0)"/><path d="M93,69.15a9.76,9.76,0,1,1,9.75-9.76A9.77,9.77,0,0,1,93,69.15Zm0-17.41a7.66,7.66,0,1,0,7.65,7.65A7.66,7.66,0,0,0,93,51.74Z" transform="translate(0)"/><path d="M51.32,57.47A14.7,14.7,0,1,1,66,42.77,14.72,14.72,0,0,1,51.32,57.47Zm0-27.3a12.6,12.6,0,1,0,12.61,12.6A12.62,12.62,0,0,0,51.32,30.17Z" transform="translate(0)"/><path d="M73.05,94.81H29.6a6,6,0,0,1-6-6V79.79A21.48,21.48,0,0,1,45.1,58.34H57.55A21.48,21.48,0,0,1,79,79.79v9.07A6,6,0,0,1,73.05,94.81ZM45.1,60.44A19.37,19.37,0,0,0,25.75,79.79v9.07a3.86,3.86,0,0,0,3.85,3.85H73.05a3.86,3.86,0,0,0,3.85-3.85V79.79A19.37,19.37,0,0,0,57.55,60.44Z" transform="translate(0)"/></svg>