<svg id="Layer_1" data-name="Layer 1" xmlns="http://www.w3.org/2000/svg" viewBox="0 0 128 128"><defs><style>.cls-1{fill:#fff;}.cls-2{fill:#faccfa;}.cls-3{fill:#262626;}</style></defs><circle class="cls-1" cx="64" cy="64" r="64"/><path class="cls-2" d="M63.88,128A64,64,0,1,1,91.49,6.25,64,64,0,0,1,63.88,128Zm.2-123.86a59.88,59.88,0,1,0,54,85.62h0a59.87,59.87,0,0,0-54-85.62Z"/><path d="M61.35,40H59.2a2.16,2.16,0,0,0-.48-1.44,1.76,1.76,0,0,0-1.47-.58,2.26,2.26,0,0,0-1,.21,1.59,1.59,0,0,0-.62.55,1.38,1.38,0,0,0-.22.73,1.41,1.41,0,0,0,.26.8,3.06,3.06,0,0,0,.63.67,6.42,6.42,0,0,0,.72.48L60,43a6.35,6.35,0,0,1,.71.44,4.18,4.18,0,0,1,.78.7,3.54,3.54,0,0,1,.62,1,3,3,0,0,1,.22,1.34A2.28,2.28,0,0,1,62,47.6a3.33,3.33,0,0,1-.79.92,3.07,3.07,0,0,1-1,.54v0a3.44,3.44,0,0,1,.88,1.18,3.69,3.69,0,0,1,.29,1.46,3.19,3.19,0,0,1-.58,2,3.49,3.49,0,0,1-1.52,1.17,5.36,5.36,0,0,1-2.06.4,5.12,5.12,0,0,1-2.3-.5,3.72,3.72,0,0,1-1.57-1.42,4,4,0,0,1-.57-2.18H55a1.92,1.92,0,0,0,.63,1.55,2.37,2.37,0,0,0,1.63.52,2.6,2.6,0,0,0,1.39-.37,1.23,1.23,0,0,0,.6-1.13,1.51,1.51,0,0,0-.25-.89,2.44,2.44,0,0,0-.63-.61c-.25-.17-.48-.32-.71-.45l-3-1.61c-.2-.11-.43-.25-.71-.44a4.18,4.18,0,0,1-.78-.7,3.51,3.51,0,0,1-.62-1,3.17,3.17,0,0,1-.21-1.35,2.25,2.25,0,0,1,.31-1.12,3.11,3.11,0,0,1,.76-.93,2.89,2.89,0,0,1,1-.56v0a4.5,4.5,0,0,1-.85-1.16,3.24,3.24,0,0,1-.31-1.44,3.27,3.27,0,0,1,.51-1.81,3.65,3.65,0,0,1,1.42-1.24,4.49,4.49,0,0,1,2.08-.46,4.41,4.41,0,0,1,2.17.52,3.78,3.78,0,0,1,1.43,1.43A4.33,4.33,0,0,1,61.35,40Zm-1.06,6.58a1.29,1.29,0,0,0-.18-.72,2.2,2.2,0,0,0-.5-.61,3,3,0,0,0-.72-.48L56,43.14a.8.8,0,0,0-.71,0,1.58,1.58,0,0,0-.67.55,1.78,1.78,0,0,0-.29.95,1.42,1.42,0,0,0,.39,1.07,4,4,0,0,0,1,.77l2.8,1.5a.84.84,0,0,0,.7,0,1.62,1.62,0,0,0,.72-.52A1.5,1.5,0,0,0,60.29,46.53Z"/><path class="cls-3" d="M76.32,87.77h-38a5.13,5.13,0,0,1-5.12-5.13V34.13A5.13,5.13,0,0,1,38.29,29h38a5.13,5.13,0,0,1,5.13,5.13V82.64A5.13,5.13,0,0,1,76.32,87.77Zm-38-56.72a3.08,3.08,0,0,0-3.07,3.08V82.64a3.08,3.08,0,0,0,3.07,3.08h38a3.08,3.08,0,0,0,3.08-3.08V34.13a3.08,3.08,0,0,0-3.08-3.08Z"/><path d="M80.71,99.63h-.29A20.71,20.71,0,0,1,60,80.75a1,1,0,0,1,.92-1.11,1,1,0,0,1,1.12.93,18.68,18.68,0,0,0,18.39,17h.26A18.72,18.72,0,0,0,98.36,85.12a1,1,0,0,1,1.94.69A20.79,20.79,0,0,1,80.71,99.63Z"/><path d="M61,81.69a1,1,0,0,1-1-.93,20.13,20.13,0,0,1-.09-2.2,1.06,1.06,0,0,1,1-1,1,1,0,0,1,1,1,18.22,18.22,0,0,0,.08,2,1,1,0,0,1-.93,1.12Z"/><path class="cls-1" d="M60.4,73.71a.85.85,0,0,1,1.47,0l1.57,2.83L65,79.38a.85.85,0,0,1-.75,1.26L61,80.6l-3.24,0a.85.85,0,0,1-.72-1.28l1.66-2.78Z"/><path d="M64.29,81.67h0l-6.48-.09a1.83,1.83,0,0,1-1.6-1,1.87,1.87,0,0,1,0-1.87l3.32-5.57a1.85,1.85,0,0,1,1.6-.91h0a1.86,1.86,0,0,1,1.61,1l3.16,5.65a1.88,1.88,0,0,1-1.63,2.79Zm-6.17-2.14,5.86.08L61.12,74.5Zm2.28-5.82h0Z"/><path d="M99.49,74.62a1,1,0,0,1-1-.93,18.66,18.66,0,0,0-18.39-17h-.26A18.7,18.7,0,0,0,62.17,69.13a1,1,0,0,1-1.31.63,1,1,0,0,1-.63-1.31A20.78,20.78,0,0,1,79.82,54.63h.29a20.7,20.7,0,0,1,20.4,18.87,1,1,0,0,1-.92,1.12Z"/><path d="M99.57,76.71h0a1,1,0,0,1-1-1,18.51,18.51,0,0,0-.08-2,1,1,0,0,1,2-.19,20,20,0,0,1,.09,2.2A1,1,0,0,1,99.57,76.71Z"/><path class="cls-1" d="M100.13,80.55a.85.85,0,0,1-1.47,0L97.08,77.7,95.5,74.87a.85.85,0,0,1,.76-1.26l3.23,0,3.24,0a.85.85,0,0,1,.72,1.28l-1.66,2.79Z"/><path d="M99.4,82h0a1.83,1.83,0,0,1-1.61-1l-3.16-5.66a1.87,1.87,0,0,1,0-1.87,1.63,1.63,0,0,1,1.64-.91l6.47.09a1.87,1.87,0,0,1,1.59,2.83L101,81.07A1.83,1.83,0,0,1,99.4,82Zm.16-2h0Zm-3-5.39,2.86,5.12,3-5Z"/></svg>