<svg id="Layer_1" data-name="Layer 1" xmlns="http://www.w3.org/2000/svg" viewBox="0 0 128 128"><defs><style>.cls-1{fill:#fff;}.cls-2{fill:#231f20;}.cls-3{fill:#060256;}</style></defs><circle class="cls-1" cx="64" cy="64" r="64"/><path class="cls-2" d="M41.06,108V86.86H35.18c-4.41,0-8-4-8-8.84V38.94c0-4.87,3.59-8.84,8-8.84h57c4.41,0,8,4,8,8.84V78c0,4.88-3.59,8.84-8,8.84H59.44ZM35.18,32.21c-3.25,0-5.9,3-5.9,6.73V78c0,3.72,2.65,6.74,5.9,6.74h8v17.61L58.49,84.76h33.7c3.25,0,5.9-3,5.9-6.74V38.94c0-3.71-2.65-6.73-5.9-6.73Z" transform="translate(0)"/><path class="cls-2" d="M53.29,55.31a9,9,0,1,1,9-9A9,9,0,0,1,53.29,55.31Zm0-15.81a6.86,6.86,0,1,0,6.86,6.85A6.86,6.86,0,0,0,53.29,39.5Z" transform="translate(0)"/><path class="cls-2" d="M65.87,78H40.7a3.9,3.9,0,0,1-3.89-3.9V68.83A12.89,12.89,0,0,1,49.68,56h7.21A12.9,12.9,0,0,1,69.77,68.83v5.25A3.91,3.91,0,0,1,65.87,78ZM49.68,58.06A10.78,10.78,0,0,0,38.91,68.83v5.25a1.8,1.8,0,0,0,1.79,1.8H65.87a1.8,1.8,0,0,0,1.79-1.8V68.83A10.78,10.78,0,0,0,56.89,58.06Z" transform="translate(0)"/><path class="cls-2" d="M81.32,74.14l-.42-.09c-9.76-3-10.85-13.56-10-19.29l.12-.79.87-.17c.79-.09,6-1.57,8.58-3.55l.64-.49.84.49c2.61,2,7.78,3.46,8.57,3.55l.75.09.24.81c.9,5.79-.19,16.3-9.93,19.34Zm-8.39-18.4c-.32,2.89-.79,13.18,8.32,16.21,9.09-3,8.64-13.28,8.31-16.21a30.22,30.22,0,0,1-8.31-3.44A30.14,30.14,0,0,1,72.93,55.74Zm8.22-4.66h0Z" transform="translate(0)"/><rect class="cls-2" x="80.2" y="51.08" width="2.1" height="21.96"/><path class="cls-3" d="M64,128A64,64,0,0,1,1.33,51.12h0A64,64,0,1,1,64,128ZM5.45,52h0A59.78,59.78,0,1,0,31.11,14.09,59.35,59.35,0,0,0,5.45,52Z" transform="translate(0)"/></svg>