<svg id="Layer_1" data-name="Layer 1" xmlns="http://www.w3.org/2000/svg" viewBox="0 0 128 128"><defs><style>.cls-1{fill:#fff;}.cls-2{fill:#ee9b64;}</style></defs><circle class="cls-1" cx="64" cy="64" r="64"/><path class="cls-2" d="M64,128a64,64,0,1,1,57.82-36.51h0A64.17,64.17,0,0,1,64,128ZM64.11,4.2A59.78,59.78,0,1,0,118,89.68h0A59.78,59.78,0,0,0,64.11,4.2Z" transform="translate(0 0)"/><path d="M70,101.89H38a5.07,5.07,0,0,1-5.07-5.07V55.73A5.08,5.08,0,0,1,38,50.65H70A5.09,5.09,0,0,1,75,55.73V96.82A5.08,5.08,0,0,1,70,101.89ZM38,52.76a3,3,0,0,0-3,3V96.82a3,3,0,0,0,3,3H70a3,3,0,0,0,3-3V55.73a3,3,0,0,0-3-3Z" transform="translate(0 0)"/><path d="M48.37,90.94a1,1,0,0,1-.76-1.78L58.82,77.54a1,1,0,0,1,1.48,0,1.06,1.06,0,0,1,0,1.49L49.12,90.62A1,1,0,0,1,48.37,90.94Z" transform="translate(0 0)"/><path d="M59.57,90.94a1,1,0,0,1-.75-.32L47.61,79a1.06,1.06,0,0,1,0-1.49,1,1,0,0,1,1.48,0L60.33,89.16a1,1,0,0,1-.76,1.78Z" transform="translate(0 0)"/><path class="cls-1" d="M86.88,24.58H59.17a4,4,0,0,0-4,4V69.69a4,4,0,0,0,4,4h32a4,4,0,0,0,4-4V32.88a1.33,1.33,0,0,0-.39-.94l-7-7A1.33,1.33,0,0,0,86.88,24.58Z" transform="translate(0 0)"/><path d="M91.15,74.77h-32a5.08,5.08,0,0,1-5.07-5.08V28.61a5.08,5.08,0,0,1,5.07-5.08H86.88a2.4,2.4,0,0,1,1.68.69l7,7a2.4,2.4,0,0,1,.69,1.68V69.69A5.09,5.09,0,0,1,91.15,74.77Zm-32-49.14a3,3,0,0,0-3,3V69.69a3,3,0,0,0,3,3h32a3,3,0,0,0,3-3V32.88l-7.25-7.25Z" transform="translate(0 0)"/><path d="M95.12,33.53H90.9a5.12,5.12,0,0,1-5.08-5.14V24.6a1,1,0,1,1,2.1,0v3.79a3,3,0,0,0,3,3h4.22a1,1,0,1,1,0,2.1Z" transform="translate(0 0)"/><path d="M83.32,40.08H67.06a1.05,1.05,0,0,1,0-2.1H83.32a1.05,1.05,0,1,1,0,2.1Z" transform="translate(0 0)"/><path d="M83.32,46.42H67a1,1,0,0,1,0-2.1H83.32a1,1,0,0,1,0,2.1Z" transform="translate(0 0)"/><path d="M75,65l-5.39-6.12a1,1,0,1,1,1.57-1.39L75,61.77l7.56-9.1A1.05,1.05,0,1,1,84.13,54Z" transform="translate(0 0)"/></svg>